<svg xmlns="http://www.w3.org/2000/svg" width="1200" height="720" viewBox="0 0 1200 720" role="img" aria-labelledby="title desc">
  <title id="title">Defensa oral con soporte verificable</title>
  <desc id="desc">Flujo de defensa individual que conecta pregunta del profesor, respuesta corta, archivo verificable y límite declarado.</desc>
  <rect width="1200" height="720" fill="#f8fafc"/>
  <text x="70" y="74" font-family="Arial, sans-serif" font-size="34" font-weight="700" fill="#172033">Defensa oral: responder con un archivo, no con memoria</text>
  <text x="70" y="114" font-family="Arial, sans-serif" font-size="20" fill="#475569">La defensa verifica autoría, criterio técnico y límites de la recomendación.</text>

  <defs>
    <marker id="arrow" markerWidth="12" markerHeight="12" refX="10" refY="6" orient="auto">
      <path d="M2,2 L10,6 L2,10 Z" fill="#334155"/>
    </marker>
  </defs>

  <g transform="translate(110 175)" font-family="Arial, sans-serif">
    <rect x="0" y="0" width="220" height="160" rx="18" fill="#ffffff" stroke="#cbd5e1" stroke-width="2"/>
    <text x="26" y="44" font-size="22" font-weight="700" fill="#172033">Pregunta</text>
    <text x="26" y="82" font-size="17" fill="#475569">métrica</text>
    <text x="26" y="112" font-size="17" fill="#475569">validación</text>
    <text x="26" y="142" font-size="17" fill="#475569">limitación</text>

    <rect x="270" y="0" width="220" height="160" rx="18" fill="#ffffff" stroke="#cbd5e1" stroke-width="2"/>
    <text x="296" y="44" font-size="22" font-weight="700" fill="#172033">Respuesta</text>
    <text x="296" y="82" font-size="17" fill="#475569">45 segundos</text>
    <text x="296" y="112" font-size="17" fill="#475569">tesis clara</text>
    <text x="296" y="142" font-size="17" fill="#475569">sin exagerar</text>

    <rect x="540" y="0" width="220" height="160" rx="18" fill="#ffffff" stroke="#cbd5e1" stroke-width="2"/>
    <text x="566" y="44" font-size="22" font-weight="700" fill="#172033">Soporte</text>
    <text x="566" y="82" font-size="17" fill="#475569">tabla o figura</text>
    <text x="566" y="112" font-size="17" fill="#475569">archivo fuente</text>
    <text x="566" y="142" font-size="17" fill="#475569">cálculo mínimo</text>

    <rect x="810" y="0" width="220" height="160" rx="18" fill="#ffffff" stroke="#cbd5e1" stroke-width="2"/>
    <text x="836" y="44" font-size="22" font-weight="700" fill="#172033">Límite</text>
    <text x="836" y="82" font-size="17" fill="#475569">qué no se sabe</text>
    <text x="836" y="112" font-size="17" fill="#475569">riesgo principal</text>
    <text x="836" y="142" font-size="17" fill="#475569">siguiente paso</text>

    <line x1="220" y1="80" x2="270" y2="80" stroke="#334155" stroke-width="3" marker-end="url(#arrow)"/>
    <line x1="490" y1="80" x2="540" y2="80" stroke="#334155" stroke-width="3" marker-end="url(#arrow)"/>
    <line x1="760" y1="80" x2="810" y2="80" stroke="#334155" stroke-width="3" marker-end="url(#arrow)"/>
  </g>

  <g transform="translate(190 430)" font-family="Arial, sans-serif">
    <rect x="0" y="0" width="820" height="170" rx="18" fill="#ffffff" stroke="#cbd5e1" stroke-width="2"/>
    <text x="36" y="44" font-size="24" font-weight="700" fill="#172033">Criterio 0/1/2</text>
    <text x="36" y="82" font-size="19" fill="#475569">0: no responde o no hay soporte</text>
    <text x="36" y="114" font-size="19" fill="#475569">1: idea parcial, soporte incompleto</text>
    <text x="36" y="146" font-size="19" fill="#475569">2: respuesta correcta, archivo verificable y límite específico</text>
  </g>
</svg>
