<svg xmlns="http://www.w3.org/2000/svg" viewBox="0 0 1200 1600" role="img" aria-labelledby="title desc">
  <title id="title">Portada de Matemáticas y Algoritmos en Ciencia de Datos Aplicada</title>
  <desc id="desc">Portada azul con el código MATE-2105, título del libro, autor César Galindo y un diagrama geométrico de datos, nodos y curvas de validación.</desc>
  <rect width="1200" height="1600" fill="#17324d"/>
  <rect x="70" y="70" width="1060" height="1460" rx="28" fill="#f7f9fb"/>
  <rect x="110" y="110" width="980" height="1380" rx="20" fill="#17324d"/>
  <path d="M180 1180 C330 990 450 1320 610 1080 S880 940 1020 1120" fill="none" stroke="#7bdcb5" stroke-width="10" stroke-linecap="round"/>
  <path d="M180 1260 C340 1160 420 1370 610 1210 S840 1110 1020 1265" fill="none" stroke="#f4c542" stroke-width="7" stroke-linecap="round" opacity="0.9"/>
  <g stroke="#d8dee6" stroke-width="3" opacity="0.36">
    <path d="M230 330 430 470 610 350 810 520 970 410"/>
    <path d="M270 720 470 590 670 735 895 650"/>
    <path d="M430 470 470 590 610 350 670 735 810 520"/>
  </g>
  <g>
    <circle cx="230" cy="330" r="18" fill="#7bdcb5"/>
    <circle cx="430" cy="470" r="18" fill="#f4c542"/>
    <circle cx="610" cy="350" r="18" fill="#ffffff"/>
    <circle cx="810" cy="520" r="18" fill="#7bdcb5"/>
    <circle cx="970" cy="410" r="18" fill="#f4c542"/>
    <circle cx="270" cy="720" r="18" fill="#ffffff"/>
    <circle cx="470" cy="590" r="18" fill="#7bdcb5"/>
    <circle cx="670" cy="735" r="18" fill="#f4c542"/>
    <circle cx="895" cy="650" r="18" fill="#ffffff"/>
  </g>
  <g fill="none" stroke="#ffffff" stroke-width="5" opacity="0.92">
    <rect x="770" y="790" width="210" height="150" rx="16"/>
    <path d="M805 905 840 860 885 890 940 825"/>
    <path d="M805 835 H945"/>
  </g>
  <g fill="#7bdcb5" opacity="0.92">
    <rect x="215" y="835" width="46" height="46" rx="8"/>
    <rect x="281" y="835" width="46" height="46" rx="8"/>
    <rect x="347" y="835" width="46" height="46" rx="8"/>
    <rect x="215" y="901" width="46" height="46" rx="8"/>
    <rect x="281" y="901" width="46" height="46" rx="8"/>
    <rect x="347" y="901" width="46" height="46" rx="8"/>
  </g>
  <text x="180" y="210" fill="#7bdcb5" font-family="Arial, Helvetica, sans-serif" font-size="44" font-weight="700" letter-spacing="4">MATE-2105</text>
  <text x="180" y="290" fill="#ffffff" font-family="Arial, Helvetica, sans-serif" font-size="74" font-weight="700">Matemáticas y</text>
  <text x="180" y="375" fill="#ffffff" font-family="Arial, Helvetica, sans-serif" font-size="74" font-weight="700">Algoritmos en</text>
  <text x="180" y="460" fill="#ffffff" font-family="Arial, Helvetica, sans-serif" font-size="74" font-weight="700">Ciencia de Datos</text>
  <text x="180" y="545" fill="#ffffff" font-family="Arial, Helvetica, sans-serif" font-size="74" font-weight="700">Aplicada</text>
  <text x="180" y="645" fill="#d8dee6" font-family="Arial, Helvetica, sans-serif" font-size="34">Libro del curso</text>
  <text x="180" y="700" fill="#f4c542" font-family="Arial, Helvetica, sans-serif" font-size="34" font-weight="700">regresión · redes · validación · reproducibilidad</text>
  <text x="180" y="1405" fill="#ffffff" font-family="Arial, Helvetica, sans-serif" font-size="38" font-weight="700">César Galindo</text>
  <text x="180" y="1460" fill="#d8dee6" font-family="Arial, Helvetica, sans-serif" font-size="28">Edición de trabajo 2026-20</text>
</svg>
