<?xml version="1.0" encoding="utf-8" standalone="no"?>
<!DOCTYPE svg PUBLIC "-//W3C//DTD SVG 1.1//EN"
  "http://www.w3.org/Graphics/SVG/1.1/DTD/svg11.dtd">
<svg xmlns:xlink="http://www.w3.org/1999/xlink" width="751.32pt" height="421.631625pt" viewBox="0 0 751.32 421.631625" xmlns="http://www.w3.org/2000/svg" version="1.1">
 <metadata>
  <rdf:RDF xmlns:dc="http://purl.org/dc/elements/1.1/" xmlns:cc="http://creativecommons.org/ns#" xmlns:rdf="http://www.w3.org/1999/02/22-rdf-syntax-ns#">
   <cc:Work>
    <dc:type rdf:resource="http://purl.org/dc/dcmitype/StillImage"/>
    <dc:date>2026-07-10T09:28:03.016671</dc:date>
    <dc:format>image/svg+xml</dc:format>
    <dc:creator>
     <cc:Agent>
      <dc:title>Matplotlib v3.11.0, https://matplotlib.org/</dc:title>
     </cc:Agent>
    </dc:creator>
   </cc:Work>
  </rdf:RDF>
 </metadata>
 <defs>
  <style type="text/css">*{stroke-linejoin: round; stroke-linecap: butt}</style>
 </defs>
 <g id="figure_1">
  <g id="patch_1">
   <path d="M 0 421.631625
L 751.32 421.631625
L 751.32 0
L 0 0
z
" style="fill: #ffffff"/>
  </g>
  <g id="axes_1">
   <g id="patch_2">
    <path d="M 102.42 367.86975
L 744.12 367.86975
L 744.12 24.14175
L 102.42 24.14175
z
" style="fill: #ffffff"/>
   </g>
   <g id="matplotlib.axis_1">
    <g id="xtick_1">
     <g id="line2d_1">
      <path d="M 131.588182 367.86975
L 131.588182 24.14175
" clip-path="url(#p0d9be2febd)" style="fill: none; stroke: #d7dee8; stroke-width: 0.7; stroke-linecap: square"/>
     </g>
     <g id="line2d_2">
      <defs>
       <path id="m8dec791e9a" d="M 0 0
L 0 3.5
" style="stroke: #64748b; stroke-width: 0.8"/>
      </defs>
      <g>
       <use xlink:href="#m8dec791e9a" x="131.588182" y="367.86975" style="fill: #64748b; stroke: #64748b; stroke-width: 0.8"/>
      </g>
     </g>
     <g id="text_1">
      <!-- 0.0 -->
      <g style="fill: #64748b" transform="translate(122.046307 383.986938) scale(0.12 -0.12)">
       <defs>
        <path id="DejaVuSans-13" d="M 2034 4250
Q 1547 4250 1301 3770
Q 1056 3291 1056 2328
Q 1056 1369 1301 889
Q 1547 409 2034 409
Q 2525 409 2770 889
Q 3016 1369 3016 2328
Q 3016 3291 2770 3770
Q 2525 4250 2034 4250
z
M 2034 4750
Q 2819 4750 3233 4129
Q 3647 3509 3647 2328
Q 3647 1150 3233 529
Q 2819 -91 2034 -91
Q 1250 -91 836 529
Q 422 1150 422 2328
Q 422 3509 836 4129
Q 1250 4750 2034 4750
z
" transform="scale(0.015625)"/>
        <path id="DejaVuSans-11" d="M 684 794
L 1344 794
L 1344 0
L 684 0
L 684 794
z
" transform="scale(0.015625)"/>
       </defs>
       <use xlink:href="#DejaVuSans-13"/>
       <use xlink:href="#DejaVuSans-11" transform="translate(63.625 0)"/>
       <use xlink:href="#DejaVuSans-13" transform="translate(95.40625 0)"/>
      </g>
     </g>
    </g>
    <g id="xtick_2">
     <g id="line2d_3">
      <path d="M 220.706665 367.86975
L 220.706665 24.14175
" clip-path="url(#p0d9be2febd)" style="fill: none; stroke: #d7dee8; stroke-width: 0.7; stroke-linecap: square"/>
     </g>
     <g id="line2d_4">
      <g>
       <use xlink:href="#m8dec791e9a" x="220.706665" y="367.86975" style="fill: #64748b; stroke: #64748b; stroke-width: 0.8"/>
      </g>
     </g>
     <g id="text_2">
      <!-- 2.5 -->
      <g style="fill: #64748b" transform="translate(211.16479 383.986938) scale(0.12 -0.12)">
       <defs>
        <path id="DejaVuSans-15" d="M 1228 531
L 3431 531
L 3431 0
L 469 0
L 469 531
Q 828 903 1448 1529
Q 2069 2156 2228 2338
Q 2531 2678 2651 2914
Q 2772 3150 2772 3378
Q 2772 3750 2511 3984
Q 2250 4219 1831 4219
Q 1534 4219 1204 4116
Q 875 4013 500 3803
L 500 4441
Q 881 4594 1212 4672
Q 1544 4750 1819 4750
Q 2544 4750 2975 4387
Q 3406 4025 3406 3419
Q 3406 3131 3298 2873
Q 3191 2616 2906 2266
Q 2828 2175 2409 1742
Q 1991 1309 1228 531
z
" transform="scale(0.015625)"/>
        <path id="DejaVuSans-18" d="M 691 4666
L 3169 4666
L 3169 4134
L 1269 4134
L 1269 2991
Q 1406 3038 1543 3061
Q 1681 3084 1819 3084
Q 2600 3084 3056 2656
Q 3513 2228 3513 1497
Q 3513 744 3044 326
Q 2575 -91 1722 -91
Q 1428 -91 1123 -41
Q 819 9 494 109
L 494 744
Q 775 591 1075 516
Q 1375 441 1709 441
Q 2250 441 2565 725
Q 2881 1009 2881 1497
Q 2881 1984 2565 2268
Q 2250 2553 1709 2553
Q 1456 2553 1204 2497
Q 953 2441 691 2322
L 691 4666
z
" transform="scale(0.015625)"/>
       </defs>
       <use xlink:href="#DejaVuSans-15"/>
       <use xlink:href="#DejaVuSans-11" transform="translate(63.625 0)"/>
       <use xlink:href="#DejaVuSans-18" transform="translate(95.40625 0)"/>
      </g>
     </g>
    </g>
    <g id="xtick_3">
     <g id="line2d_5">
      <path d="M 309.825148 367.86975
L 309.825148 24.14175
" clip-path="url(#p0d9be2febd)" style="fill: none; stroke: #d7dee8; stroke-width: 0.7; stroke-linecap: square"/>
     </g>
     <g id="line2d_6">
      <g>
       <use xlink:href="#m8dec791e9a" x="309.825148" y="367.86975" style="fill: #64748b; stroke: #64748b; stroke-width: 0.8"/>
      </g>
     </g>
     <g id="text_3">
      <!-- 5.0 -->
      <g style="fill: #64748b" transform="translate(300.283273 383.986938) scale(0.12 -0.12)">
       <use xlink:href="#DejaVuSans-18"/>
       <use xlink:href="#DejaVuSans-11" transform="translate(63.625 0)"/>
       <use xlink:href="#DejaVuSans-13" transform="translate(95.40625 0)"/>
      </g>
     </g>
    </g>
    <g id="xtick_4">
     <g id="line2d_7">
      <path d="M 398.943631 367.86975
L 398.943631 24.14175
" clip-path="url(#p0d9be2febd)" style="fill: none; stroke: #d7dee8; stroke-width: 0.7; stroke-linecap: square"/>
     </g>
     <g id="line2d_8">
      <g>
       <use xlink:href="#m8dec791e9a" x="398.943631" y="367.86975" style="fill: #64748b; stroke: #64748b; stroke-width: 0.8"/>
      </g>
     </g>
     <g id="text_4">
      <!-- 7.5 -->
      <g style="fill: #64748b" transform="translate(389.401756 383.986938) scale(0.12 -0.12)">
       <defs>
        <path id="DejaVuSans-1a" d="M 525 4666
L 3525 4666
L 3525 4397
L 1831 0
L 1172 0
L 2766 4134
L 525 4134
L 525 4666
z
" transform="scale(0.015625)"/>
       </defs>
       <use xlink:href="#DejaVuSans-1a"/>
       <use xlink:href="#DejaVuSans-11" transform="translate(63.625 0)"/>
       <use xlink:href="#DejaVuSans-18" transform="translate(95.40625 0)"/>
      </g>
     </g>
    </g>
    <g id="xtick_5">
     <g id="line2d_9">
      <path d="M 488.062114 367.86975
L 488.062114 24.14175
" clip-path="url(#p0d9be2febd)" style="fill: none; stroke: #d7dee8; stroke-width: 0.7; stroke-linecap: square"/>
     </g>
     <g id="line2d_10">
      <g>
       <use xlink:href="#m8dec791e9a" x="488.062114" y="367.86975" style="fill: #64748b; stroke: #64748b; stroke-width: 0.8"/>
      </g>
     </g>
     <g id="text_5">
      <!-- 10.0 -->
      <g style="fill: #64748b" transform="translate(474.702739 383.986938) scale(0.12 -0.12)">
       <defs>
        <path id="DejaVuSans-14" d="M 794 531
L 1825 531
L 1825 4091
L 703 3866
L 703 4441
L 1819 4666
L 2450 4666
L 2450 531
L 3481 531
L 3481 0
L 794 0
L 794 531
z
" transform="scale(0.015625)"/>
       </defs>
       <use xlink:href="#DejaVuSans-14"/>
       <use xlink:href="#DejaVuSans-13" transform="translate(63.625 0)"/>
       <use xlink:href="#DejaVuSans-11" transform="translate(127.25 0)"/>
       <use xlink:href="#DejaVuSans-13" transform="translate(159.03125 0)"/>
      </g>
     </g>
    </g>
    <g id="xtick_6">
     <g id="line2d_11">
      <path d="M 577.180597 367.86975
L 577.180597 24.14175
" clip-path="url(#p0d9be2febd)" style="fill: none; stroke: #d7dee8; stroke-width: 0.7; stroke-linecap: square"/>
     </g>
     <g id="line2d_12">
      <g>
       <use xlink:href="#m8dec791e9a" x="577.180597" y="367.86975" style="fill: #64748b; stroke: #64748b; stroke-width: 0.8"/>
      </g>
     </g>
     <g id="text_6">
      <!-- 12.5 -->
      <g style="fill: #64748b" transform="translate(563.821222 383.986938) scale(0.12 -0.12)">
       <use xlink:href="#DejaVuSans-14"/>
       <use xlink:href="#DejaVuSans-15" transform="translate(63.625 0)"/>
       <use xlink:href="#DejaVuSans-11" transform="translate(127.25 0)"/>
       <use xlink:href="#DejaVuSans-18" transform="translate(159.03125 0)"/>
      </g>
     </g>
    </g>
    <g id="xtick_7">
     <g id="line2d_13">
      <path d="M 666.29908 367.86975
L 666.29908 24.14175
" clip-path="url(#p0d9be2febd)" style="fill: none; stroke: #d7dee8; stroke-width: 0.7; stroke-linecap: square"/>
     </g>
     <g id="line2d_14">
      <g>
       <use xlink:href="#m8dec791e9a" x="666.29908" y="367.86975" style="fill: #64748b; stroke: #64748b; stroke-width: 0.8"/>
      </g>
     </g>
     <g id="text_7">
      <!-- 15.0 -->
      <g style="fill: #64748b" transform="translate(652.939705 383.986938) scale(0.12 -0.12)">
       <use xlink:href="#DejaVuSans-14"/>
       <use xlink:href="#DejaVuSans-18" transform="translate(63.625 0)"/>
       <use xlink:href="#DejaVuSans-11" transform="translate(127.25 0)"/>
       <use xlink:href="#DejaVuSans-13" transform="translate(159.03125 0)"/>
      </g>
     </g>
    </g>
    <g id="text_8">
     <!-- Valor del campo precio_reportado (unidad no documentada en el archivo fuente) -->
     <g style="fill: #172033" transform="translate(180.19125 399.987875) scale(0.12 -0.12)">
      <defs>
       <path id="DejaVuSans-39" d="M 1831 0
L 50 4666
L 709 4666
L 2188 738
L 3669 4666
L 4325 4666
L 2547 0
L 1831 0
z
" transform="scale(0.015625)"/>
       <path id="DejaVuSans-44" d="M 2194 1759
Q 1497 1759 1228 1600
Q 959 1441 959 1056
Q 959 750 1161 570
Q 1363 391 1709 391
Q 2188 391 2477 730
Q 2766 1069 2766 1631
L 2766 1759
L 2194 1759
z
M 3341 1997
L 3341 0
L 2766 0
L 2766 531
Q 2569 213 2275 61
Q 1981 -91 1556 -91
Q 1019 -91 701 211
Q 384 513 384 1019
Q 384 1609 779 1909
Q 1175 2209 1959 2209
L 2766 2209
L 2766 2266
Q 2766 2663 2505 2880
Q 2244 3097 1772 3097
Q 1472 3097 1187 3025
Q 903 2953 641 2809
L 641 3341
Q 956 3463 1253 3523
Q 1550 3584 1831 3584
Q 2591 3584 2966 3190
Q 3341 2797 3341 1997
z
" transform="scale(0.015625)"/>
       <path id="DejaVuSans-4f" d="M 603 4863
L 1178 4863
L 1178 0
L 603 0
L 603 4863
z
" transform="scale(0.015625)"/>
       <path id="DejaVuSans-52" d="M 1959 3097
Q 1497 3097 1228 2736
Q 959 2375 959 1747
Q 959 1119 1226 758
Q 1494 397 1959 397
Q 2419 397 2687 759
Q 2956 1122 2956 1747
Q 2956 2369 2687 2733
Q 2419 3097 1959 3097
z
M 1959 3584
Q 2709 3584 3137 3096
Q 3566 2609 3566 1747
Q 3566 888 3137 398
Q 2709 -91 1959 -91
Q 1206 -91 779 398
Q 353 888 353 1747
Q 353 2609 779 3096
Q 1206 3584 1959 3584
z
" transform="scale(0.015625)"/>
       <path id="DejaVuSans-55" d="M 2631 2963
Q 2534 3019 2420 3045
Q 2306 3072 2169 3072
Q 1681 3072 1420 2755
Q 1159 2438 1159 1844
L 1159 0
L 581 0
L 581 3500
L 1159 3500
L 1159 2956
Q 1341 3275 1631 3429
Q 1922 3584 2338 3584
Q 2397 3584 2469 3576
Q 2541 3569 2628 3553
L 2631 2963
z
" transform="scale(0.015625)"/>
       <path id="DejaVuSans-3" transform="scale(0.015625)"/>
       <path id="DejaVuSans-47" d="M 2906 2969
L 2906 4863
L 3481 4863
L 3481 0
L 2906 0
L 2906 525
Q 2725 213 2448 61
Q 2172 -91 1784 -91
Q 1150 -91 751 415
Q 353 922 353 1747
Q 353 2572 751 3078
Q 1150 3584 1784 3584
Q 2172 3584 2448 3432
Q 2725 3281 2906 2969
z
M 947 1747
Q 947 1113 1208 752
Q 1469 391 1925 391
Q 2381 391 2643 752
Q 2906 1113 2906 1747
Q 2906 2381 2643 2742
Q 2381 3103 1925 3103
Q 1469 3103 1208 2742
Q 947 2381 947 1747
z
" transform="scale(0.015625)"/>
       <path id="DejaVuSans-48" d="M 3597 1894
L 3597 1613
L 953 1613
Q 991 1019 1311 708
Q 1631 397 2203 397
Q 2534 397 2845 478
Q 3156 559 3463 722
L 3463 178
Q 3153 47 2828 -22
Q 2503 -91 2169 -91
Q 1331 -91 842 396
Q 353 884 353 1716
Q 353 2575 817 3079
Q 1281 3584 2069 3584
Q 2775 3584 3186 3129
Q 3597 2675 3597 1894
z
M 3022 2063
Q 3016 2534 2758 2815
Q 2500 3097 2075 3097
Q 1594 3097 1305 2825
Q 1016 2553 972 2059
L 3022 2063
z
" transform="scale(0.015625)"/>
       <path id="DejaVuSans-46" d="M 3122 3366
L 3122 2828
Q 2878 2963 2633 3030
Q 2388 3097 2138 3097
Q 1578 3097 1268 2742
Q 959 2388 959 1747
Q 959 1106 1268 751
Q 1578 397 2138 397
Q 2388 397 2633 464
Q 2878 531 3122 666
L 3122 134
Q 2881 22 2623 -34
Q 2366 -91 2075 -91
Q 1284 -91 818 406
Q 353 903 353 1747
Q 353 2603 823 3093
Q 1294 3584 2113 3584
Q 2378 3584 2631 3529
Q 2884 3475 3122 3366
z
" transform="scale(0.015625)"/>
       <path id="DejaVuSans-50" d="M 3328 2828
Q 3544 3216 3844 3400
Q 4144 3584 4550 3584
Q 5097 3584 5394 3201
Q 5691 2819 5691 2113
L 5691 0
L 5113 0
L 5113 2094
Q 5113 2597 4934 2840
Q 4756 3084 4391 3084
Q 3944 3084 3684 2787
Q 3425 2491 3425 1978
L 3425 0
L 2847 0
L 2847 2094
Q 2847 2600 2669 2842
Q 2491 3084 2119 3084
Q 1678 3084 1418 2786
Q 1159 2488 1159 1978
L 1159 0
L 581 0
L 581 3500
L 1159 3500
L 1159 2956
Q 1356 3278 1631 3431
Q 1906 3584 2284 3584
Q 2666 3584 2933 3390
Q 3200 3197 3328 2828
z
" transform="scale(0.015625)"/>
       <path id="DejaVuSans-53" d="M 1159 525
L 1159 -1331
L 581 -1331
L 581 3500
L 1159 3500
L 1159 2969
Q 1341 3281 1617 3432
Q 1894 3584 2278 3584
Q 2916 3584 3314 3078
Q 3713 2572 3713 1747
Q 3713 922 3314 415
Q 2916 -91 2278 -91
Q 1894 -91 1617 61
Q 1341 213 1159 525
z
M 3116 1747
Q 3116 2381 2855 2742
Q 2594 3103 2138 3103
Q 1681 3103 1420 2742
Q 1159 2381 1159 1747
Q 1159 1113 1420 752
Q 1681 391 2138 391
Q 2594 391 2855 752
Q 3116 1113 3116 1747
z
" transform="scale(0.015625)"/>
       <path id="DejaVuSans-4c" d="M 603 3500
L 1178 3500
L 1178 0
L 603 0
L 603 3500
z
M 603 4863
L 1178 4863
L 1178 4134
L 603 4134
L 603 4863
z
" transform="scale(0.015625)"/>
       <path id="DejaVuSans-42" d="M 3263 -1063
L 3263 -1509
L -63 -1509
L -63 -1063
L 3263 -1063
z
" transform="scale(0.015625)"/>
       <path id="DejaVuSans-57" d="M 1172 4494
L 1172 3500
L 2356 3500
L 2356 3053
L 1172 3053
L 1172 1153
Q 1172 725 1289 603
Q 1406 481 1766 481
L 2356 481
L 2356 0
L 1766 0
Q 1100 0 847 248
Q 594 497 594 1153
L 594 3053
L 172 3053
L 172 3500
L 594 3500
L 594 4494
L 1172 4494
z
" transform="scale(0.015625)"/>
       <path id="DejaVuSans-b" d="M 1984 4856
Q 1566 4138 1362 3434
Q 1159 2731 1159 2009
Q 1159 1288 1364 580
Q 1569 -128 1984 -844
L 1484 -844
Q 1016 -109 783 600
Q 550 1309 550 2009
Q 550 2706 781 3412
Q 1013 4119 1484 4856
L 1984 4856
z
" transform="scale(0.015625)"/>
       <path id="DejaVuSans-58" d="M 544 1381
L 544 3500
L 1119 3500
L 1119 1403
Q 1119 906 1312 657
Q 1506 409 1894 409
Q 2359 409 2629 706
Q 2900 1003 2900 1516
L 2900 3500
L 3475 3500
L 3475 0
L 2900 0
L 2900 538
Q 2691 219 2414 64
Q 2138 -91 1772 -91
Q 1169 -91 856 284
Q 544 659 544 1381
z
M 1991 3584
L 1991 3584
z
" transform="scale(0.015625)"/>
       <path id="DejaVuSans-51" d="M 3513 2113
L 3513 0
L 2938 0
L 2938 2094
Q 2938 2591 2744 2837
Q 2550 3084 2163 3084
Q 1697 3084 1428 2787
Q 1159 2491 1159 1978
L 1159 0
L 581 0
L 581 3500
L 1159 3500
L 1159 2956
Q 1366 3272 1645 3428
Q 1925 3584 2291 3584
Q 2894 3584 3203 3211
Q 3513 2838 3513 2113
z
" transform="scale(0.015625)"/>
       <path id="DejaVuSans-4b" d="M 3513 2113
L 3513 0
L 2938 0
L 2938 2094
Q 2938 2591 2744 2837
Q 2550 3084 2163 3084
Q 1697 3084 1428 2787
Q 1159 2491 1159 1978
L 1159 0
L 581 0
L 581 4863
L 1159 4863
L 1159 2956
Q 1366 3272 1645 3428
Q 1925 3584 2291 3584
Q 2894 3584 3203 3211
Q 3513 2838 3513 2113
z
" transform="scale(0.015625)"/>
       <path id="DejaVuSans-59" d="M 191 3500
L 800 3500
L 1894 563
L 2988 3500
L 3597 3500
L 2284 0
L 1503 0
L 191 3500
z
" transform="scale(0.015625)"/>
       <path id="DejaVuSans-49" d="M 2375 4863
L 2375 4384
L 1825 4384
Q 1516 4384 1395 4259
Q 1275 4134 1275 3809
L 1275 3500
L 2222 3500
L 2222 3053
L 1275 3053
L 1275 0
L 697 0
L 697 3053
L 147 3053
L 147 3500
L 697 3500
L 697 3744
Q 697 4328 969 4595
Q 1241 4863 1831 4863
L 2375 4863
z
" transform="scale(0.015625)"/>
       <path id="DejaVuSans-c" d="M 513 4856
L 1013 4856
Q 1481 4119 1714 3412
Q 1947 2706 1947 2009
Q 1947 1309 1714 600
Q 1481 -109 1013 -844
L 513 -844
Q 928 -128 1133 580
Q 1338 1288 1338 2009
Q 1338 2731 1133 3434
Q 928 4138 513 4856
z
" transform="scale(0.015625)"/>
      </defs>
      <use xlink:href="#DejaVuSans-39"/>
      <use xlink:href="#DejaVuSans-44" transform="translate(60.640625 0)"/>
      <use xlink:href="#DejaVuSans-4f" transform="translate(121.921875 0)"/>
      <use xlink:href="#DejaVuSans-52" transform="translate(149.703125 0)"/>
      <use xlink:href="#DejaVuSans-55" transform="translate(210.890625 0)"/>
      <use xlink:href="#DejaVuSans-3" transform="translate(252 0)"/>
      <use xlink:href="#DejaVuSans-47" transform="translate(283.78125 0)"/>
      <use xlink:href="#DejaVuSans-48" transform="translate(347.265625 0)"/>
      <use xlink:href="#DejaVuSans-4f" transform="translate(408.796875 0)"/>
      <use xlink:href="#DejaVuSans-3" transform="translate(436.578125 0)"/>
      <use xlink:href="#DejaVuSans-46" transform="translate(468.359375 0)"/>
      <use xlink:href="#DejaVuSans-44" transform="translate(523.34375 0)"/>
      <use xlink:href="#DejaVuSans-50" transform="translate(584.625 0)"/>
      <use xlink:href="#DejaVuSans-53" transform="translate(682.03125 0)"/>
      <use xlink:href="#DejaVuSans-52" transform="translate(745.515625 0)"/>
      <use xlink:href="#DejaVuSans-3" transform="translate(806.703125 0)"/>
      <use xlink:href="#DejaVuSans-53" transform="translate(838.484375 0)"/>
      <use xlink:href="#DejaVuSans-55" transform="translate(901.96875 0)"/>
      <use xlink:href="#DejaVuSans-48" transform="translate(940.875 0)"/>
      <use xlink:href="#DejaVuSans-46" transform="translate(1002.40625 0)"/>
      <use xlink:href="#DejaVuSans-4c" transform="translate(1057.390625 0)"/>
      <use xlink:href="#DejaVuSans-52" transform="translate(1085.171875 0)"/>
      <use xlink:href="#DejaVuSans-42" transform="translate(1146.359375 0)"/>
      <use xlink:href="#DejaVuSans-55" transform="translate(1196.359375 0)"/>
      <use xlink:href="#DejaVuSans-48" transform="translate(1235.265625 0)"/>
      <use xlink:href="#DejaVuSans-53" transform="translate(1296.796875 0)"/>
      <use xlink:href="#DejaVuSans-52" transform="translate(1360.28125 0)"/>
      <use xlink:href="#DejaVuSans-55" transform="translate(1421.46875 0)"/>
      <use xlink:href="#DejaVuSans-57" transform="translate(1462.578125 0)"/>
      <use xlink:href="#DejaVuSans-44" transform="translate(1501.78125 0)"/>
      <use xlink:href="#DejaVuSans-47" transform="translate(1563.0625 0)"/>
      <use xlink:href="#DejaVuSans-52" transform="translate(1626.546875 0)"/>
      <use xlink:href="#DejaVuSans-3" transform="translate(1687.734375 0)"/>
      <use xlink:href="#DejaVuSans-b" transform="translate(1719.515625 0)"/>
      <use xlink:href="#DejaVuSans-58" transform="translate(1758.53125 0)"/>
      <use xlink:href="#DejaVuSans-51" transform="translate(1821.90625 0)"/>
      <use xlink:href="#DejaVuSans-4c" transform="translate(1885.28125 0)"/>
      <use xlink:href="#DejaVuSans-47" transform="translate(1913.0625 0)"/>
      <use xlink:href="#DejaVuSans-44" transform="translate(1976.546875 0)"/>
      <use xlink:href="#DejaVuSans-47" transform="translate(2037.828125 0)"/>
      <use xlink:href="#DejaVuSans-3" transform="translate(2101.3125 0)"/>
      <use xlink:href="#DejaVuSans-51" transform="translate(2133.09375 0)"/>
      <use xlink:href="#DejaVuSans-52" transform="translate(2196.46875 0)"/>
      <use xlink:href="#DejaVuSans-3" transform="translate(2257.65625 0)"/>
      <use xlink:href="#DejaVuSans-47" transform="translate(2289.4375 0)"/>
      <use xlink:href="#DejaVuSans-52" transform="translate(2352.921875 0)"/>
      <use xlink:href="#DejaVuSans-46" transform="translate(2414.109375 0)"/>
      <use xlink:href="#DejaVuSans-58" transform="translate(2469.09375 0)"/>
      <use xlink:href="#DejaVuSans-50" transform="translate(2532.46875 0)"/>
      <use xlink:href="#DejaVuSans-48" transform="translate(2629.875 0)"/>
      <use xlink:href="#DejaVuSans-51" transform="translate(2691.40625 0)"/>
      <use xlink:href="#DejaVuSans-57" transform="translate(2754.78125 0)"/>
      <use xlink:href="#DejaVuSans-44" transform="translate(2793.984375 0)"/>
      <use xlink:href="#DejaVuSans-47" transform="translate(2855.265625 0)"/>
      <use xlink:href="#DejaVuSans-44" transform="translate(2918.75 0)"/>
      <use xlink:href="#DejaVuSans-3" transform="translate(2980.03125 0)"/>
      <use xlink:href="#DejaVuSans-48" transform="translate(3011.8125 0)"/>
      <use xlink:href="#DejaVuSans-51" transform="translate(3073.34375 0)"/>
      <use xlink:href="#DejaVuSans-3" transform="translate(3136.71875 0)"/>
      <use xlink:href="#DejaVuSans-48" transform="translate(3168.5 0)"/>
      <use xlink:href="#DejaVuSans-4f" transform="translate(3230.03125 0)"/>
      <use xlink:href="#DejaVuSans-3" transform="translate(3257.8125 0)"/>
      <use xlink:href="#DejaVuSans-44" transform="translate(3289.59375 0)"/>
      <use xlink:href="#DejaVuSans-55" transform="translate(3350.875 0)"/>
      <use xlink:href="#DejaVuSans-46" transform="translate(3389.78125 0)"/>
      <use xlink:href="#DejaVuSans-4b" transform="translate(3444.765625 0)"/>
      <use xlink:href="#DejaVuSans-4c" transform="translate(3508.140625 0)"/>
      <use xlink:href="#DejaVuSans-59" transform="translate(3535.921875 0)"/>
      <use xlink:href="#DejaVuSans-52" transform="translate(3595.109375 0)"/>
      <use xlink:href="#DejaVuSans-3" transform="translate(3656.296875 0)"/>
      <use xlink:href="#DejaVuSans-49" transform="translate(3688.078125 0)"/>
      <use xlink:href="#DejaVuSans-58" transform="translate(3723.28125 0)"/>
      <use xlink:href="#DejaVuSans-48" transform="translate(3786.65625 0)"/>
      <use xlink:href="#DejaVuSans-51" transform="translate(3848.1875 0)"/>
      <use xlink:href="#DejaVuSans-57" transform="translate(3911.5625 0)"/>
      <use xlink:href="#DejaVuSans-48" transform="translate(3950.765625 0)"/>
      <use xlink:href="#DejaVuSans-c" transform="translate(4012.296875 0)"/>
     </g>
    </g>
   </g>
   <g id="matplotlib.axis_2">
    <g id="ytick_1">
     <g id="line2d_15">
      <defs>
       <path id="me6a3c8aafc" d="M 0 0
L -3.5 0
" style="stroke: #64748b; stroke-width: 0.8"/>
      </defs>
      <g>
       <use xlink:href="#me6a3c8aafc" x="102.42" y="352.24575" style="fill: #64748b; stroke: #64748b; stroke-width: 0.8"/>
      </g>
     </g>
     <g id="text_9">
      <!-- Ciudad Verde -->
      <g style="fill: #64748b" transform="translate(37.342063 355.55107) scale(0.087 -0.087)">
       <defs>
        <path id="DejaVuSans-26" d="M 4122 4306
L 4122 3641
Q 3803 3938 3442 4084
Q 3081 4231 2675 4231
Q 1875 4231 1450 3742
Q 1025 3253 1025 2328
Q 1025 1406 1450 917
Q 1875 428 2675 428
Q 3081 428 3442 575
Q 3803 722 4122 1019
L 4122 359
Q 3791 134 3420 21
Q 3050 -91 2638 -91
Q 1578 -91 968 557
Q 359 1206 359 2328
Q 359 3453 968 4101
Q 1578 4750 2638 4750
Q 3056 4750 3426 4639
Q 3797 4528 4122 4306
z
" transform="scale(0.015625)"/>
       </defs>
       <use xlink:href="#DejaVuSans-26"/>
       <use xlink:href="#DejaVuSans-4c" transform="translate(69.828125 0)"/>
       <use xlink:href="#DejaVuSans-58" transform="translate(97.609375 0)"/>
       <use xlink:href="#DejaVuSans-47" transform="translate(160.984375 0)"/>
       <use xlink:href="#DejaVuSans-44" transform="translate(224.46875 0)"/>
       <use xlink:href="#DejaVuSans-47" transform="translate(285.75 0)"/>
       <use xlink:href="#DejaVuSans-3" transform="translate(349.234375 0)"/>
       <use xlink:href="#DejaVuSans-39" transform="translate(381.015625 0)"/>
       <use xlink:href="#DejaVuSans-48" transform="translate(441.65625 0)"/>
       <use xlink:href="#DejaVuSans-55" transform="translate(503.1875 0)"/>
       <use xlink:href="#DejaVuSans-47" transform="translate(542.546875 0)"/>
       <use xlink:href="#DejaVuSans-48" transform="translate(606.03125 0)"/>
      </g>
     </g>
    </g>
    <g id="ytick_2">
     <g id="line2d_16">
      <g>
       <use xlink:href="#me6a3c8aafc" x="102.42" y="342.16575" style="fill: #64748b; stroke: #64748b; stroke-width: 0.8"/>
      </g>
     </g>
     <g id="text_10">
      <!-- 20 de julio -->
      <g style="fill: #64748b" transform="translate(49.855109 345.47107) scale(0.087 -0.087)">
       <defs>
        <path id="DejaVuSans-4d" d="M 603 3500
L 1178 3500
L 1178 -63
Q 1178 -731 923 -1031
Q 669 -1331 103 -1331
L -116 -1331
L -116 -844
L 38 -844
Q 366 -844 484 -692
Q 603 -541 603 -63
L 603 3500
z
M 603 4863
L 1178 4863
L 1178 4134
L 603 4134
L 603 4863
z
" transform="scale(0.015625)"/>
       </defs>
       <use xlink:href="#DejaVuSans-15"/>
       <use xlink:href="#DejaVuSans-13" transform="translate(63.625 0)"/>
       <use xlink:href="#DejaVuSans-3" transform="translate(127.25 0)"/>
       <use xlink:href="#DejaVuSans-47" transform="translate(159.03125 0)"/>
       <use xlink:href="#DejaVuSans-48" transform="translate(222.515625 0)"/>
       <use xlink:href="#DejaVuSans-3" transform="translate(284.046875 0)"/>
       <use xlink:href="#DejaVuSans-4d" transform="translate(315.828125 0)"/>
       <use xlink:href="#DejaVuSans-58" transform="translate(343.609375 0)"/>
       <use xlink:href="#DejaVuSans-4f" transform="translate(406.984375 0)"/>
       <use xlink:href="#DejaVuSans-4c" transform="translate(434.765625 0)"/>
       <use xlink:href="#DejaVuSans-52" transform="translate(462.546875 0)"/>
      </g>
     </g>
    </g>
    <g id="ytick_3">
     <g id="line2d_17">
      <g>
       <use xlink:href="#me6a3c8aafc" x="102.42" y="332.08575" style="fill: #64748b; stroke: #64748b; stroke-width: 0.8"/>
      </g>
     </g>
     <g id="text_11">
      <!-- Tunjuelito -->
      <g style="fill: #64748b" transform="translate(53.548531 335.39107) scale(0.087 -0.087)">
       <defs>
        <path id="DejaVuSans-37" d="M -19 4666
L 3928 4666
L 3928 4134
L 2272 4134
L 2272 0
L 1638 0
L 1638 4134
L -19 4134
L -19 4666
z
" transform="scale(0.015625)"/>
       </defs>
       <use xlink:href="#DejaVuSans-37"/>
       <use xlink:href="#DejaVuSans-58" transform="translate(45.890625 0)"/>
       <use xlink:href="#DejaVuSans-51" transform="translate(109.265625 0)"/>
       <use xlink:href="#DejaVuSans-4d" transform="translate(172.640625 0)"/>
       <use xlink:href="#DejaVuSans-58" transform="translate(200.421875 0)"/>
       <use xlink:href="#DejaVuSans-48" transform="translate(263.796875 0)"/>
       <use xlink:href="#DejaVuSans-4f" transform="translate(325.328125 0)"/>
       <use xlink:href="#DejaVuSans-4c" transform="translate(353.109375 0)"/>
       <use xlink:href="#DejaVuSans-57" transform="translate(380.890625 0)"/>
       <use xlink:href="#DejaVuSans-52" transform="translate(420.09375 0)"/>
      </g>
     </g>
    </g>
    <g id="ytick_4">
     <g id="line2d_18">
      <g>
       <use xlink:href="#me6a3c8aafc" x="102.42" y="322.00575" style="fill: #64748b; stroke: #64748b; stroke-width: 0.8"/>
      </g>
     </g>
     <g id="text_12">
      <!-- Fontibón -->
      <g style="fill: #64748b" transform="translate(57.701422 325.48507) scale(0.087 -0.087)">
       <defs>
        <path id="DejaVuSans-29" d="M 628 4666
L 3309 4666
L 3309 4134
L 1259 4134
L 1259 2759
L 3109 2759
L 3109 2228
L 1259 2228
L 1259 0
L 628 0
L 628 4666
z
" transform="scale(0.015625)"/>
        <path id="DejaVuSans-45" d="M 3116 1747
Q 3116 2381 2855 2742
Q 2594 3103 2138 3103
Q 1681 3103 1420 2742
Q 1159 2381 1159 1747
Q 1159 1113 1420 752
Q 1681 391 2138 391
Q 2594 391 2855 752
Q 3116 1113 3116 1747
z
M 1159 2969
Q 1341 3281 1617 3432
Q 1894 3584 2278 3584
Q 2916 3584 3314 3078
Q 3713 2572 3713 1747
Q 3713 922 3314 415
Q 2916 -91 2278 -91
Q 1894 -91 1617 61
Q 1341 213 1159 525
L 1159 0
L 581 0
L 581 4863
L 1159 4863
L 1159 2969
z
" transform="scale(0.015625)"/>
        <path id="DejaVuSans-b5" d="M 1959 3097
Q 1497 3097 1228 2736
Q 959 2375 959 1747
Q 959 1119 1226 758
Q 1494 397 1959 397
Q 2419 397 2687 759
Q 2956 1122 2956 1747
Q 2956 2369 2687 2733
Q 2419 3097 1959 3097
z
M 1959 3584
Q 2709 3584 3137 3096
Q 3566 2609 3566 1747
Q 3566 888 3137 398
Q 2709 -91 1959 -91
Q 1206 -91 779 398
Q 353 888 353 1747
Q 353 2609 779 3096
Q 1206 3584 1959 3584
z
M 2393 5119
L 3015 5119
L 1997 3944
L 1518 3944
L 2393 5119
z
" transform="scale(0.015625)"/>
       </defs>
       <use xlink:href="#DejaVuSans-29"/>
       <use xlink:href="#DejaVuSans-52" transform="translate(53.953125 0)"/>
       <use xlink:href="#DejaVuSans-51" transform="translate(115.140625 0)"/>
       <use xlink:href="#DejaVuSans-57" transform="translate(178.515625 0)"/>
       <use xlink:href="#DejaVuSans-4c" transform="translate(217.71875 0)"/>
       <use xlink:href="#DejaVuSans-45" transform="translate(245.5 0)"/>
       <use xlink:href="#DejaVuSans-b5" transform="translate(308.984375 0)"/>
       <use xlink:href="#DejaVuSans-51" transform="translate(370.171875 0)"/>
      </g>
     </g>
    </g>
    <g id="ytick_5">
     <g id="line2d_19">
      <g>
       <use xlink:href="#me6a3c8aafc" x="102.42" y="311.92575" style="fill: #64748b; stroke: #64748b; stroke-width: 0.8"/>
      </g>
     </g>
     <g id="text_13">
      <!-- Central ab. -->
      <g style="fill: #64748b" transform="translate(47.357938 315.23107) scale(0.087 -0.087)">
       <use xlink:href="#DejaVuSans-26"/>
       <use xlink:href="#DejaVuSans-48" transform="translate(69.828125 0)"/>
       <use xlink:href="#DejaVuSans-51" transform="translate(131.359375 0)"/>
       <use xlink:href="#DejaVuSans-57" transform="translate(194.734375 0)"/>
       <use xlink:href="#DejaVuSans-55" transform="translate(233.9375 0)"/>
       <use xlink:href="#DejaVuSans-44" transform="translate(275.046875 0)"/>
       <use xlink:href="#DejaVuSans-4f" transform="translate(336.328125 0)"/>
       <use xlink:href="#DejaVuSans-3" transform="translate(364.109375 0)"/>
       <use xlink:href="#DejaVuSans-44" transform="translate(395.890625 0)"/>
       <use xlink:href="#DejaVuSans-45" transform="translate(457.171875 0)"/>
       <use xlink:href="#DejaVuSans-11" transform="translate(520.65625 0)"/>
      </g>
     </g>
    </g>
    <g id="ytick_6">
     <g id="line2d_20">
      <g>
       <use xlink:href="#me6a3c8aafc" x="102.42" y="301.84575" style="fill: #64748b; stroke: #64748b; stroke-width: 0.8"/>
      </g>
     </g>
     <g id="text_14">
      <!-- Auto Sur -->
      <g style="fill: #64748b" transform="translate(57.842797 305.15073) scale(0.087 -0.087)">
       <defs>
        <path id="DejaVuSans-24" d="M 2188 4044
L 1331 1722
L 3047 1722
L 2188 4044
z
M 1831 4666
L 2547 4666
L 4325 0
L 3669 0
L 3244 1197
L 1141 1197
L 716 0
L 50 0
L 1831 4666
z
" transform="scale(0.015625)"/>
        <path id="DejaVuSans-36" d="M 3425 4513
L 3425 3897
Q 3066 4069 2747 4153
Q 2428 4238 2131 4238
Q 1616 4238 1336 4038
Q 1056 3838 1056 3469
Q 1056 3159 1242 3001
Q 1428 2844 1947 2747
L 2328 2669
Q 3034 2534 3370 2195
Q 3706 1856 3706 1288
Q 3706 609 3251 259
Q 2797 -91 1919 -91
Q 1588 -91 1214 -16
Q 841 59 441 206
L 441 856
Q 825 641 1194 531
Q 1563 422 1919 422
Q 2459 422 2753 634
Q 3047 847 3047 1241
Q 3047 1584 2836 1778
Q 2625 1972 2144 2069
L 1759 2144
Q 1053 2284 737 2584
Q 422 2884 422 3419
Q 422 4038 858 4394
Q 1294 4750 2059 4750
Q 2388 4750 2728 4690
Q 3069 4631 3425 4513
z
" transform="scale(0.015625)"/>
       </defs>
       <use xlink:href="#DejaVuSans-24"/>
       <use xlink:href="#DejaVuSans-58" transform="translate(68.40625 0)"/>
       <use xlink:href="#DejaVuSans-57" transform="translate(131.78125 0)"/>
       <use xlink:href="#DejaVuSans-52" transform="translate(170.984375 0)"/>
       <use xlink:href="#DejaVuSans-3" transform="translate(232.171875 0)"/>
       <use xlink:href="#DejaVuSans-36" transform="translate(263.953125 0)"/>
       <use xlink:href="#DejaVuSans-58" transform="translate(327.4375 0)"/>
       <use xlink:href="#DejaVuSans-55" transform="translate(390.8125 0)"/>
      </g>
     </g>
    </g>
    <g id="ytick_7">
     <g id="line2d_21">
      <g>
       <use xlink:href="#me6a3c8aafc" x="102.42" y="291.76575" style="fill: #64748b; stroke: #64748b; stroke-width: 0.8"/>
      </g>
     </g>
     <g id="text_15">
      <!-- Tibabuyes -->
      <g style="fill: #64748b" transform="translate(51.030969 295.07107) scale(0.087 -0.087)">
       <defs>
        <path id="DejaVuSans-5c" d="M 2059 -325
Q 1816 -950 1584 -1140
Q 1353 -1331 966 -1331
L 506 -1331
L 506 -850
L 844 -850
Q 1081 -850 1212 -737
Q 1344 -625 1503 -206
L 1606 56
L 191 3500
L 800 3500
L 1894 763
L 2988 3500
L 3597 3500
L 2059 -325
z
" transform="scale(0.015625)"/>
        <path id="DejaVuSans-56" d="M 2834 3397
L 2834 2853
Q 2591 2978 2328 3040
Q 2066 3103 1784 3103
Q 1356 3103 1142 2972
Q 928 2841 928 2578
Q 928 2378 1081 2264
Q 1234 2150 1697 2047
L 1894 2003
Q 2506 1872 2764 1633
Q 3022 1394 3022 966
Q 3022 478 2636 193
Q 2250 -91 1575 -91
Q 1294 -91 989 -36
Q 684 19 347 128
L 347 722
Q 666 556 975 473
Q 1284 391 1588 391
Q 1994 391 2212 530
Q 2431 669 2431 922
Q 2431 1156 2273 1281
Q 2116 1406 1581 1522
L 1381 1569
Q 847 1681 609 1914
Q 372 2147 372 2553
Q 372 3047 722 3315
Q 1072 3584 1716 3584
Q 2034 3584 2315 3537
Q 2597 3491 2834 3397
z
" transform="scale(0.015625)"/>
       </defs>
       <use xlink:href="#DejaVuSans-37"/>
       <use xlink:href="#DejaVuSans-4c" transform="translate(58 0)"/>
       <use xlink:href="#DejaVuSans-45" transform="translate(85.78125 0)"/>
       <use xlink:href="#DejaVuSans-44" transform="translate(149.265625 0)"/>
       <use xlink:href="#DejaVuSans-45" transform="translate(210.546875 0)"/>
       <use xlink:href="#DejaVuSans-58" transform="translate(274.03125 0)"/>
       <use xlink:href="#DejaVuSans-5c" transform="translate(337.40625 0)"/>
       <use xlink:href="#DejaVuSans-48" transform="translate(396.59375 0)"/>
       <use xlink:href="#DejaVuSans-56" transform="translate(458.125 0)"/>
      </g>
     </g>
    </g>
    <g id="ytick_8">
     <g id="line2d_22">
      <g>
       <use xlink:href="#me6a3c8aafc" x="102.42" y="281.68575" style="fill: #64748b; stroke: #64748b; stroke-width: 0.8"/>
      </g>
     </g>
     <g id="text_16">
      <!-- Prim. Mayo -->
      <g style="fill: #64748b" transform="translate(47.018094 284.99107) scale(0.087 -0.087)">
       <defs>
        <path id="DejaVuSans-33" d="M 1259 4147
L 1259 2394
L 2053 2394
Q 2494 2394 2734 2622
Q 2975 2850 2975 3272
Q 2975 3691 2734 3919
Q 2494 4147 2053 4147
L 1259 4147
z
M 628 4666
L 2053 4666
Q 2838 4666 3239 4311
Q 3641 3956 3641 3272
Q 3641 2581 3239 2228
Q 2838 1875 2053 1875
L 1259 1875
L 1259 0
L 628 0
L 628 4666
z
" transform="scale(0.015625)"/>
        <path id="DejaVuSans-30" d="M 628 4666
L 1569 4666
L 2759 1491
L 3956 4666
L 4897 4666
L 4897 0
L 4281 0
L 4281 4097
L 3078 897
L 2444 897
L 1241 4097
L 1241 0
L 628 0
L 628 4666
z
" transform="scale(0.015625)"/>
       </defs>
       <use xlink:href="#DejaVuSans-33"/>
       <use xlink:href="#DejaVuSans-55" transform="translate(58.546875 0)"/>
       <use xlink:href="#DejaVuSans-4c" transform="translate(99.65625 0)"/>
       <use xlink:href="#DejaVuSans-50" transform="translate(127.4375 0)"/>
       <use xlink:href="#DejaVuSans-11" transform="translate(224.84375 0)"/>
       <use xlink:href="#DejaVuSans-3" transform="translate(256.625 0)"/>
       <use xlink:href="#DejaVuSans-30" transform="translate(288.40625 0)"/>
       <use xlink:href="#DejaVuSans-44" transform="translate(374.6875 0)"/>
       <use xlink:href="#DejaVuSans-5c" transform="translate(435.96875 0)"/>
       <use xlink:href="#DejaVuSans-52" transform="translate(495.15625 0)"/>
      </g>
     </g>
    </g>
    <g id="ytick_9">
     <g id="line2d_23">
      <g>
       <use xlink:href="#me6a3c8aafc" x="102.42" y="271.60575" style="fill: #64748b; stroke: #64748b; stroke-width: 0.8"/>
      </g>
     </g>
     <g id="text_17">
      <!-- Kennedy -->
      <g style="fill: #64748b" transform="translate(57.742203 274.91107) scale(0.087 -0.087)">
       <defs>
        <path id="DejaVuSans-2e" d="M 628 4666
L 1259 4666
L 1259 2694
L 3353 4666
L 4166 4666
L 1850 2491
L 4331 0
L 3500 0
L 1259 2247
L 1259 0
L 628 0
L 628 4666
z
" transform="scale(0.015625)"/>
       </defs>
       <use xlink:href="#DejaVuSans-2e"/>
       <use xlink:href="#DejaVuSans-48" transform="translate(60.59375 0)"/>
       <use xlink:href="#DejaVuSans-51" transform="translate(122.125 0)"/>
       <use xlink:href="#DejaVuSans-51" transform="translate(185.5 0)"/>
       <use xlink:href="#DejaVuSans-48" transform="translate(248.875 0)"/>
       <use xlink:href="#DejaVuSans-47" transform="translate(310.40625 0)"/>
       <use xlink:href="#DejaVuSans-5c" transform="translate(373.890625 0)"/>
      </g>
     </g>
    </g>
    <g id="ytick_10">
     <g id="line2d_24">
      <g>
       <use xlink:href="#me6a3c8aafc" x="102.42" y="261.52575" style="fill: #64748b; stroke: #64748b; stroke-width: 0.8"/>
      </g>
     </g>
     <g id="text_18">
      <!-- Bochica -->
      <g style="fill: #64748b" transform="translate(61.298328 264.83107) scale(0.087 -0.087)">
       <defs>
        <path id="DejaVuSans-25" d="M 1259 2228
L 1259 519
L 2272 519
Q 2781 519 3026 730
Q 3272 941 3272 1375
Q 3272 1813 3026 2020
Q 2781 2228 2272 2228
L 1259 2228
z
M 1259 4147
L 1259 2741
L 2194 2741
Q 2656 2741 2882 2914
Q 3109 3088 3109 3444
Q 3109 3797 2882 3972
Q 2656 4147 2194 4147
L 1259 4147
z
M 628 4666
L 2241 4666
Q 2963 4666 3353 4366
Q 3744 4066 3744 3513
Q 3744 3084 3544 2831
Q 3344 2578 2956 2516
Q 3422 2416 3680 2098
Q 3938 1781 3938 1306
Q 3938 681 3513 340
Q 3088 0 2303 0
L 628 0
L 628 4666
z
" transform="scale(0.015625)"/>
       </defs>
       <use xlink:href="#DejaVuSans-25"/>
       <use xlink:href="#DejaVuSans-52" transform="translate(68.609375 0)"/>
       <use xlink:href="#DejaVuSans-46" transform="translate(129.796875 0)"/>
       <use xlink:href="#DejaVuSans-4b" transform="translate(184.78125 0)"/>
       <use xlink:href="#DejaVuSans-4c" transform="translate(248.15625 0)"/>
       <use xlink:href="#DejaVuSans-46" transform="translate(275.9375 0)"/>
       <use xlink:href="#DejaVuSans-44" transform="translate(330.921875 0)"/>
      </g>
     </g>
    </g>
    <g id="ytick_11">
     <g id="line2d_25">
      <g>
       <use xlink:href="#me6a3c8aafc" x="102.42" y="251.44575" style="fill: #64748b; stroke: #64748b; stroke-width: 0.8"/>
      </g>
     </g>
     <g id="text_19">
      <!-- Américas -->
      <g style="fill: #64748b" transform="translate(55.000344 254.92507) scale(0.087 -0.087)">
       <defs>
        <path id="DejaVuSans-ab" d="M 3597 1894
L 3597 1613
L 953 1613
Q 991 1019 1311 708
Q 1631 397 2203 397
Q 2534 397 2845 478
Q 3156 559 3463 722
L 3463 178
Q 3153 47 2828 -22
Q 2503 -91 2169 -91
Q 1331 -91 842 396
Q 353 884 353 1716
Q 353 2575 817 3079
Q 1281 3584 2069 3584
Q 2775 3584 3186 3129
Q 3597 2675 3597 1894
z
M 3022 2063
Q 3016 2534 2758 2815
Q 2500 3097 2075 3097
Q 1594 3097 1305 2825
Q 1016 2553 972 2059
L 3022 2063
z
M 2468 5119
L 3090 5119
L 2072 3944
L 1593 3944
L 2468 5119
z
" transform="scale(0.015625)"/>
       </defs>
       <use xlink:href="#DejaVuSans-24"/>
       <use xlink:href="#DejaVuSans-50" transform="translate(68.40625 0)"/>
       <use xlink:href="#DejaVuSans-ab" transform="translate(165.8125 0)"/>
       <use xlink:href="#DejaVuSans-55" transform="translate(227.34375 0)"/>
       <use xlink:href="#DejaVuSans-4c" transform="translate(268.453125 0)"/>
       <use xlink:href="#DejaVuSans-46" transform="translate(296.234375 0)"/>
       <use xlink:href="#DejaVuSans-44" transform="translate(351.21875 0)"/>
       <use xlink:href="#DejaVuSans-56" transform="translate(412.5 0)"/>
      </g>
     </g>
    </g>
    <g id="ytick_12">
     <g id="line2d_26">
      <g>
       <use xlink:href="#me6a3c8aafc" x="102.42" y="241.36575" style="fill: #64748b; stroke: #64748b; stroke-width: 0.8"/>
      </g>
     </g>
     <g id="text_20">
      <!-- Campiña -->
      <g style="fill: #64748b" transform="translate(56.753938 244.745156) scale(0.087 -0.087)">
       <defs>
        <path id="DejaVuSans-b3" d="M 3513 2113
L 3513 0
L 2938 0
L 2938 2094
Q 2938 2591 2744 2837
Q 2550 3084 2163 3084
Q 1697 3084 1428 2787
Q 1159 2491 1159 1978
L 1159 0
L 581 0
L 581 3500
L 1159 3500
L 1159 2956
Q 1366 3272 1645 3428
Q 1925 3584 2291 3584
Q 2894 3584 3203 3211
Q 3513 2838 3513 2113
z
M 2063 4281
L 1884 4453
Q 1816 4516 1764 4545
Q 1713 4575 1672 4575
Q 1553 4575 1497 4461
Q 1441 4347 1434 4091
L 1044 4091
Q 1050 4513 1209 4742
Q 1369 4972 1653 4972
Q 1772 4972 1872 4928
Q 1972 4884 2088 4781
L 2266 4609
Q 2334 4547 2386 4517
Q 2438 4488 2478 4488
Q 2597 4488 2653 4602
Q 2709 4716 2716 4972
L 3106 4972
Q 3100 4550 2940 4320
Q 2781 4091 2497 4091
Q 2378 4091 2278 4134
Q 2178 4178 2063 4281
z
" transform="scale(0.015625)"/>
       </defs>
       <use xlink:href="#DejaVuSans-26"/>
       <use xlink:href="#DejaVuSans-44" transform="translate(69.828125 0)"/>
       <use xlink:href="#DejaVuSans-50" transform="translate(131.109375 0)"/>
       <use xlink:href="#DejaVuSans-53" transform="translate(228.515625 0)"/>
       <use xlink:href="#DejaVuSans-4c" transform="translate(292 0)"/>
       <use xlink:href="#DejaVuSans-b3" transform="translate(319.78125 0)"/>
       <use xlink:href="#DejaVuSans-44" transform="translate(383.15625 0)"/>
      </g>
     </g>
    </g>
    <g id="ytick_13">
     <g id="line2d_27">
      <g>
       <use xlink:href="#me6a3c8aafc" x="102.42" y="231.28575" style="fill: #64748b; stroke: #64748b; stroke-width: 0.8"/>
      </g>
     </g>
     <g id="text_21">
      <!-- C/marca -->
      <g style="fill: #64748b" transform="translate(59.108375 234.59073) scale(0.087 -0.087)">
       <defs>
        <path id="DejaVuSans-12" d="M 1625 4666
L 2156 4666
L 531 -594
L 0 -594
L 1625 4666
z
" transform="scale(0.015625)"/>
       </defs>
       <use xlink:href="#DejaVuSans-26"/>
       <use xlink:href="#DejaVuSans-12" transform="translate(69.828125 0)"/>
       <use xlink:href="#DejaVuSans-50" transform="translate(103.515625 0)"/>
       <use xlink:href="#DejaVuSans-44" transform="translate(200.921875 0)"/>
       <use xlink:href="#DejaVuSans-55" transform="translate(262.203125 0)"/>
       <use xlink:href="#DejaVuSans-46" transform="translate(301.109375 0)"/>
       <use xlink:href="#DejaVuSans-44" transform="translate(356.09375 0)"/>
      </g>
     </g>
    </g>
    <g id="ytick_14">
     <g id="line2d_28">
      <g>
       <use xlink:href="#me6a3c8aafc" x="102.42" y="221.20575" style="fill: #64748b; stroke: #64748b; stroke-width: 0.8"/>
      </g>
     </g>
     <g id="text_22">
      <!-- Maranta -->
      <g style="fill: #64748b" transform="translate(59.418313 224.51073) scale(0.087 -0.087)">
       <use xlink:href="#DejaVuSans-30"/>
       <use xlink:href="#DejaVuSans-44" transform="translate(86.28125 0)"/>
       <use xlink:href="#DejaVuSans-55" transform="translate(147.5625 0)"/>
       <use xlink:href="#DejaVuSans-44" transform="translate(188.671875 0)"/>
       <use xlink:href="#DejaVuSans-51" transform="translate(249.953125 0)"/>
       <use xlink:href="#DejaVuSans-57" transform="translate(313.328125 0)"/>
       <use xlink:href="#DejaVuSans-44" transform="translate(352.53125 0)"/>
      </g>
     </g>
    </g>
    <g id="ytick_15">
     <g id="line2d_29">
      <g>
       <use xlink:href="#me6a3c8aafc" x="102.42" y="211.12575" style="fill: #64748b; stroke: #64748b; stroke-width: 0.8"/>
      </g>
     </g>
     <g id="text_23">
      <!-- Min. Dios -->
      <g style="fill: #64748b" transform="translate(55.481563 214.43107) scale(0.087 -0.087)">
       <defs>
        <path id="DejaVuSans-27" d="M 1259 4147
L 1259 519
L 2022 519
Q 2988 519 3436 956
Q 3884 1394 3884 2338
Q 3884 3275 3436 3711
Q 2988 4147 2022 4147
L 1259 4147
z
M 628 4666
L 1925 4666
Q 3281 4666 3915 4102
Q 4550 3538 4550 2338
Q 4550 1131 3912 565
Q 3275 0 1925 0
L 628 0
L 628 4666
z
" transform="scale(0.015625)"/>
       </defs>
       <use xlink:href="#DejaVuSans-30"/>
       <use xlink:href="#DejaVuSans-4c" transform="translate(86.28125 0)"/>
       <use xlink:href="#DejaVuSans-51" transform="translate(114.0625 0)"/>
       <use xlink:href="#DejaVuSans-11" transform="translate(177.4375 0)"/>
       <use xlink:href="#DejaVuSans-3" transform="translate(209.21875 0)"/>
       <use xlink:href="#DejaVuSans-27" transform="translate(241 0)"/>
       <use xlink:href="#DejaVuSans-4c" transform="translate(318 0)"/>
       <use xlink:href="#DejaVuSans-52" transform="translate(345.78125 0)"/>
       <use xlink:href="#DejaVuSans-56" transform="translate(406.96875 0)"/>
      </g>
     </g>
    </g>
    <g id="ytick_16">
     <g id="line2d_30">
      <g>
       <use xlink:href="#me6a3c8aafc" x="102.42" y="201.04575" style="fill: #64748b; stroke: #64748b; stroke-width: 0.8"/>
      </g>
     </g>
     <g id="text_24">
      <!-- Modelia -->
      <g style="fill: #64748b" transform="translate(61.548453 204.35107) scale(0.087 -0.087)">
       <use xlink:href="#DejaVuSans-30"/>
       <use xlink:href="#DejaVuSans-52" transform="translate(86.28125 0)"/>
       <use xlink:href="#DejaVuSans-47" transform="translate(147.46875 0)"/>
       <use xlink:href="#DejaVuSans-48" transform="translate(210.953125 0)"/>
       <use xlink:href="#DejaVuSans-4f" transform="translate(272.484375 0)"/>
       <use xlink:href="#DejaVuSans-4c" transform="translate(300.265625 0)"/>
       <use xlink:href="#DejaVuSans-44" transform="translate(328.046875 0)"/>
      </g>
     </g>
    </g>
    <g id="ytick_17">
     <g id="line2d_31">
      <g>
       <use xlink:href="#me6a3c8aafc" x="102.42" y="190.96575" style="fill: #64748b; stroke: #64748b; stroke-width: 0.8"/>
      </g>
     </g>
     <g id="text_25">
      <!-- Atabanza -->
      <g style="fill: #64748b" transform="translate(54.612922 194.27107) scale(0.087 -0.087)">
       <defs>
        <path id="DejaVuSans-5d" d="M 353 3500
L 3084 3500
L 3084 2975
L 922 459
L 3084 459
L 3084 0
L 275 0
L 275 525
L 2438 3041
L 353 3041
L 353 3500
z
" transform="scale(0.015625)"/>
       </defs>
       <use xlink:href="#DejaVuSans-24"/>
       <use xlink:href="#DejaVuSans-57" transform="translate(66.65625 0)"/>
       <use xlink:href="#DejaVuSans-44" transform="translate(105.859375 0)"/>
       <use xlink:href="#DejaVuSans-45" transform="translate(167.140625 0)"/>
       <use xlink:href="#DejaVuSans-44" transform="translate(230.625 0)"/>
       <use xlink:href="#DejaVuSans-51" transform="translate(291.90625 0)"/>
       <use xlink:href="#DejaVuSans-5d" transform="translate(355.28125 0)"/>
       <use xlink:href="#DejaVuSans-44" transform="translate(407.765625 0)"/>
      </g>
     </g>
    </g>
    <g id="ytick_18">
     <g id="line2d_32">
      <g>
       <use xlink:href="#me6a3c8aafc" x="102.42" y="180.88575" style="fill: #64748b; stroke: #64748b; stroke-width: 0.8"/>
      </g>
     </g>
     <g id="text_26">
      <!-- Mazuren -->
      <g style="fill: #64748b" transform="translate(58.250609 184.19073) scale(0.087 -0.087)">
       <use xlink:href="#DejaVuSans-30"/>
       <use xlink:href="#DejaVuSans-44" transform="translate(86.28125 0)"/>
       <use xlink:href="#DejaVuSans-5d" transform="translate(147.5625 0)"/>
       <use xlink:href="#DejaVuSans-58" transform="translate(200.046875 0)"/>
       <use xlink:href="#DejaVuSans-55" transform="translate(263.421875 0)"/>
       <use xlink:href="#DejaVuSans-48" transform="translate(302.328125 0)"/>
       <use xlink:href="#DejaVuSans-51" transform="translate(363.859375 0)"/>
      </g>
     </g>
    </g>
    <g id="ytick_19">
     <g id="line2d_33">
      <g>
       <use xlink:href="#me6a3c8aafc" x="102.42" y="170.80575" style="fill: #64748b; stroke: #64748b; stroke-width: 0.8"/>
      </g>
     </g>
     <g id="text_27">
      <!-- Colina camp. -->
      <g style="fill: #64748b" transform="translate(38.700078 174.11107) scale(0.087 -0.087)">
       <use xlink:href="#DejaVuSans-26"/>
       <use xlink:href="#DejaVuSans-52" transform="translate(69.828125 0)"/>
       <use xlink:href="#DejaVuSans-4f" transform="translate(131.015625 0)"/>
       <use xlink:href="#DejaVuSans-4c" transform="translate(158.796875 0)"/>
       <use xlink:href="#DejaVuSans-51" transform="translate(186.578125 0)"/>
       <use xlink:href="#DejaVuSans-44" transform="translate(249.953125 0)"/>
       <use xlink:href="#DejaVuSans-3" transform="translate(311.234375 0)"/>
       <use xlink:href="#DejaVuSans-46" transform="translate(343.015625 0)"/>
       <use xlink:href="#DejaVuSans-44" transform="translate(398 0)"/>
       <use xlink:href="#DejaVuSans-50" transform="translate(459.28125 0)"/>
       <use xlink:href="#DejaVuSans-53" transform="translate(556.6875 0)"/>
       <use xlink:href="#DejaVuSans-11" transform="translate(620.171875 0)"/>
      </g>
     </g>
    </g>
    <g id="ytick_20">
     <g id="line2d_34">
      <g>
       <use xlink:href="#me6a3c8aafc" x="102.42" y="160.72575" style="fill: #64748b; stroke: #64748b; stroke-width: 0.8"/>
      </g>
     </g>
     <g id="text_28">
      <!-- Cedritos -->
      <g style="fill: #64748b" transform="translate(59.208969 164.03107) scale(0.087 -0.087)">
       <use xlink:href="#DejaVuSans-26"/>
       <use xlink:href="#DejaVuSans-48" transform="translate(69.828125 0)"/>
       <use xlink:href="#DejaVuSans-47" transform="translate(131.359375 0)"/>
       <use xlink:href="#DejaVuSans-55" transform="translate(194.84375 0)"/>
       <use xlink:href="#DejaVuSans-4c" transform="translate(235.953125 0)"/>
       <use xlink:href="#DejaVuSans-57" transform="translate(263.734375 0)"/>
       <use xlink:href="#DejaVuSans-52" transform="translate(302.9375 0)"/>
       <use xlink:href="#DejaVuSans-56" transform="translate(364.125 0)"/>
      </g>
     </g>
    </g>
    <g id="ytick_21">
     <g id="line2d_35">
      <g>
       <use xlink:href="#me6a3c8aafc" x="102.42" y="150.64575" style="fill: #64748b; stroke: #64748b; stroke-width: 0.8"/>
      </g>
     </g>
     <g id="text_29">
      <!-- Los Andes -->
      <g style="fill: #64748b" transform="translate(51.230797 153.95107) scale(0.087 -0.087)">
       <defs>
        <path id="DejaVuSans-2f" d="M 628 4666
L 1259 4666
L 1259 531
L 3531 531
L 3531 0
L 628 0
L 628 4666
z
" transform="scale(0.015625)"/>
       </defs>
       <use xlink:href="#DejaVuSans-2f"/>
       <use xlink:href="#DejaVuSans-52" transform="translate(53.96875 0)"/>
       <use xlink:href="#DejaVuSans-56" transform="translate(115.15625 0)"/>
       <use xlink:href="#DejaVuSans-3" transform="translate(167.25 0)"/>
       <use xlink:href="#DejaVuSans-24" transform="translate(199.03125 0)"/>
       <use xlink:href="#DejaVuSans-51" transform="translate(267.4375 0)"/>
       <use xlink:href="#DejaVuSans-47" transform="translate(330.8125 0)"/>
       <use xlink:href="#DejaVuSans-48" transform="translate(394.296875 0)"/>
       <use xlink:href="#DejaVuSans-56" transform="translate(455.828125 0)"/>
      </g>
     </g>
    </g>
    <g id="ytick_22">
     <g id="line2d_36">
      <g>
       <use xlink:href="#me6a3c8aafc" x="102.42" y="140.56575" style="fill: #64748b; stroke: #64748b; stroke-width: 0.8"/>
      </g>
     </g>
     <g id="text_30">
      <!-- Teusaquillo -->
      <g style="fill: #64748b" transform="translate(47.242391 143.87107) scale(0.087 -0.087)">
       <defs>
        <path id="DejaVuSans-54" d="M 947 1747
Q 947 1113 1208 752
Q 1469 391 1925 391
Q 2381 391 2643 752
Q 2906 1113 2906 1747
Q 2906 2381 2643 2742
Q 2381 3103 1925 3103
Q 1469 3103 1208 2742
Q 947 2381 947 1747
z
M 2906 525
Q 2725 213 2448 61
Q 2172 -91 1784 -91
Q 1150 -91 751 415
Q 353 922 353 1747
Q 353 2572 751 3078
Q 1150 3584 1784 3584
Q 2172 3584 2448 3432
Q 2725 3281 2906 2969
L 2906 3500
L 3481 3500
L 3481 -1331
L 2906 -1331
L 2906 525
z
" transform="scale(0.015625)"/>
       </defs>
       <use xlink:href="#DejaVuSans-37"/>
       <use xlink:href="#DejaVuSans-48" transform="translate(44.09375 0)"/>
       <use xlink:href="#DejaVuSans-58" transform="translate(105.625 0)"/>
       <use xlink:href="#DejaVuSans-56" transform="translate(169 0)"/>
       <use xlink:href="#DejaVuSans-44" transform="translate(221.09375 0)"/>
       <use xlink:href="#DejaVuSans-54" transform="translate(282.375 0)"/>
       <use xlink:href="#DejaVuSans-58" transform="translate(345.859375 0)"/>
       <use xlink:href="#DejaVuSans-4c" transform="translate(409.234375 0)"/>
       <use xlink:href="#DejaVuSans-4f" transform="translate(437.015625 0)"/>
       <use xlink:href="#DejaVuSans-4f" transform="translate(464.796875 0)"/>
       <use xlink:href="#DejaVuSans-52" transform="translate(492.578125 0)"/>
      </g>
     </g>
    </g>
    <g id="ytick_23">
     <g id="line2d_37">
      <g>
       <use xlink:href="#me6a3c8aafc" x="102.42" y="130.48575" style="fill: #64748b; stroke: #64748b; stroke-width: 0.8"/>
      </g>
     </g>
     <g id="text_31">
      <!-- Córdoba -->
      <g style="fill: #64748b" transform="translate(58.896313 133.96507) scale(0.087 -0.087)">
       <use xlink:href="#DejaVuSans-26"/>
       <use xlink:href="#DejaVuSans-b5" transform="translate(69.828125 0)"/>
       <use xlink:href="#DejaVuSans-55" transform="translate(131.015625 0)"/>
       <use xlink:href="#DejaVuSans-47" transform="translate(170.375 0)"/>
       <use xlink:href="#DejaVuSans-52" transform="translate(233.859375 0)"/>
       <use xlink:href="#DejaVuSans-45" transform="translate(295.046875 0)"/>
       <use xlink:href="#DejaVuSans-44" transform="translate(358.53125 0)"/>
      </g>
     </g>
    </g>
    <g id="ytick_24">
     <g id="line2d_38">
      <g>
       <use xlink:href="#me6a3c8aafc" x="102.42" y="120.40575" style="fill: #64748b; stroke: #64748b; stroke-width: 0.8"/>
      </g>
     </g>
     <g id="text_32">
      <!-- Chapinero -->
      <g style="fill: #64748b" transform="translate(50.98475 123.71107) scale(0.087 -0.087)">
       <use xlink:href="#DejaVuSans-26"/>
       <use xlink:href="#DejaVuSans-4b" transform="translate(69.828125 0)"/>
       <use xlink:href="#DejaVuSans-44" transform="translate(133.203125 0)"/>
       <use xlink:href="#DejaVuSans-53" transform="translate(194.484375 0)"/>
       <use xlink:href="#DejaVuSans-4c" transform="translate(257.96875 0)"/>
       <use xlink:href="#DejaVuSans-51" transform="translate(285.75 0)"/>
       <use xlink:href="#DejaVuSans-48" transform="translate(349.125 0)"/>
       <use xlink:href="#DejaVuSans-55" transform="translate(410.65625 0)"/>
       <use xlink:href="#DejaVuSans-52" transform="translate(449.5625 0)"/>
      </g>
     </g>
    </g>
    <g id="ytick_25">
     <g id="line2d_39">
      <g>
       <use xlink:href="#me6a3c8aafc" x="102.42" y="110.32575" style="fill: #64748b; stroke: #64748b; stroke-width: 0.8"/>
      </g>
     </g>
     <g id="text_33">
      <!-- Colinas de Suba -->
      <g style="fill: #64748b" transform="translate(25.512781 113.63107) scale(0.087 -0.087)">
       <use xlink:href="#DejaVuSans-26"/>
       <use xlink:href="#DejaVuSans-52" transform="translate(69.828125 0)"/>
       <use xlink:href="#DejaVuSans-4f" transform="translate(131.015625 0)"/>
       <use xlink:href="#DejaVuSans-4c" transform="translate(158.796875 0)"/>
       <use xlink:href="#DejaVuSans-51" transform="translate(186.578125 0)"/>
       <use xlink:href="#DejaVuSans-44" transform="translate(249.953125 0)"/>
       <use xlink:href="#DejaVuSans-56" transform="translate(311.234375 0)"/>
       <use xlink:href="#DejaVuSans-3" transform="translate(363.328125 0)"/>
       <use xlink:href="#DejaVuSans-47" transform="translate(395.109375 0)"/>
       <use xlink:href="#DejaVuSans-48" transform="translate(458.59375 0)"/>
       <use xlink:href="#DejaVuSans-3" transform="translate(520.125 0)"/>
       <use xlink:href="#DejaVuSans-36" transform="translate(551.90625 0)"/>
       <use xlink:href="#DejaVuSans-58" transform="translate(615.390625 0)"/>
       <use xlink:href="#DejaVuSans-45" transform="translate(678.765625 0)"/>
       <use xlink:href="#DejaVuSans-44" transform="translate(742.25 0)"/>
      </g>
     </g>
    </g>
    <g id="ytick_26">
     <g id="line2d_40">
      <g>
       <use xlink:href="#me6a3c8aafc" x="102.42" y="100.24575" style="fill: #64748b; stroke: #64748b; stroke-width: 0.8"/>
      </g>
     </g>
     <g id="text_34">
      <!-- Centro -->
      <g style="fill: #64748b" transform="translate(66.359281 103.55073) scale(0.087 -0.087)">
       <use xlink:href="#DejaVuSans-26"/>
       <use xlink:href="#DejaVuSans-48" transform="translate(69.828125 0)"/>
       <use xlink:href="#DejaVuSans-51" transform="translate(131.359375 0)"/>
       <use xlink:href="#DejaVuSans-57" transform="translate(194.734375 0)"/>
       <use xlink:href="#DejaVuSans-55" transform="translate(233.9375 0)"/>
       <use xlink:href="#DejaVuSans-52" transform="translate(272.84375 0)"/>
      </g>
     </g>
    </g>
    <g id="ytick_27">
     <g id="line2d_41">
      <g>
       <use xlink:href="#me6a3c8aafc" x="102.42" y="90.16575" style="fill: #64748b; stroke: #64748b; stroke-width: 0.8"/>
      </g>
     </g>
     <g id="text_35">
      <!-- Pablo VI -->
      <g style="fill: #64748b" transform="translate(60.686609 93.47107) scale(0.087 -0.087)">
       <defs>
        <path id="DejaVuSans-2c" d="M 628 4666
L 1259 4666
L 1259 0
L 628 0
L 628 4666
z
" transform="scale(0.015625)"/>
       </defs>
       <use xlink:href="#DejaVuSans-33"/>
       <use xlink:href="#DejaVuSans-44" transform="translate(55.8125 0)"/>
       <use xlink:href="#DejaVuSans-45" transform="translate(117.09375 0)"/>
       <use xlink:href="#DejaVuSans-4f" transform="translate(180.578125 0)"/>
       <use xlink:href="#DejaVuSans-52" transform="translate(208.359375 0)"/>
       <use xlink:href="#DejaVuSans-3" transform="translate(269.546875 0)"/>
       <use xlink:href="#DejaVuSans-39" transform="translate(301.328125 0)"/>
       <use xlink:href="#DejaVuSans-2c" transform="translate(369.734375 0)"/>
      </g>
     </g>
    </g>
    <g id="ytick_28">
     <g id="line2d_42">
      <g>
       <use xlink:href="#me6a3c8aafc" x="102.42" y="80.08575" style="fill: #64748b; stroke: #64748b; stroke-width: 0.8"/>
      </g>
     </g>
     <g id="text_36">
      <!-- La Carolina -->
      <g style="fill: #64748b" transform="translate(46.682328 83.39107) scale(0.087 -0.087)">
       <use xlink:href="#DejaVuSans-2f"/>
       <use xlink:href="#DejaVuSans-44" transform="translate(55.71875 0)"/>
       <use xlink:href="#DejaVuSans-3" transform="translate(117 0)"/>
       <use xlink:href="#DejaVuSans-26" transform="translate(148.78125 0)"/>
       <use xlink:href="#DejaVuSans-44" transform="translate(218.609375 0)"/>
       <use xlink:href="#DejaVuSans-55" transform="translate(279.890625 0)"/>
       <use xlink:href="#DejaVuSans-52" transform="translate(318.796875 0)"/>
       <use xlink:href="#DejaVuSans-4f" transform="translate(379.984375 0)"/>
       <use xlink:href="#DejaVuSans-4c" transform="translate(407.765625 0)"/>
       <use xlink:href="#DejaVuSans-51" transform="translate(435.546875 0)"/>
       <use xlink:href="#DejaVuSans-44" transform="translate(498.921875 0)"/>
      </g>
     </g>
    </g>
    <g id="ytick_29">
     <g id="line2d_43">
      <g>
       <use xlink:href="#me6a3c8aafc" x="102.42" y="70.00575" style="fill: #64748b; stroke: #64748b; stroke-width: 0.8"/>
      </g>
     </g>
     <g id="text_37">
      <!-- Multicentro -->
      <g style="fill: #64748b" transform="translate(46.385984 73.31107) scale(0.087 -0.087)">
       <use xlink:href="#DejaVuSans-30"/>
       <use xlink:href="#DejaVuSans-58" transform="translate(86.28125 0)"/>
       <use xlink:href="#DejaVuSans-4f" transform="translate(149.65625 0)"/>
       <use xlink:href="#DejaVuSans-57" transform="translate(177.4375 0)"/>
       <use xlink:href="#DejaVuSans-4c" transform="translate(216.640625 0)"/>
       <use xlink:href="#DejaVuSans-46" transform="translate(244.421875 0)"/>
       <use xlink:href="#DejaVuSans-48" transform="translate(299.40625 0)"/>
       <use xlink:href="#DejaVuSans-51" transform="translate(360.9375 0)"/>
       <use xlink:href="#DejaVuSans-57" transform="translate(424.3125 0)"/>
       <use xlink:href="#DejaVuSans-55" transform="translate(463.515625 0)"/>
       <use xlink:href="#DejaVuSans-52" transform="translate(502.421875 0)"/>
      </g>
     </g>
    </g>
    <g id="ytick_30">
     <g id="line2d_44">
      <g>
       <use xlink:href="#me6a3c8aafc" x="102.42" y="59.92575" style="fill: #64748b; stroke: #64748b; stroke-width: 0.8"/>
      </g>
     </g>
     <g id="text_38">
      <!-- Bosque Medina -->
      <g style="fill: #64748b" transform="translate(28.795672 63.23107) scale(0.087 -0.087)">
       <use xlink:href="#DejaVuSans-25"/>
       <use xlink:href="#DejaVuSans-52" transform="translate(68.609375 0)"/>
       <use xlink:href="#DejaVuSans-56" transform="translate(129.796875 0)"/>
       <use xlink:href="#DejaVuSans-54" transform="translate(181.890625 0)"/>
       <use xlink:href="#DejaVuSans-58" transform="translate(245.375 0)"/>
       <use xlink:href="#DejaVuSans-48" transform="translate(308.75 0)"/>
       <use xlink:href="#DejaVuSans-3" transform="translate(370.28125 0)"/>
       <use xlink:href="#DejaVuSans-30" transform="translate(402.0625 0)"/>
       <use xlink:href="#DejaVuSans-48" transform="translate(488.34375 0)"/>
       <use xlink:href="#DejaVuSans-47" transform="translate(549.875 0)"/>
       <use xlink:href="#DejaVuSans-4c" transform="translate(613.359375 0)"/>
       <use xlink:href="#DejaVuSans-51" transform="translate(641.140625 0)"/>
       <use xlink:href="#DejaVuSans-44" transform="translate(704.515625 0)"/>
      </g>
     </g>
    </g>
    <g id="ytick_31">
     <g id="line2d_45">
      <g>
       <use xlink:href="#me6a3c8aafc" x="102.42" y="49.84575" style="fill: #64748b; stroke: #64748b; stroke-width: 0.8"/>
      </g>
     </g>
     <g id="text_39">
      <!-- Chico -->
      <g style="fill: #64748b" transform="translate(71.307406 53.15107) scale(0.087 -0.087)">
       <use xlink:href="#DejaVuSans-26"/>
       <use xlink:href="#DejaVuSans-4b" transform="translate(69.828125 0)"/>
       <use xlink:href="#DejaVuSans-4c" transform="translate(133.203125 0)"/>
       <use xlink:href="#DejaVuSans-46" transform="translate(160.984375 0)"/>
       <use xlink:href="#DejaVuSans-52" transform="translate(215.96875 0)"/>
      </g>
     </g>
    </g>
    <g id="ytick_32">
     <g id="line2d_46">
      <g>
       <use xlink:href="#me6a3c8aafc" x="102.42" y="39.76575" style="fill: #64748b; stroke: #64748b; stroke-width: 0.8"/>
      </g>
     </g>
     <g id="text_40">
      <!-- Rosales -->
      <g style="fill: #64748b" transform="translate(62.275719 43.07107) scale(0.087 -0.087)">
       <defs>
        <path id="DejaVuSans-35" d="M 2841 2188
Q 3044 2119 3236 1894
Q 3428 1669 3622 1275
L 4263 0
L 3584 0
L 2988 1197
Q 2756 1666 2539 1819
Q 2322 1972 1947 1972
L 1259 1972
L 1259 0
L 628 0
L 628 4666
L 2053 4666
Q 2853 4666 3247 4331
Q 3641 3997 3641 3322
Q 3641 2881 3436 2590
Q 3231 2300 2841 2188
z
M 1259 4147
L 1259 2491
L 2053 2491
Q 2509 2491 2742 2702
Q 2975 2913 2975 3322
Q 2975 3731 2742 3939
Q 2509 4147 2053 4147
L 1259 4147
z
" transform="scale(0.015625)"/>
       </defs>
       <use xlink:href="#DejaVuSans-35"/>
       <use xlink:href="#DejaVuSans-52" transform="translate(65 0)"/>
       <use xlink:href="#DejaVuSans-56" transform="translate(126.1875 0)"/>
       <use xlink:href="#DejaVuSans-44" transform="translate(178.28125 0)"/>
       <use xlink:href="#DejaVuSans-4f" transform="translate(239.5625 0)"/>
       <use xlink:href="#DejaVuSans-48" transform="translate(267.34375 0)"/>
       <use xlink:href="#DejaVuSans-56" transform="translate(328.875 0)"/>
      </g>
     </g>
    </g>
   </g>
   <g id="LineCollection_1">
    <path d="M 131.588182 352.24575
L 210.114291 352.24575
" clip-path="url(#p0d9be2febd)" style="fill: none; stroke: #d7dee8"/>
    <path d="M 131.588182 342.16575
L 241.941567 342.16575
" clip-path="url(#p0d9be2febd)" style="fill: none; stroke: #d7dee8"/>
    <path d="M 131.588182 332.08575
L 245.655705 332.08575
" clip-path="url(#p0d9be2febd)" style="fill: none; stroke: #d7dee8"/>
    <path d="M 131.588182 322.00575
L 263.143746 322.00575
" clip-path="url(#p0d9be2febd)" style="fill: none; stroke: #d7dee8"/>
    <path d="M 131.588182 311.92575
L 280.844423 311.92575
" clip-path="url(#p0d9be2febd)" style="fill: none; stroke: #d7dee8"/>
    <path d="M 131.588182 301.84575
L 281.019808 301.84575
" clip-path="url(#p0d9be2febd)" style="fill: none; stroke: #d7dee8"/>
    <path d="M 131.588182 291.76575
L 287.325761 291.76575
" clip-path="url(#p0d9be2febd)" style="fill: none; stroke: #d7dee8"/>
    <path d="M 131.588182 281.68575
L 305.651551 281.68575
" clip-path="url(#p0d9be2febd)" style="fill: none; stroke: #d7dee8"/>
    <path d="M 131.588182 271.60575
L 306.522631 271.60575
" clip-path="url(#p0d9be2febd)" style="fill: none; stroke: #d7dee8"/>
    <path d="M 131.588182 261.52575
L 307.979361 261.52575
" clip-path="url(#p0d9be2febd)" style="fill: none; stroke: #d7dee8"/>
    <path d="M 131.588182 251.44575
L 308.448838 251.44575
" clip-path="url(#p0d9be2febd)" style="fill: none; stroke: #d7dee8"/>
    <path d="M 131.588182 241.36575
L 309.146457 241.36575
" clip-path="url(#p0d9be2febd)" style="fill: none; stroke: #d7dee8"/>
    <path d="M 131.588182 231.28575
L 331.525391 231.28575
" clip-path="url(#p0d9be2febd)" style="fill: none; stroke: #d7dee8"/>
    <path d="M 131.588182 221.20575
L 333.945101 221.20575
" clip-path="url(#p0d9be2febd)" style="fill: none; stroke: #d7dee8"/>
    <path d="M 131.588182 211.12575
L 336.493141 211.12575
" clip-path="url(#p0d9be2febd)" style="fill: none; stroke: #d7dee8"/>
    <path d="M 131.588182 201.04575
L 343.610927 201.04575
" clip-path="url(#p0d9be2febd)" style="fill: none; stroke: #d7dee8"/>
    <path d="M 131.588182 190.96575
L 357.169413 190.96575
" clip-path="url(#p0d9be2febd)" style="fill: none; stroke: #d7dee8"/>
    <path d="M 131.588182 180.88575
L 373.456743 180.88575
" clip-path="url(#p0d9be2febd)" style="fill: none; stroke: #d7dee8"/>
    <path d="M 131.588182 170.80575
L 389.428058 170.80575
" clip-path="url(#p0d9be2febd)" style="fill: none; stroke: #d7dee8"/>
    <path d="M 131.588182 160.72575
L 405.336171 160.72575
" clip-path="url(#p0d9be2febd)" style="fill: none; stroke: #d7dee8"/>
    <path d="M 131.588182 150.64575
L 406.896101 150.64575
" clip-path="url(#p0d9be2febd)" style="fill: none; stroke: #d7dee8"/>
    <path d="M 131.588182 140.56575
L 417.899738 140.56575
" clip-path="url(#p0d9be2febd)" style="fill: none; stroke: #d7dee8"/>
    <path d="M 131.588182 130.48575
L 438.238323 130.48575
" clip-path="url(#p0d9be2febd)" style="fill: none; stroke: #d7dee8"/>
    <path d="M 131.588182 120.40575
L 441.046517 120.40575
" clip-path="url(#p0d9be2febd)" style="fill: none; stroke: #d7dee8"/>
    <path d="M 131.588182 110.32575
L 464.611939 110.32575
" clip-path="url(#p0d9be2febd)" style="fill: none; stroke: #d7dee8"/>
    <path d="M 131.588182 100.24575
L 470.38614 100.24575
" clip-path="url(#p0d9be2febd)" style="fill: none; stroke: #d7dee8"/>
    <path d="M 131.588182 90.16575
L 473.406722 90.16575
" clip-path="url(#p0d9be2febd)" style="fill: none; stroke: #d7dee8"/>
    <path d="M 131.588182 80.08575
L 489.867939 80.08575
" clip-path="url(#p0d9be2febd)" style="fill: none; stroke: #d7dee8"/>
    <path d="M 131.588182 70.00575
L 501.079508 70.00575
" clip-path="url(#p0d9be2febd)" style="fill: none; stroke: #d7dee8"/>
    <path d="M 131.588182 59.92575
L 514.840222 59.92575
" clip-path="url(#p0d9be2febd)" style="fill: none; stroke: #d7dee8"/>
    <path d="M 131.588182 49.84575
L 628.479227 49.84575
" clip-path="url(#p0d9be2febd)" style="fill: none; stroke: #d7dee8"/>
    <path d="M 131.588182 39.76575
L 714.951818 39.76575
" clip-path="url(#p0d9be2febd)" style="fill: none; stroke: #d7dee8"/>
   </g>
   <g id="patch_3">
    <path d="M 102.42 367.86975
L 102.42 24.14175
" style="fill: none; stroke: #d7dee8; stroke-width: 0.8; stroke-linejoin: miter; stroke-linecap: square"/>
   </g>
   <g id="patch_4">
    <path d="M 102.42 367.86975
L 744.12 367.86975
" style="fill: none; stroke: #d7dee8; stroke-width: 0.8; stroke-linejoin: miter; stroke-linecap: square"/>
   </g>
   <g id="PathCollection_1">
    <defs>
     <path id="C0_0_cd9a9d2561" d="M 0 3.605551
C 0.956203 3.605551 1.873372 3.225648 2.54951 2.54951
C 3.225648 1.873372 3.605551 0.956203 3.605551 -0
C 3.605551 -0.956203 3.225648 -1.873372 2.54951 -2.54951
C 1.873372 -3.225648 0.956203 -3.605551 0 -3.605551
C -0.956203 -3.605551 -1.873372 -3.225648 -2.54951 -2.54951
C -3.225648 -1.873372 -3.605551 -0.956203 -3.605551 0
C -3.605551 0.956203 -3.225648 1.873372 -2.54951 2.54951
C -1.873372 3.225648 -0.956203 3.605551 0 3.605551
z
"/>
    </defs>
    <g clip-path="url(#p0d9be2febd)">
     <use xlink:href="#C0_0_cd9a9d2561" x="210.114291" y="352.24575" style="fill: #0f766e; stroke: #0f766e"/>
    </g>
    <g clip-path="url(#p0d9be2febd)">
     <use xlink:href="#C0_0_cd9a9d2561" x="241.941567" y="342.16575" style="fill: #0f766e; stroke: #0f766e"/>
    </g>
    <g clip-path="url(#p0d9be2febd)">
     <use xlink:href="#C0_0_cd9a9d2561" x="245.655705" y="332.08575" style="fill: #0f766e; stroke: #0f766e"/>
    </g>
    <g clip-path="url(#p0d9be2febd)">
     <use xlink:href="#C0_0_cd9a9d2561" x="263.143746" y="322.00575" style="fill: #0f766e; stroke: #0f766e"/>
    </g>
    <g clip-path="url(#p0d9be2febd)">
     <use xlink:href="#C0_0_cd9a9d2561" x="280.844423" y="311.92575" style="fill: #0f766e; stroke: #0f766e"/>
    </g>
    <g clip-path="url(#p0d9be2febd)">
     <use xlink:href="#C0_0_cd9a9d2561" x="281.019808" y="301.84575" style="fill: #0f766e; stroke: #0f766e"/>
    </g>
    <g clip-path="url(#p0d9be2febd)">
     <use xlink:href="#C0_0_cd9a9d2561" x="287.325761" y="291.76575" style="fill: #0f766e; stroke: #0f766e"/>
    </g>
    <g clip-path="url(#p0d9be2febd)">
     <use xlink:href="#C0_0_cd9a9d2561" x="305.651551" y="281.68575" style="fill: #0f766e; stroke: #0f766e"/>
    </g>
    <g clip-path="url(#p0d9be2febd)">
     <use xlink:href="#C0_0_cd9a9d2561" x="306.522631" y="271.60575" style="fill: #0f766e; stroke: #0f766e"/>
    </g>
    <g clip-path="url(#p0d9be2febd)">
     <use xlink:href="#C0_0_cd9a9d2561" x="307.979361" y="261.52575" style="fill: #0f766e; stroke: #0f766e"/>
    </g>
    <g clip-path="url(#p0d9be2febd)">
     <use xlink:href="#C0_0_cd9a9d2561" x="308.448838" y="251.44575" style="fill: #0f766e; stroke: #0f766e"/>
    </g>
    <g clip-path="url(#p0d9be2febd)">
     <use xlink:href="#C0_0_cd9a9d2561" x="309.146457" y="241.36575" style="fill: #0f766e; stroke: #0f766e"/>
    </g>
    <g clip-path="url(#p0d9be2febd)">
     <use xlink:href="#C0_0_cd9a9d2561" x="331.525391" y="231.28575" style="fill: #0f766e; stroke: #0f766e"/>
    </g>
    <g clip-path="url(#p0d9be2febd)">
     <use xlink:href="#C0_0_cd9a9d2561" x="333.945101" y="221.20575" style="fill: #0f766e; stroke: #0f766e"/>
    </g>
    <g clip-path="url(#p0d9be2febd)">
     <use xlink:href="#C0_0_cd9a9d2561" x="336.493141" y="211.12575" style="fill: #0f766e; stroke: #0f766e"/>
    </g>
    <g clip-path="url(#p0d9be2febd)">
     <use xlink:href="#C0_0_cd9a9d2561" x="343.610927" y="201.04575" style="fill: #0f766e; stroke: #0f766e"/>
    </g>
    <g clip-path="url(#p0d9be2febd)">
     <use xlink:href="#C0_0_cd9a9d2561" x="357.169413" y="190.96575" style="fill: #2563eb; stroke: #2563eb"/>
    </g>
    <g clip-path="url(#p0d9be2febd)">
     <use xlink:href="#C0_0_cd9a9d2561" x="373.456743" y="180.88575" style="fill: #2563eb; stroke: #2563eb"/>
    </g>
    <g clip-path="url(#p0d9be2febd)">
     <use xlink:href="#C0_0_cd9a9d2561" x="389.428058" y="170.80575" style="fill: #2563eb; stroke: #2563eb"/>
    </g>
    <g clip-path="url(#p0d9be2febd)">
     <use xlink:href="#C0_0_cd9a9d2561" x="405.336171" y="160.72575" style="fill: #2563eb; stroke: #2563eb"/>
    </g>
    <g clip-path="url(#p0d9be2febd)">
     <use xlink:href="#C0_0_cd9a9d2561" x="406.896101" y="150.64575" style="fill: #2563eb; stroke: #2563eb"/>
    </g>
    <g clip-path="url(#p0d9be2febd)">
     <use xlink:href="#C0_0_cd9a9d2561" x="417.899738" y="140.56575" style="fill: #2563eb; stroke: #2563eb"/>
    </g>
    <g clip-path="url(#p0d9be2febd)">
     <use xlink:href="#C0_0_cd9a9d2561" x="438.238323" y="130.48575" style="fill: #2563eb; stroke: #2563eb"/>
    </g>
    <g clip-path="url(#p0d9be2febd)">
     <use xlink:href="#C0_0_cd9a9d2561" x="441.046517" y="120.40575" style="fill: #2563eb; stroke: #2563eb"/>
    </g>
    <g clip-path="url(#p0d9be2febd)">
     <use xlink:href="#C0_0_cd9a9d2561" x="464.611939" y="110.32575" style="fill: #2563eb; stroke: #2563eb"/>
    </g>
    <g clip-path="url(#p0d9be2febd)">
     <use xlink:href="#C0_0_cd9a9d2561" x="470.38614" y="100.24575" style="fill: #2563eb; stroke: #2563eb"/>
    </g>
    <g clip-path="url(#p0d9be2febd)">
     <use xlink:href="#C0_0_cd9a9d2561" x="473.406722" y="90.16575" style="fill: #2563eb; stroke: #2563eb"/>
    </g>
    <g clip-path="url(#p0d9be2febd)">
     <use xlink:href="#C0_0_cd9a9d2561" x="489.867939" y="80.08575" style="fill: #2563eb; stroke: #2563eb"/>
    </g>
    <g clip-path="url(#p0d9be2febd)">
     <use xlink:href="#C0_0_cd9a9d2561" x="501.079508" y="70.00575" style="fill: #2563eb; stroke: #2563eb"/>
    </g>
    <g clip-path="url(#p0d9be2febd)">
     <use xlink:href="#C0_0_cd9a9d2561" x="514.840222" y="59.92575" style="fill: #2563eb; stroke: #2563eb"/>
    </g>
    <g clip-path="url(#p0d9be2febd)">
     <use xlink:href="#C0_0_cd9a9d2561" x="628.479227" y="49.84575" style="fill: #2563eb; stroke: #2563eb"/>
    </g>
    <g clip-path="url(#p0d9be2febd)">
     <use xlink:href="#C0_0_cd9a9d2561" x="714.951818" y="39.76575" style="fill: #2563eb; stroke: #2563eb"/>
    </g>
   </g>
   <g id="text_41">
    <!-- 32 subzonas, no 32 viviendas -->
    <g style="fill: #172033" transform="translate(102.42 18.14175) scale(0.144 -0.144)">
     <defs>
      <path id="DejaVuSans-Bold-16" d="M 2981 2516
Q 3453 2394 3698 2092
Q 3944 1791 3944 1325
Q 3944 631 3412 270
Q 2881 -91 1863 -91
Q 1503 -91 1142 -33
Q 781 25 428 141
L 428 1069
Q 766 900 1098 814
Q 1431 728 1753 728
Q 2231 728 2486 893
Q 2741 1059 2741 1369
Q 2741 1688 2480 1852
Q 2219 2016 1709 2016
L 1228 2016
L 1228 2791
L 1734 2791
Q 2188 2791 2409 2933
Q 2631 3075 2631 3366
Q 2631 3634 2415 3781
Q 2200 3928 1806 3928
Q 1516 3928 1219 3862
Q 922 3797 628 3669
L 628 4550
Q 984 4650 1334 4700
Q 1684 4750 2022 4750
Q 2931 4750 3382 4451
Q 3834 4153 3834 3553
Q 3834 3144 3618 2883
Q 3403 2622 2981 2516
z
" transform="scale(0.015625)"/>
      <path id="DejaVuSans-Bold-15" d="M 1844 884
L 3897 884
L 3897 0
L 506 0
L 506 884
L 2209 2388
Q 2438 2594 2547 2791
Q 2656 2988 2656 3200
Q 2656 3528 2436 3728
Q 2216 3928 1850 3928
Q 1569 3928 1234 3808
Q 900 3688 519 3450
L 519 4475
Q 925 4609 1322 4679
Q 1719 4750 2100 4750
Q 2938 4750 3402 4381
Q 3866 4013 3866 3353
Q 3866 2972 3669 2642
Q 3472 2313 2841 1759
L 1844 884
z
" transform="scale(0.015625)"/>
      <path id="DejaVuSans-Bold-3" transform="scale(0.015625)"/>
      <path id="DejaVuSans-Bold-56" d="M 3272 3391
L 3272 2541
Q 2913 2691 2578 2766
Q 2244 2841 1947 2841
Q 1628 2841 1473 2761
Q 1319 2681 1319 2516
Q 1319 2381 1436 2309
Q 1553 2238 1856 2203
L 2053 2175
Q 2913 2066 3209 1816
Q 3506 1566 3506 1031
Q 3506 472 3093 190
Q 2681 -91 1863 -91
Q 1516 -91 1145 -36
Q 775 19 384 128
L 384 978
Q 719 816 1070 734
Q 1422 653 1784 653
Q 2113 653 2278 743
Q 2444 834 2444 1013
Q 2444 1163 2330 1236
Q 2216 1309 1875 1350
L 1678 1375
Q 931 1469 631 1722
Q 331 1975 331 2491
Q 331 3047 712 3315
Q 1094 3584 1881 3584
Q 2191 3584 2531 3537
Q 2872 3491 3272 3391
z
" transform="scale(0.015625)"/>
      <path id="DejaVuSans-Bold-58" d="M 500 1363
L 500 3500
L 1625 3500
L 1625 3150
Q 1625 2866 1622 2436
Q 1619 2006 1619 1863
Q 1619 1441 1641 1255
Q 1663 1069 1716 984
Q 1784 875 1895 815
Q 2006 756 2150 756
Q 2500 756 2700 1025
Q 2900 1294 2900 1772
L 2900 3500
L 4019 3500
L 4019 0
L 2900 0
L 2900 506
Q 2647 200 2364 54
Q 2081 -91 1741 -91
Q 1134 -91 817 281
Q 500 653 500 1363
z
" transform="scale(0.015625)"/>
      <path id="DejaVuSans-Bold-45" d="M 2400 722
Q 2759 722 2948 984
Q 3138 1247 3138 1747
Q 3138 2247 2948 2509
Q 2759 2772 2400 2772
Q 2041 2772 1848 2508
Q 1656 2244 1656 1747
Q 1656 1250 1848 986
Q 2041 722 2400 722
z
M 1656 2988
Q 1888 3294 2169 3439
Q 2450 3584 2816 3584
Q 3463 3584 3878 3070
Q 4294 2556 4294 1747
Q 4294 938 3878 423
Q 3463 -91 2816 -91
Q 2450 -91 2169 54
Q 1888 200 1656 506
L 1656 0
L 538 0
L 538 4863
L 1656 4863
L 1656 2988
z
" transform="scale(0.015625)"/>
      <path id="DejaVuSans-Bold-5d" d="M 366 3500
L 3419 3500
L 3419 2719
L 1575 800
L 3419 800
L 3419 0
L 288 0
L 288 781
L 2131 2700
L 366 2700
L 366 3500
z
" transform="scale(0.015625)"/>
      <path id="DejaVuSans-Bold-52" d="M 2203 2784
Q 1831 2784 1636 2517
Q 1441 2250 1441 1747
Q 1441 1244 1636 976
Q 1831 709 2203 709
Q 2569 709 2762 976
Q 2956 1244 2956 1747
Q 2956 2250 2762 2517
Q 2569 2784 2203 2784
z
M 2203 3584
Q 3106 3584 3614 3096
Q 4122 2609 4122 1747
Q 4122 884 3614 396
Q 3106 -91 2203 -91
Q 1297 -91 786 396
Q 275 884 275 1747
Q 275 2609 786 3096
Q 1297 3584 2203 3584
z
" transform="scale(0.015625)"/>
      <path id="DejaVuSans-Bold-51" d="M 4056 2131
L 4056 0
L 2931 0
L 2931 347
L 2931 1631
Q 2931 2084 2911 2256
Q 2891 2428 2841 2509
Q 2775 2619 2662 2680
Q 2550 2741 2406 2741
Q 2056 2741 1856 2470
Q 1656 2200 1656 1722
L 1656 0
L 538 0
L 538 3500
L 1656 3500
L 1656 2988
Q 1909 3294 2193 3439
Q 2478 3584 2822 3584
Q 3428 3584 3742 3212
Q 4056 2841 4056 2131
z
" transform="scale(0.015625)"/>
      <path id="DejaVuSans-Bold-44" d="M 2106 1575
Q 1756 1575 1579 1456
Q 1403 1338 1403 1106
Q 1403 894 1545 773
Q 1688 653 1941 653
Q 2256 653 2472 879
Q 2688 1106 2688 1447
L 2688 1575
L 2106 1575
z
M 3816 1997
L 3816 0
L 2688 0
L 2688 519
Q 2463 200 2181 54
Q 1900 -91 1497 -91
Q 953 -91 614 226
Q 275 544 275 1050
Q 275 1666 698 1953
Q 1122 2241 2028 2241
L 2688 2241
L 2688 2328
Q 2688 2594 2478 2717
Q 2269 2841 1825 2841
Q 1466 2841 1156 2769
Q 847 2697 581 2553
L 581 3406
Q 941 3494 1303 3539
Q 1666 3584 2028 3584
Q 2975 3584 3395 3211
Q 3816 2838 3816 1997
z
" transform="scale(0.015625)"/>
      <path id="DejaVuSans-Bold-f" d="M 653 1209
L 1778 1209
L 1778 256
L 1006 -909
L 341 -909
L 653 256
L 653 1209
z
" transform="scale(0.015625)"/>
      <path id="DejaVuSans-Bold-59" d="M 97 3500
L 1216 3500
L 2088 1081
L 2956 3500
L 4078 3500
L 2700 0
L 1472 0
L 97 3500
z
" transform="scale(0.015625)"/>
      <path id="DejaVuSans-Bold-4c" d="M 538 3500
L 1656 3500
L 1656 0
L 538 0
L 538 3500
z
M 538 4863
L 1656 4863
L 1656 3950
L 538 3950
L 538 4863
z
" transform="scale(0.015625)"/>
      <path id="DejaVuSans-Bold-48" d="M 4031 1759
L 4031 1441
L 1416 1441
Q 1456 1047 1700 850
Q 1944 653 2381 653
Q 2734 653 3104 758
Q 3475 863 3866 1075
L 3866 213
Q 3469 63 3072 -14
Q 2675 -91 2278 -91
Q 1328 -91 801 392
Q 275 875 275 1747
Q 275 2603 792 3093
Q 1309 3584 2216 3584
Q 3041 3584 3536 3087
Q 4031 2591 4031 1759
z
M 2881 2131
Q 2881 2450 2695 2645
Q 2509 2841 2209 2841
Q 1884 2841 1681 2658
Q 1478 2475 1428 2131
L 2881 2131
z
" transform="scale(0.015625)"/>
      <path id="DejaVuSans-Bold-47" d="M 2919 2988
L 2919 4863
L 4044 4863
L 4044 0
L 2919 0
L 2919 506
Q 2688 197 2409 53
Q 2131 -91 1766 -91
Q 1119 -91 703 423
Q 288 938 288 1747
Q 288 2556 703 3070
Q 1119 3584 1766 3584
Q 2128 3584 2408 3439
Q 2688 3294 2919 2988
z
M 2181 722
Q 2541 722 2730 984
Q 2919 1247 2919 1747
Q 2919 2247 2730 2509
Q 2541 2772 2181 2772
Q 1825 2772 1636 2509
Q 1447 2247 1447 1747
Q 1447 1247 1636 984
Q 1825 722 2181 722
z
" transform="scale(0.015625)"/>
     </defs>
     <use xlink:href="#DejaVuSans-Bold-16"/>
     <use xlink:href="#DejaVuSans-Bold-15" transform="translate(69.578125 0)"/>
     <use xlink:href="#DejaVuSans-Bold-3" transform="translate(139.15625 0)"/>
     <use xlink:href="#DejaVuSans-Bold-56" transform="translate(173.96875 0)"/>
     <use xlink:href="#DejaVuSans-Bold-58" transform="translate(233.484375 0)"/>
     <use xlink:href="#DejaVuSans-Bold-45" transform="translate(304.671875 0)"/>
     <use xlink:href="#DejaVuSans-Bold-5d" transform="translate(376.25 0)"/>
     <use xlink:href="#DejaVuSans-Bold-52" transform="translate(434.453125 0)"/>
     <use xlink:href="#DejaVuSans-Bold-51" transform="translate(503.15625 0)"/>
     <use xlink:href="#DejaVuSans-Bold-44" transform="translate(574.34375 0)"/>
     <use xlink:href="#DejaVuSans-Bold-56" transform="translate(641.828125 0)"/>
     <use xlink:href="#DejaVuSans-Bold-f" transform="translate(701.34375 0)"/>
     <use xlink:href="#DejaVuSans-Bold-3" transform="translate(739.328125 0)"/>
     <use xlink:href="#DejaVuSans-Bold-51" transform="translate(774.140625 0)"/>
     <use xlink:href="#DejaVuSans-Bold-52" transform="translate(845.328125 0)"/>
     <use xlink:href="#DejaVuSans-Bold-3" transform="translate(914.03125 0)"/>
     <use xlink:href="#DejaVuSans-Bold-16" transform="translate(948.84375 0)"/>
     <use xlink:href="#DejaVuSans-Bold-15" transform="translate(1018.421875 0)"/>
     <use xlink:href="#DejaVuSans-Bold-3" transform="translate(1088 0)"/>
     <use xlink:href="#DejaVuSans-Bold-59" transform="translate(1122.8125 0)"/>
     <use xlink:href="#DejaVuSans-Bold-4c" transform="translate(1188 0)"/>
     <use xlink:href="#DejaVuSans-Bold-59" transform="translate(1222.28125 0)"/>
     <use xlink:href="#DejaVuSans-Bold-4c" transform="translate(1287.46875 0)"/>
     <use xlink:href="#DejaVuSans-Bold-48" transform="translate(1321.75 0)"/>
     <use xlink:href="#DejaVuSans-Bold-51" transform="translate(1389.578125 0)"/>
     <use xlink:href="#DejaVuSans-Bold-47" transform="translate(1460.765625 0)"/>
     <use xlink:href="#DejaVuSans-Bold-44" transform="translate(1532.34375 0)"/>
     <use xlink:href="#DejaVuSans-Bold-56" transform="translate(1599.828125 0)"/>
    </g>
   </g>
  </g>
  <g id="text_42">
   <!-- Fuente: Secretaría Distrital del Hábitat de Bogotá. Adaptación MATE-2105. -->
   <g style="fill: #64748b" transform="translate(7.2 412.50975) scale(0.08 -0.08)">
    <defs>
     <path id="DejaVuSans-1d" d="M 750 794
L 1409 794
L 1409 0
L 750 0
L 750 794
z
M 750 3309
L 1409 3309
L 1409 2516
L 750 2516
L 750 3309
z
" transform="scale(0.015625)"/>
     <path id="DejaVuSans-af" d="M 1325 5119
L 1947 5119
L 929 3944
L 450 3944
L 1325 5119
z
M 603 3500
L 1178 3500
L 1178 0
L 603 0
L 603 3500
z
M 891 3584
L 891 3584
z
" transform="scale(0.015625)"/>
     <path id="DejaVuSans-2b" d="M 628 4666
L 1259 4666
L 1259 2753
L 3553 2753
L 3553 4666
L 4184 4666
L 4184 0
L 3553 0
L 3553 2222
L 1259 2222
L 1259 0
L 628 0
L 628 4666
z
" transform="scale(0.015625)"/>
     <path id="DejaVuSans-a3" d="M 2194 1759
Q 1497 1759 1228 1600
Q 959 1441 959 1056
Q 959 750 1161 570
Q 1363 391 1709 391
Q 2188 391 2477 730
Q 2766 1069 2766 1631
L 2766 1759
L 2194 1759
z
M 3341 1997
L 3341 0
L 2766 0
L 2766 531
Q 2569 213 2275 61
Q 1981 -91 1556 -91
Q 1019 -91 701 211
Q 384 513 384 1019
Q 384 1609 779 1909
Q 1175 2209 1959 2209
L 2766 2209
L 2766 2266
Q 2766 2663 2505 2880
Q 2244 3097 1772 3097
Q 1472 3097 1187 3025
Q 903 2953 641 2809
L 641 3341
Q 956 3463 1253 3523
Q 1550 3584 1831 3584
Q 2591 3584 2966 3190
Q 3341 2797 3341 1997
z
M 2290 5119
L 2912 5119
L 1894 3944
L 1415 3944
L 2290 5119
z
" transform="scale(0.015625)"/>
     <path id="DejaVuSans-4a" d="M 2906 1791
Q 2906 2416 2648 2759
Q 2391 3103 1925 3103
Q 1463 3103 1205 2759
Q 947 2416 947 1791
Q 947 1169 1205 825
Q 1463 481 1925 481
Q 2391 481 2648 825
Q 2906 1169 2906 1791
z
M 3481 434
Q 3481 -459 3084 -895
Q 2688 -1331 1869 -1331
Q 1566 -1331 1297 -1286
Q 1028 -1241 775 -1147
L 775 -588
Q 1028 -725 1275 -790
Q 1522 -856 1778 -856
Q 2344 -856 2625 -561
Q 2906 -266 2906 331
L 2906 616
Q 2728 306 2450 153
Q 2172 0 1784 0
Q 1141 0 747 490
Q 353 981 353 1791
Q 353 2603 747 3093
Q 1141 3584 1784 3584
Q 2172 3584 2450 3431
Q 2728 3278 2906 2969
L 2906 3500
L 3481 3500
L 3481 434
z
" transform="scale(0.015625)"/>
     <path id="DejaVuSans-28" d="M 628 4666
L 3578 4666
L 3578 4134
L 1259 4134
L 1259 2753
L 3481 2753
L 3481 2222
L 1259 2222
L 1259 531
L 3634 531
L 3634 0
L 628 0
L 628 4666
z
" transform="scale(0.015625)"/>
     <path id="DejaVuSans-10" d="M 313 2009
L 1997 2009
L 1997 1497
L 313 1497
L 313 2009
z
" transform="scale(0.015625)"/>
    </defs>
    <use xlink:href="#DejaVuSans-29"/>
    <use xlink:href="#DejaVuSans-58" transform="translate(52.046875 0)"/>
    <use xlink:href="#DejaVuSans-48" transform="translate(115.421875 0)"/>
    <use xlink:href="#DejaVuSans-51" transform="translate(176.953125 0)"/>
    <use xlink:href="#DejaVuSans-57" transform="translate(240.328125 0)"/>
    <use xlink:href="#DejaVuSans-48" transform="translate(279.53125 0)"/>
    <use xlink:href="#DejaVuSans-1d" transform="translate(341.0625 0)"/>
    <use xlink:href="#DejaVuSans-3" transform="translate(374.75 0)"/>
    <use xlink:href="#DejaVuSans-36" transform="translate(406.53125 0)"/>
    <use xlink:href="#DejaVuSans-48" transform="translate(470.015625 0)"/>
    <use xlink:href="#DejaVuSans-46" transform="translate(531.546875 0)"/>
    <use xlink:href="#DejaVuSans-55" transform="translate(586.53125 0)"/>
    <use xlink:href="#DejaVuSans-48" transform="translate(625.4375 0)"/>
    <use xlink:href="#DejaVuSans-57" transform="translate(686.96875 0)"/>
    <use xlink:href="#DejaVuSans-44" transform="translate(726.171875 0)"/>
    <use xlink:href="#DejaVuSans-55" transform="translate(787.453125 0)"/>
    <use xlink:href="#DejaVuSans-af" transform="translate(828.5625 0)"/>
    <use xlink:href="#DejaVuSans-44" transform="translate(856.34375 0)"/>
    <use xlink:href="#DejaVuSans-3" transform="translate(917.625 0)"/>
    <use xlink:href="#DejaVuSans-27" transform="translate(949.40625 0)"/>
    <use xlink:href="#DejaVuSans-4c" transform="translate(1026.40625 0)"/>
    <use xlink:href="#DejaVuSans-56" transform="translate(1054.1875 0)"/>
    <use xlink:href="#DejaVuSans-57" transform="translate(1106.28125 0)"/>
    <use xlink:href="#DejaVuSans-55" transform="translate(1145.484375 0)"/>
    <use xlink:href="#DejaVuSans-4c" transform="translate(1186.59375 0)"/>
    <use xlink:href="#DejaVuSans-57" transform="translate(1214.375 0)"/>
    <use xlink:href="#DejaVuSans-44" transform="translate(1253.578125 0)"/>
    <use xlink:href="#DejaVuSans-4f" transform="translate(1314.859375 0)"/>
    <use xlink:href="#DejaVuSans-3" transform="translate(1342.640625 0)"/>
    <use xlink:href="#DejaVuSans-47" transform="translate(1374.421875 0)"/>
    <use xlink:href="#DejaVuSans-48" transform="translate(1437.90625 0)"/>
    <use xlink:href="#DejaVuSans-4f" transform="translate(1499.4375 0)"/>
    <use xlink:href="#DejaVuSans-3" transform="translate(1527.21875 0)"/>
    <use xlink:href="#DejaVuSans-2b" transform="translate(1559 0)"/>
    <use xlink:href="#DejaVuSans-a3" transform="translate(1634.203125 0)"/>
    <use xlink:href="#DejaVuSans-45" transform="translate(1695.484375 0)"/>
    <use xlink:href="#DejaVuSans-4c" transform="translate(1758.96875 0)"/>
    <use xlink:href="#DejaVuSans-57" transform="translate(1786.75 0)"/>
    <use xlink:href="#DejaVuSans-44" transform="translate(1825.953125 0)"/>
    <use xlink:href="#DejaVuSans-57" transform="translate(1887.234375 0)"/>
    <use xlink:href="#DejaVuSans-3" transform="translate(1926.4375 0)"/>
    <use xlink:href="#DejaVuSans-47" transform="translate(1958.21875 0)"/>
    <use xlink:href="#DejaVuSans-48" transform="translate(2021.703125 0)"/>
    <use xlink:href="#DejaVuSans-3" transform="translate(2083.234375 0)"/>
    <use xlink:href="#DejaVuSans-25" transform="translate(2115.015625 0)"/>
    <use xlink:href="#DejaVuSans-52" transform="translate(2183.625 0)"/>
    <use xlink:href="#DejaVuSans-4a" transform="translate(2244.8125 0)"/>
    <use xlink:href="#DejaVuSans-52" transform="translate(2308.296875 0)"/>
    <use xlink:href="#DejaVuSans-57" transform="translate(2369.484375 0)"/>
    <use xlink:href="#DejaVuSans-a3" transform="translate(2408.6875 0)"/>
    <use xlink:href="#DejaVuSans-11" transform="translate(2469.96875 0)"/>
    <use xlink:href="#DejaVuSans-3" transform="translate(2501.75 0)"/>
    <use xlink:href="#DejaVuSans-24" transform="translate(2533.53125 0)"/>
    <use xlink:href="#DejaVuSans-47" transform="translate(2600.1875 0)"/>
    <use xlink:href="#DejaVuSans-44" transform="translate(2663.671875 0)"/>
    <use xlink:href="#DejaVuSans-53" transform="translate(2724.953125 0)"/>
    <use xlink:href="#DejaVuSans-57" transform="translate(2788.4375 0)"/>
    <use xlink:href="#DejaVuSans-44" transform="translate(2827.640625 0)"/>
    <use xlink:href="#DejaVuSans-46" transform="translate(2888.921875 0)"/>
    <use xlink:href="#DejaVuSans-4c" transform="translate(2943.90625 0)"/>
    <use xlink:href="#DejaVuSans-b5" transform="translate(2971.6875 0)"/>
    <use xlink:href="#DejaVuSans-51" transform="translate(3032.875 0)"/>
    <use xlink:href="#DejaVuSans-3" transform="translate(3096.25 0)"/>
    <use xlink:href="#DejaVuSans-30" transform="translate(3128.03125 0)"/>
    <use xlink:href="#DejaVuSans-24" transform="translate(3214.3125 0)"/>
    <use xlink:href="#DejaVuSans-37" transform="translate(3274.953125 0)"/>
    <use xlink:href="#DejaVuSans-28" transform="translate(3336.03125 0)"/>
    <use xlink:href="#DejaVuSans-10" transform="translate(3399.21875 0)"/>
    <use xlink:href="#DejaVuSans-15" transform="translate(3435.296875 0)"/>
    <use xlink:href="#DejaVuSans-14" transform="translate(3498.921875 0)"/>
    <use xlink:href="#DejaVuSans-13" transform="translate(3562.546875 0)"/>
    <use xlink:href="#DejaVuSans-18" transform="translate(3626.171875 0)"/>
    <use xlink:href="#DejaVuSans-11" transform="translate(3689.796875 0)"/>
   </g>
  </g>
 </g>
 <defs>
  <clipPath id="p0d9be2febd">
   <rect x="102.42" y="24.14175" width="641.7" height="343.728"/>
  </clipPath>
 </defs>
</svg>
