<svg xmlns="http://www.w3.org/2000/svg" width="1200" height="720" viewBox="0 0 1200 720" role="img" aria-labelledby="title desc">
  <title id="title">Análisis de errores por slices</title>
  <desc id="desc">Tabla y barras que muestran una métrica global alta pero un slice específico con desempeño bajo, seguido por el flujo resultado, lectura, comprobación y límite.</desc>
  <rect width="1200" height="720" fill="#f8fafc"/>
  <text x="70" y="74" font-family="Arial, sans-serif" font-size="34" font-weight="700" fill="#172033">Error analysis: el promedio no cuenta toda la historia</text>
  <text x="70" y="114" font-family="Arial, sans-serif" font-size="20" fill="#475569">Un modelo con métrica global aceptable puede fallar en un slice que importa para el uso previsto.</text>

  <g transform="translate(85 165)">
    <rect x="0" y="0" width="500" height="410" rx="18" fill="#ffffff" stroke="#cbd5e1" stroke-width="2"/>
    <text x="34" y="48" font-family="Arial, sans-serif" font-size="25" font-weight="700" fill="#172033">F1 por slice</text>
    <line x1="120" y1="335" x2="440" y2="335" stroke="#334155" stroke-width="2"/>
    <line x1="120" y1="90" x2="120" y2="335" stroke="#334155" stroke-width="2"/>
    <rect x="155" y="118" width="45" height="217" fill="#2563eb"/>
    <rect x="235" y="135" width="45" height="200" fill="#2563eb"/>
    <rect x="315" y="230" width="45" height="105" fill="#dc2626"/>
    <text x="146" y="365" font-family="Arial, sans-serif" font-size="16" fill="#334155">fuente A</text>
    <text x="226" y="365" font-family="Arial, sans-serif" font-size="16" fill="#334155">fuente B</text>
    <text x="306" y="365" font-family="Arial, sans-serif" font-size="16" fill="#334155">fuente C</text>
    <text x="152" y="108" font-family="Arial, sans-serif" font-size="17" fill="#172033">0.84</text>
    <text x="232" y="125" font-family="Arial, sans-serif" font-size="17" fill="#172033">0.80</text>
    <text x="312" y="220" font-family="Arial, sans-serif" font-size="17" fill="#7f1d1d">0.57</text>
    <line x1="120" y1="148" x2="440" y2="148" stroke="#f97316" stroke-width="4" stroke-dasharray="10 8"/>
    <text x="365" y="142" font-family="Arial, sans-serif" font-size="16" fill="#9a3412">global 0.81</text>
  </g>

  <g transform="translate(650 178)" font-family="Arial, sans-serif">
    <rect x="0" y="0" width="455" height="80" rx="14" fill="#ffffff" stroke="#cbd5e1"/>
    <text x="26" y="48" font-size="22" font-weight="700" fill="#172033">1. Resultado</text>
    <text x="190" y="48" font-size="18" fill="#475569">slice C cae 0.24 contra global</text>

    <rect x="0" y="105" width="455" height="80" rx="14" fill="#ffffff" stroke="#cbd5e1"/>
    <text x="26" y="153" font-size="22" font-weight="700" fill="#172033">2. Lectura</text>
    <text x="160" y="153" font-size="18" fill="#475569">mismatch o medición distinta</text>

    <rect x="0" y="210" width="455" height="80" rx="14" fill="#ffffff" stroke="#cbd5e1"/>
    <text x="26" y="258" font-size="22" font-weight="700" fill="#172033">3. Comprobación</text>
    <text x="222" y="258" font-size="17" fill="#475569">auditar datos del slice</text>

    <rect x="0" y="315" width="455" height="80" rx="14" fill="#ffffff" stroke="#cbd5e1"/>
    <text x="26" y="363" font-size="22" font-weight="700" fill="#172033">4. Límite</text>
    <text x="144" y="363" font-size="18" fill="#475569">no extrapolar el promedio al slice</text>
  </g>
</svg>
