<svg xmlns="http://www.w3.org/2000/svg" width="1200" height="430" viewBox="0 0 1200 430" role="img" aria-labelledby="title desc">
  <title id="title">De una pregunta a un soporte verificable</title>
  <desc id="desc">Flujo que conecta una pregunta técnica, una respuesta precisa, un soporte verificable y un límite declarado.</desc>
  <rect width="1200" height="430" fill="#f8fafc"/>
  <text x="70" y="74" font-family="Arial, sans-serif" font-size="34" font-weight="700" fill="#172033">De una pregunta a un soporte verificable</text>
  <text x="70" y="114" font-family="Arial, sans-serif" font-size="20" fill="#475569">Una explicación precisa conecta la afirmación con su respaldo y declara su alcance.</text>

  <g transform="translate(110 175)" font-family="Arial, sans-serif">
    <rect x="0" y="0" width="220" height="160" rx="18" fill="#ffffff" stroke="#cbd5e1" stroke-width="2"/>
    <text x="26" y="44" font-size="22" font-weight="700" fill="#172033">Pregunta</text>
    <text x="26" y="82" font-size="17" fill="#475569">métrica</text>
    <text x="26" y="112" font-size="17" fill="#475569">validación</text>
    <text x="26" y="142" font-size="17" fill="#475569">limitación</text>

    <rect x="270" y="0" width="220" height="160" rx="18" fill="#ffffff" stroke="#cbd5e1" stroke-width="2"/>
    <text x="296" y="44" font-size="22" font-weight="700" fill="#172033">Respuesta</text>
    <text x="296" y="82" font-size="17" fill="#475569">afirmación precisa</text>
    <text x="296" y="112" font-size="17" fill="#475569">resultado central</text>
    <text x="296" y="142" font-size="17" fill="#475569">sin extrapolar</text>

    <rect x="540" y="0" width="220" height="160" rx="18" fill="#ffffff" stroke="#cbd5e1" stroke-width="2"/>
    <text x="566" y="44" font-size="22" font-weight="700" fill="#172033">Soporte</text>
    <text x="566" y="82" font-size="17" fill="#475569">tabla o figura</text>
    <text x="566" y="112" font-size="17" fill="#475569">archivo fuente</text>
    <text x="566" y="142" font-size="17" fill="#475569">cálculo mínimo</text>

    <rect x="810" y="0" width="220" height="160" rx="18" fill="#ffffff" stroke="#cbd5e1" stroke-width="2"/>
    <text x="836" y="44" font-size="22" font-weight="700" fill="#172033">Límite</text>
    <text x="836" y="82" font-size="17" fill="#475569">qué no se sabe</text>
    <text x="836" y="112" font-size="17" fill="#475569">riesgo principal</text>
    <text x="836" y="142" font-size="17" fill="#475569">siguiente paso</text>

    <line x1="220" y1="80" x2="250" y2="80" stroke="#334155" stroke-width="3"/>
    <polygon points="250,70 265,80 250,90" fill="#334155"/>
    <line x1="490" y1="80" x2="520" y2="80" stroke="#334155" stroke-width="3"/>
    <polygon points="520,70 535,80 520,90" fill="#334155"/>
    <line x1="760" y1="80" x2="790" y2="80" stroke="#334155" stroke-width="3"/>
    <polygon points="790,70 805,80 790,90" fill="#334155"/>
  </g>

</svg>
