<?xml version="1.0" encoding="utf-8" standalone="no"?>
<!DOCTYPE svg PUBLIC "-//W3C//DTD SVG 1.1//EN"
  "http://www.w3.org/Graphics/SVG/1.1/DTD/svg11.dtd">
<svg xmlns:xlink="http://www.w3.org/1999/xlink" width="856.8pt" height="372.505875pt" viewBox="0 0 856.8 372.505875" xmlns="http://www.w3.org/2000/svg" version="1.1">
 <metadata>
  <rdf:RDF xmlns:dc="http://purl.org/dc/elements/1.1/" xmlns:cc="http://creativecommons.org/ns#" xmlns:rdf="http://www.w3.org/1999/02/22-rdf-syntax-ns#">
   <cc:Work>
    <dc:type rdf:resource="http://purl.org/dc/dcmitype/StillImage"/>
    <dc:date>2026-07-10T09:28:05.067206</dc:date>
    <dc:format>image/svg+xml</dc:format>
    <dc:creator>
     <cc:Agent>
      <dc:title>Matplotlib v3.11.0, https://matplotlib.org/</dc:title>
     </cc:Agent>
    </dc:creator>
   </cc:Work>
  </rdf:RDF>
 </metadata>
 <defs>
  <style type="text/css">*{stroke-linejoin: round; stroke-linecap: butt}</style>
 </defs>
 <g id="figure_1">
  <g id="patch_1">
   <path d="M 0 372.505875
L 856.8 372.505875
L 856.8 0
L 0 0
z
" style="fill: #ffffff"/>
  </g>
  <g id="axes_1">
   <g id="patch_2">
    <path d="M 50.602812 304.165187
L 412.92 304.165187
L 412.92 83.979375
L 50.602812 83.979375
z
" style="fill: #ffffff"/>
   </g>
   <g id="PathCollection_1">
    <defs>
     <path id="md4cc2542bb" d="M 0 3.937004
C 1.044106 3.937004 2.045588 3.522176 2.783882 2.783882
C 3.522176 2.045588 3.937004 1.044106 3.937004 0
C 3.937004 -1.044106 3.522176 -2.045588 2.783882 -2.783882
C 2.045588 -3.522176 1.044106 -3.937004 0 -3.937004
C -1.044106 -3.937004 -2.045588 -3.522176 -2.783882 -2.783882
C -3.522176 -2.045588 -3.937004 -1.044106 -3.937004 0
C -3.937004 1.044106 -3.522176 2.045588 -2.783882 2.783882
C -2.045588 3.522176 -1.044106 3.937004 0 3.937004
z
" style="stroke: #2563eb"/>
    </defs>
    <g clip-path="url(#p677609e1b5)">
     <use xlink:href="#md4cc2542bb" x="285.011156" y="141.780386" style="fill: #2563eb; stroke: #2563eb"/>
     <use xlink:href="#md4cc2542bb" x="168.951655" y="247.930506" style="fill: #2563eb; stroke: #2563eb"/>
     <use xlink:href="#md4cc2542bb" x="378.962576" y="120.528176" style="fill: #2563eb; stroke: #2563eb"/>
     <use xlink:href="#md4cc2542bb" x="160.221765" y="230.261155" style="fill: #2563eb; stroke: #2563eb"/>
     <use xlink:href="#md4cc2542bb" x="122.394881" y="242.567798" style="fill: #2563eb; stroke: #2563eb"/>
     <use xlink:href="#md4cc2542bb" x="123.463251" y="283.528731" style="fill: #2563eb; stroke: #2563eb"/>
     <use xlink:href="#md4cc2542bb" x="157.096621" y="248.330351" style="fill: #2563eb; stroke: #2563eb"/>
     <use xlink:href="#md4cc2542bb" x="205.557233" y="188.650028" style="fill: #2563eb; stroke: #2563eb"/>
    </g>
   </g>
   <g id="matplotlib.axis_1">
    <g id="xtick_1">
     <g id="line2d_1">
      <path d="M 83.792602 304.165187
L 83.792602 83.979375
" clip-path="url(#p677609e1b5)" style="fill: none; stroke: #d7dee8; stroke-width: 0.7; stroke-linecap: square"/>
     </g>
     <g id="line2d_2">
      <defs>
       <path id="m42d6f5617a" d="M 0 0
L 0 3.5
" style="stroke: #64748b; stroke-width: 0.8"/>
      </defs>
      <g>
       <use xlink:href="#m42d6f5617a" x="83.792602" y="304.165187" style="fill: #64748b; stroke: #64748b; stroke-width: 0.8"/>
      </g>
     </g>
     <g id="text_1">
      <!-- 4 -->
      <g style="fill: #64748b" transform="translate(79.975102 320.282375) scale(0.12 -0.12)">
       <defs>
        <path id="DejaVuSans-17" d="M 2419 4116
L 825 1625
L 2419 1625
L 2419 4116
z
M 2253 4666
L 3047 4666
L 3047 1625
L 3713 1625
L 3713 1100
L 3047 1100
L 3047 0
L 2419 0
L 2419 1100
L 313 1100
L 313 1709
L 2253 4666
z
" transform="scale(0.015625)"/>
       </defs>
       <use xlink:href="#DejaVuSans-17"/>
      </g>
     </g>
    </g>
    <g id="xtick_2">
     <g id="line2d_3">
      <path d="M 127.513753 304.165187
L 127.513753 83.979375
" clip-path="url(#p677609e1b5)" style="fill: none; stroke: #d7dee8; stroke-width: 0.7; stroke-linecap: square"/>
     </g>
     <g id="line2d_4">
      <g>
       <use xlink:href="#m42d6f5617a" x="127.513753" y="304.165187" style="fill: #64748b; stroke: #64748b; stroke-width: 0.8"/>
      </g>
     </g>
     <g id="text_2">
      <!-- 5 -->
      <g style="fill: #64748b" transform="translate(123.696253 320.282375) scale(0.12 -0.12)">
       <defs>
        <path id="DejaVuSans-18" d="M 691 4666
L 3169 4666
L 3169 4134
L 1269 4134
L 1269 2991
Q 1406 3038 1543 3061
Q 1681 3084 1819 3084
Q 2600 3084 3056 2656
Q 3513 2228 3513 1497
Q 3513 744 3044 326
Q 2575 -91 1722 -91
Q 1428 -91 1123 -41
Q 819 9 494 109
L 494 744
Q 775 591 1075 516
Q 1375 441 1709 441
Q 2250 441 2565 725
Q 2881 1009 2881 1497
Q 2881 1984 2565 2268
Q 2250 2553 1709 2553
Q 1456 2553 1204 2497
Q 953 2441 691 2322
L 691 4666
z
" transform="scale(0.015625)"/>
       </defs>
       <use xlink:href="#DejaVuSans-18"/>
      </g>
     </g>
    </g>
    <g id="xtick_3">
     <g id="line2d_5">
      <path d="M 171.234905 304.165187
L 171.234905 83.979375
" clip-path="url(#p677609e1b5)" style="fill: none; stroke: #d7dee8; stroke-width: 0.7; stroke-linecap: square"/>
     </g>
     <g id="line2d_6">
      <g>
       <use xlink:href="#m42d6f5617a" x="171.234905" y="304.165187" style="fill: #64748b; stroke: #64748b; stroke-width: 0.8"/>
      </g>
     </g>
     <g id="text_3">
      <!-- 6 -->
      <g style="fill: #64748b" transform="translate(167.417405 320.282375) scale(0.12 -0.12)">
       <defs>
        <path id="DejaVuSans-19" d="M 2113 2584
Q 1688 2584 1439 2293
Q 1191 2003 1191 1497
Q 1191 994 1439 701
Q 1688 409 2113 409
Q 2538 409 2786 701
Q 3034 994 3034 1497
Q 3034 2003 2786 2293
Q 2538 2584 2113 2584
z
M 3366 4563
L 3366 3988
Q 3128 4100 2886 4159
Q 2644 4219 2406 4219
Q 1781 4219 1451 3797
Q 1122 3375 1075 2522
Q 1259 2794 1537 2939
Q 1816 3084 2150 3084
Q 2853 3084 3261 2657
Q 3669 2231 3669 1497
Q 3669 778 3244 343
Q 2819 -91 2113 -91
Q 1303 -91 875 529
Q 447 1150 447 2328
Q 447 3434 972 4092
Q 1497 4750 2381 4750
Q 2619 4750 2861 4703
Q 3103 4656 3366 4563
z
" transform="scale(0.015625)"/>
       </defs>
       <use xlink:href="#DejaVuSans-19"/>
      </g>
     </g>
    </g>
    <g id="xtick_4">
     <g id="line2d_7">
      <path d="M 214.956056 304.165187
L 214.956056 83.979375
" clip-path="url(#p677609e1b5)" style="fill: none; stroke: #d7dee8; stroke-width: 0.7; stroke-linecap: square"/>
     </g>
     <g id="line2d_8">
      <g>
       <use xlink:href="#m42d6f5617a" x="214.956056" y="304.165187" style="fill: #64748b; stroke: #64748b; stroke-width: 0.8"/>
      </g>
     </g>
     <g id="text_4">
      <!-- 7 -->
      <g style="fill: #64748b" transform="translate(211.138556 320.282375) scale(0.12 -0.12)">
       <defs>
        <path id="DejaVuSans-1a" d="M 525 4666
L 3525 4666
L 3525 4397
L 1831 0
L 1172 0
L 2766 4134
L 525 4134
L 525 4666
z
" transform="scale(0.015625)"/>
       </defs>
       <use xlink:href="#DejaVuSans-1a"/>
      </g>
     </g>
    </g>
    <g id="xtick_5">
     <g id="line2d_9">
      <path d="M 258.677207 304.165187
L 258.677207 83.979375
" clip-path="url(#p677609e1b5)" style="fill: none; stroke: #d7dee8; stroke-width: 0.7; stroke-linecap: square"/>
     </g>
     <g id="line2d_10">
      <g>
       <use xlink:href="#m42d6f5617a" x="258.677207" y="304.165187" style="fill: #64748b; stroke: #64748b; stroke-width: 0.8"/>
      </g>
     </g>
     <g id="text_5">
      <!-- 8 -->
      <g style="fill: #64748b" transform="translate(254.859707 320.282375) scale(0.12 -0.12)">
       <defs>
        <path id="DejaVuSans-1b" d="M 2034 2216
Q 1584 2216 1326 1975
Q 1069 1734 1069 1313
Q 1069 891 1326 650
Q 1584 409 2034 409
Q 2484 409 2743 651
Q 3003 894 3003 1313
Q 3003 1734 2745 1975
Q 2488 2216 2034 2216
z
M 1403 2484
Q 997 2584 770 2862
Q 544 3141 544 3541
Q 544 4100 942 4425
Q 1341 4750 2034 4750
Q 2731 4750 3128 4425
Q 3525 4100 3525 3541
Q 3525 3141 3298 2862
Q 3072 2584 2669 2484
Q 3125 2378 3379 2068
Q 3634 1759 3634 1313
Q 3634 634 3220 271
Q 2806 -91 2034 -91
Q 1263 -91 848 271
Q 434 634 434 1313
Q 434 1759 690 2068
Q 947 2378 1403 2484
z
M 1172 3481
Q 1172 3119 1398 2916
Q 1625 2713 2034 2713
Q 2441 2713 2670 2916
Q 2900 3119 2900 3481
Q 2900 3844 2670 4047
Q 2441 4250 2034 4250
Q 1625 4250 1398 4047
Q 1172 3844 1172 3481
z
" transform="scale(0.015625)"/>
       </defs>
       <use xlink:href="#DejaVuSans-1b"/>
      </g>
     </g>
    </g>
    <g id="xtick_6">
     <g id="line2d_11">
      <path d="M 302.398359 304.165187
L 302.398359 83.979375
" clip-path="url(#p677609e1b5)" style="fill: none; stroke: #d7dee8; stroke-width: 0.7; stroke-linecap: square"/>
     </g>
     <g id="line2d_12">
      <g>
       <use xlink:href="#m42d6f5617a" x="302.398359" y="304.165187" style="fill: #64748b; stroke: #64748b; stroke-width: 0.8"/>
      </g>
     </g>
     <g id="text_6">
      <!-- 9 -->
      <g style="fill: #64748b" transform="translate(298.580859 320.282375) scale(0.12 -0.12)">
       <defs>
        <path id="DejaVuSans-1c" d="M 703 97
L 703 672
Q 941 559 1184 500
Q 1428 441 1663 441
Q 2288 441 2617 861
Q 2947 1281 2994 2138
Q 2813 1869 2534 1725
Q 2256 1581 1919 1581
Q 1219 1581 811 2004
Q 403 2428 403 3163
Q 403 3881 828 4315
Q 1253 4750 1959 4750
Q 2769 4750 3195 4129
Q 3622 3509 3622 2328
Q 3622 1225 3098 567
Q 2575 -91 1691 -91
Q 1453 -91 1209 -44
Q 966 3 703 97
z
M 1959 2075
Q 2384 2075 2632 2365
Q 2881 2656 2881 3163
Q 2881 3666 2632 3958
Q 2384 4250 1959 4250
Q 1534 4250 1286 3958
Q 1038 3666 1038 3163
Q 1038 2656 1286 2365
Q 1534 2075 1959 2075
z
" transform="scale(0.015625)"/>
       </defs>
       <use xlink:href="#DejaVuSans-1c"/>
      </g>
     </g>
    </g>
    <g id="xtick_7">
     <g id="line2d_13">
      <path d="M 346.11951 304.165187
L 346.11951 83.979375
" clip-path="url(#p677609e1b5)" style="fill: none; stroke: #d7dee8; stroke-width: 0.7; stroke-linecap: square"/>
     </g>
     <g id="line2d_14">
      <g>
       <use xlink:href="#m42d6f5617a" x="346.11951" y="304.165187" style="fill: #64748b; stroke: #64748b; stroke-width: 0.8"/>
      </g>
     </g>
     <g id="text_7">
      <!-- 10 -->
      <g style="fill: #64748b" transform="translate(338.48451 320.282375) scale(0.12 -0.12)">
       <defs>
        <path id="DejaVuSans-14" d="M 794 531
L 1825 531
L 1825 4091
L 703 3866
L 703 4441
L 1819 4666
L 2450 4666
L 2450 531
L 3481 531
L 3481 0
L 794 0
L 794 531
z
" transform="scale(0.015625)"/>
        <path id="DejaVuSans-13" d="M 2034 4250
Q 1547 4250 1301 3770
Q 1056 3291 1056 2328
Q 1056 1369 1301 889
Q 1547 409 2034 409
Q 2525 409 2770 889
Q 3016 1369 3016 2328
Q 3016 3291 2770 3770
Q 2525 4250 2034 4250
z
M 2034 4750
Q 2819 4750 3233 4129
Q 3647 3509 3647 2328
Q 3647 1150 3233 529
Q 2819 -91 2034 -91
Q 1250 -91 836 529
Q 422 1150 422 2328
Q 422 3509 836 4129
Q 1250 4750 2034 4750
z
" transform="scale(0.015625)"/>
       </defs>
       <use xlink:href="#DejaVuSans-14"/>
       <use xlink:href="#DejaVuSans-13" transform="translate(63.625 0)"/>
      </g>
     </g>
    </g>
    <g id="xtick_8">
     <g id="line2d_15">
      <path d="M 389.840661 304.165187
L 389.840661 83.979375
" clip-path="url(#p677609e1b5)" style="fill: none; stroke: #d7dee8; stroke-width: 0.7; stroke-linecap: square"/>
     </g>
     <g id="line2d_16">
      <g>
       <use xlink:href="#m42d6f5617a" x="389.840661" y="304.165187" style="fill: #64748b; stroke: #64748b; stroke-width: 0.8"/>
      </g>
     </g>
     <g id="text_8">
      <!-- 11 -->
      <g style="fill: #64748b" transform="translate(382.205661 320.282375) scale(0.12 -0.12)">
       <use xlink:href="#DejaVuSans-14"/>
       <use xlink:href="#DejaVuSans-14" transform="translate(63.625 0)"/>
      </g>
     </g>
    </g>
    <g id="text_9">
     <!-- Observado -->
     <g style="fill: #172033" transform="translate(199.236719 336.283312) scale(0.12 -0.12)">
      <defs>
       <path id="DejaVuSans-32" d="M 2522 4238
Q 1834 4238 1429 3725
Q 1025 3213 1025 2328
Q 1025 1447 1429 934
Q 1834 422 2522 422
Q 3209 422 3611 934
Q 4013 1447 4013 2328
Q 4013 3213 3611 3725
Q 3209 4238 2522 4238
z
M 2522 4750
Q 3503 4750 4090 4092
Q 4678 3434 4678 2328
Q 4678 1225 4090 567
Q 3503 -91 2522 -91
Q 1538 -91 948 565
Q 359 1222 359 2328
Q 359 3434 948 4092
Q 1538 4750 2522 4750
z
" transform="scale(0.015625)"/>
       <path id="DejaVuSans-45" d="M 3116 1747
Q 3116 2381 2855 2742
Q 2594 3103 2138 3103
Q 1681 3103 1420 2742
Q 1159 2381 1159 1747
Q 1159 1113 1420 752
Q 1681 391 2138 391
Q 2594 391 2855 752
Q 3116 1113 3116 1747
z
M 1159 2969
Q 1341 3281 1617 3432
Q 1894 3584 2278 3584
Q 2916 3584 3314 3078
Q 3713 2572 3713 1747
Q 3713 922 3314 415
Q 2916 -91 2278 -91
Q 1894 -91 1617 61
Q 1341 213 1159 525
L 1159 0
L 581 0
L 581 4863
L 1159 4863
L 1159 2969
z
" transform="scale(0.015625)"/>
       <path id="DejaVuSans-56" d="M 2834 3397
L 2834 2853
Q 2591 2978 2328 3040
Q 2066 3103 1784 3103
Q 1356 3103 1142 2972
Q 928 2841 928 2578
Q 928 2378 1081 2264
Q 1234 2150 1697 2047
L 1894 2003
Q 2506 1872 2764 1633
Q 3022 1394 3022 966
Q 3022 478 2636 193
Q 2250 -91 1575 -91
Q 1294 -91 989 -36
Q 684 19 347 128
L 347 722
Q 666 556 975 473
Q 1284 391 1588 391
Q 1994 391 2212 530
Q 2431 669 2431 922
Q 2431 1156 2273 1281
Q 2116 1406 1581 1522
L 1381 1569
Q 847 1681 609 1914
Q 372 2147 372 2553
Q 372 3047 722 3315
Q 1072 3584 1716 3584
Q 2034 3584 2315 3537
Q 2597 3491 2834 3397
z
" transform="scale(0.015625)"/>
       <path id="DejaVuSans-48" d="M 3597 1894
L 3597 1613
L 953 1613
Q 991 1019 1311 708
Q 1631 397 2203 397
Q 2534 397 2845 478
Q 3156 559 3463 722
L 3463 178
Q 3153 47 2828 -22
Q 2503 -91 2169 -91
Q 1331 -91 842 396
Q 353 884 353 1716
Q 353 2575 817 3079
Q 1281 3584 2069 3584
Q 2775 3584 3186 3129
Q 3597 2675 3597 1894
z
M 3022 2063
Q 3016 2534 2758 2815
Q 2500 3097 2075 3097
Q 1594 3097 1305 2825
Q 1016 2553 972 2059
L 3022 2063
z
" transform="scale(0.015625)"/>
       <path id="DejaVuSans-55" d="M 2631 2963
Q 2534 3019 2420 3045
Q 2306 3072 2169 3072
Q 1681 3072 1420 2755
Q 1159 2438 1159 1844
L 1159 0
L 581 0
L 581 3500
L 1159 3500
L 1159 2956
Q 1341 3275 1631 3429
Q 1922 3584 2338 3584
Q 2397 3584 2469 3576
Q 2541 3569 2628 3553
L 2631 2963
z
" transform="scale(0.015625)"/>
       <path id="DejaVuSans-59" d="M 191 3500
L 800 3500
L 1894 563
L 2988 3500
L 3597 3500
L 2284 0
L 1503 0
L 191 3500
z
" transform="scale(0.015625)"/>
       <path id="DejaVuSans-44" d="M 2194 1759
Q 1497 1759 1228 1600
Q 959 1441 959 1056
Q 959 750 1161 570
Q 1363 391 1709 391
Q 2188 391 2477 730
Q 2766 1069 2766 1631
L 2766 1759
L 2194 1759
z
M 3341 1997
L 3341 0
L 2766 0
L 2766 531
Q 2569 213 2275 61
Q 1981 -91 1556 -91
Q 1019 -91 701 211
Q 384 513 384 1019
Q 384 1609 779 1909
Q 1175 2209 1959 2209
L 2766 2209
L 2766 2266
Q 2766 2663 2505 2880
Q 2244 3097 1772 3097
Q 1472 3097 1187 3025
Q 903 2953 641 2809
L 641 3341
Q 956 3463 1253 3523
Q 1550 3584 1831 3584
Q 2591 3584 2966 3190
Q 3341 2797 3341 1997
z
" transform="scale(0.015625)"/>
       <path id="DejaVuSans-47" d="M 2906 2969
L 2906 4863
L 3481 4863
L 3481 0
L 2906 0
L 2906 525
Q 2725 213 2448 61
Q 2172 -91 1784 -91
Q 1150 -91 751 415
Q 353 922 353 1747
Q 353 2572 751 3078
Q 1150 3584 1784 3584
Q 2172 3584 2448 3432
Q 2725 3281 2906 2969
z
M 947 1747
Q 947 1113 1208 752
Q 1469 391 1925 391
Q 2381 391 2643 752
Q 2906 1113 2906 1747
Q 2906 2381 2643 2742
Q 2381 3103 1925 3103
Q 1469 3103 1208 2742
Q 947 2381 947 1747
z
" transform="scale(0.015625)"/>
       <path id="DejaVuSans-52" d="M 1959 3097
Q 1497 3097 1228 2736
Q 959 2375 959 1747
Q 959 1119 1226 758
Q 1494 397 1959 397
Q 2419 397 2687 759
Q 2956 1122 2956 1747
Q 2956 2369 2687 2733
Q 2419 3097 1959 3097
z
M 1959 3584
Q 2709 3584 3137 3096
Q 3566 2609 3566 1747
Q 3566 888 3137 398
Q 2709 -91 1959 -91
Q 1206 -91 779 398
Q 353 888 353 1747
Q 353 2609 779 3096
Q 1206 3584 1959 3584
z
" transform="scale(0.015625)"/>
      </defs>
      <use xlink:href="#DejaVuSans-32"/>
      <use xlink:href="#DejaVuSans-45" transform="translate(78.71875 0)"/>
      <use xlink:href="#DejaVuSans-56" transform="translate(142.203125 0)"/>
      <use xlink:href="#DejaVuSans-48" transform="translate(194.296875 0)"/>
      <use xlink:href="#DejaVuSans-55" transform="translate(255.828125 0)"/>
      <use xlink:href="#DejaVuSans-59" transform="translate(296.9375 0)"/>
      <use xlink:href="#DejaVuSans-44" transform="translate(356.125 0)"/>
      <use xlink:href="#DejaVuSans-47" transform="translate(417.40625 0)"/>
      <use xlink:href="#DejaVuSans-52" transform="translate(480.890625 0)"/>
     </g>
    </g>
   </g>
   <g id="matplotlib.axis_2">
    <g id="ytick_1">
     <g id="line2d_17">
      <path d="M 50.602812 283.995234
L 412.92 283.995234
" clip-path="url(#p677609e1b5)" style="fill: none; stroke: #d7dee8; stroke-width: 0.7; stroke-linecap: square"/>
     </g>
     <g id="line2d_18">
      <defs>
       <path id="m3d94c471a4" d="M 0 0
L -3.5 0
" style="stroke: #64748b; stroke-width: 0.8"/>
      </defs>
      <g>
       <use xlink:href="#m3d94c471a4" x="50.602812" y="283.995234" style="fill: #64748b; stroke: #64748b; stroke-width: 0.8"/>
      </g>
     </g>
     <g id="text_10">
      <!-- 4 -->
      <g style="fill: #64748b" transform="translate(35.967813 288.553828) scale(0.12 -0.12)">
       <use xlink:href="#DejaVuSans-17"/>
      </g>
     </g>
    </g>
    <g id="ytick_2">
     <g id="line2d_19">
      <path d="M 50.602812 257.425208
L 412.92 257.425208
" clip-path="url(#p677609e1b5)" style="fill: none; stroke: #d7dee8; stroke-width: 0.7; stroke-linecap: square"/>
     </g>
     <g id="line2d_20">
      <g>
       <use xlink:href="#m3d94c471a4" x="50.602812" y="257.425208" style="fill: #64748b; stroke: #64748b; stroke-width: 0.8"/>
      </g>
     </g>
     <g id="text_11">
      <!-- 5 -->
      <g style="fill: #64748b" transform="translate(35.967813 261.983802) scale(0.12 -0.12)">
       <use xlink:href="#DejaVuSans-18"/>
      </g>
     </g>
    </g>
    <g id="ytick_3">
     <g id="line2d_21">
      <path d="M 50.602812 230.855181
L 412.92 230.855181
" clip-path="url(#p677609e1b5)" style="fill: none; stroke: #d7dee8; stroke-width: 0.7; stroke-linecap: square"/>
     </g>
     <g id="line2d_22">
      <g>
       <use xlink:href="#m3d94c471a4" x="50.602812" y="230.855181" style="fill: #64748b; stroke: #64748b; stroke-width: 0.8"/>
      </g>
     </g>
     <g id="text_12">
      <!-- 6 -->
      <g style="fill: #64748b" transform="translate(35.967813 235.413775) scale(0.12 -0.12)">
       <use xlink:href="#DejaVuSans-19"/>
      </g>
     </g>
    </g>
    <g id="ytick_4">
     <g id="line2d_23">
      <path d="M 50.602812 204.285155
L 412.92 204.285155
" clip-path="url(#p677609e1b5)" style="fill: none; stroke: #d7dee8; stroke-width: 0.7; stroke-linecap: square"/>
     </g>
     <g id="line2d_24">
      <g>
       <use xlink:href="#m3d94c471a4" x="50.602812" y="204.285155" style="fill: #64748b; stroke: #64748b; stroke-width: 0.8"/>
      </g>
     </g>
     <g id="text_13">
      <!-- 7 -->
      <g style="fill: #64748b" transform="translate(35.967813 208.843749) scale(0.12 -0.12)">
       <use xlink:href="#DejaVuSans-1a"/>
      </g>
     </g>
    </g>
    <g id="ytick_5">
     <g id="line2d_25">
      <path d="M 50.602812 177.715129
L 412.92 177.715129
" clip-path="url(#p677609e1b5)" style="fill: none; stroke: #d7dee8; stroke-width: 0.7; stroke-linecap: square"/>
     </g>
     <g id="line2d_26">
      <g>
       <use xlink:href="#m3d94c471a4" x="50.602812" y="177.715129" style="fill: #64748b; stroke: #64748b; stroke-width: 0.8"/>
      </g>
     </g>
     <g id="text_14">
      <!-- 8 -->
      <g style="fill: #64748b" transform="translate(35.967813 182.273722) scale(0.12 -0.12)">
       <use xlink:href="#DejaVuSans-1b"/>
      </g>
     </g>
    </g>
    <g id="ytick_6">
     <g id="line2d_27">
      <path d="M 50.602812 151.145102
L 412.92 151.145102
" clip-path="url(#p677609e1b5)" style="fill: none; stroke: #d7dee8; stroke-width: 0.7; stroke-linecap: square"/>
     </g>
     <g id="line2d_28">
      <g>
       <use xlink:href="#m3d94c471a4" x="50.602812" y="151.145102" style="fill: #64748b; stroke: #64748b; stroke-width: 0.8"/>
      </g>
     </g>
     <g id="text_15">
      <!-- 9 -->
      <g style="fill: #64748b" transform="translate(35.967813 155.703696) scale(0.12 -0.12)">
       <use xlink:href="#DejaVuSans-1c"/>
      </g>
     </g>
    </g>
    <g id="ytick_7">
     <g id="line2d_29">
      <path d="M 50.602812 124.575076
L 412.92 124.575076
" clip-path="url(#p677609e1b5)" style="fill: none; stroke: #d7dee8; stroke-width: 0.7; stroke-linecap: square"/>
     </g>
     <g id="line2d_30">
      <g>
       <use xlink:href="#m3d94c471a4" x="50.602812" y="124.575076" style="fill: #64748b; stroke: #64748b; stroke-width: 0.8"/>
      </g>
     </g>
     <g id="text_16">
      <!-- 10 -->
      <g style="fill: #64748b" transform="translate(28.332812 129.13367) scale(0.12 -0.12)">
       <use xlink:href="#DejaVuSans-14"/>
       <use xlink:href="#DejaVuSans-13" transform="translate(63.625 0)"/>
      </g>
     </g>
    </g>
    <g id="ytick_8">
     <g id="line2d_31">
      <path d="M 50.602812 98.00505
L 412.92 98.00505
" clip-path="url(#p677609e1b5)" style="fill: none; stroke: #d7dee8; stroke-width: 0.7; stroke-linecap: square"/>
     </g>
     <g id="line2d_32">
      <g>
       <use xlink:href="#m3d94c471a4" x="50.602812" y="98.00505" style="fill: #64748b; stroke: #64748b; stroke-width: 0.8"/>
      </g>
     </g>
     <g id="text_17">
      <!-- 11 -->
      <g style="fill: #64748b" transform="translate(28.332812 102.563643) scale(0.12 -0.12)">
       <use xlink:href="#DejaVuSans-14"/>
       <use xlink:href="#DejaVuSans-14" transform="translate(63.625 0)"/>
      </g>
     </g>
    </g>
    <g id="text_18">
     <!-- Predicho -->
     <g style="fill: #172033" transform="translate(21.45 219.860094) rotate(-90) scale(0.12 -0.12)">
      <defs>
       <path id="DejaVuSans-33" d="M 1259 4147
L 1259 2394
L 2053 2394
Q 2494 2394 2734 2622
Q 2975 2850 2975 3272
Q 2975 3691 2734 3919
Q 2494 4147 2053 4147
L 1259 4147
z
M 628 4666
L 2053 4666
Q 2838 4666 3239 4311
Q 3641 3956 3641 3272
Q 3641 2581 3239 2228
Q 2838 1875 2053 1875
L 1259 1875
L 1259 0
L 628 0
L 628 4666
z
" transform="scale(0.015625)"/>
       <path id="DejaVuSans-4c" d="M 603 3500
L 1178 3500
L 1178 0
L 603 0
L 603 3500
z
M 603 4863
L 1178 4863
L 1178 4134
L 603 4134
L 603 4863
z
" transform="scale(0.015625)"/>
       <path id="DejaVuSans-46" d="M 3122 3366
L 3122 2828
Q 2878 2963 2633 3030
Q 2388 3097 2138 3097
Q 1578 3097 1268 2742
Q 959 2388 959 1747
Q 959 1106 1268 751
Q 1578 397 2138 397
Q 2388 397 2633 464
Q 2878 531 3122 666
L 3122 134
Q 2881 22 2623 -34
Q 2366 -91 2075 -91
Q 1284 -91 818 406
Q 353 903 353 1747
Q 353 2603 823 3093
Q 1294 3584 2113 3584
Q 2378 3584 2631 3529
Q 2884 3475 3122 3366
z
" transform="scale(0.015625)"/>
       <path id="DejaVuSans-4b" d="M 3513 2113
L 3513 0
L 2938 0
L 2938 2094
Q 2938 2591 2744 2837
Q 2550 3084 2163 3084
Q 1697 3084 1428 2787
Q 1159 2491 1159 1978
L 1159 0
L 581 0
L 581 4863
L 1159 4863
L 1159 2956
Q 1366 3272 1645 3428
Q 1925 3584 2291 3584
Q 2894 3584 3203 3211
Q 3513 2838 3513 2113
z
" transform="scale(0.015625)"/>
      </defs>
      <use xlink:href="#DejaVuSans-33"/>
      <use xlink:href="#DejaVuSans-55" transform="translate(58.546875 0)"/>
      <use xlink:href="#DejaVuSans-48" transform="translate(97.453125 0)"/>
      <use xlink:href="#DejaVuSans-47" transform="translate(158.984375 0)"/>
      <use xlink:href="#DejaVuSans-4c" transform="translate(222.46875 0)"/>
      <use xlink:href="#DejaVuSans-46" transform="translate(250.25 0)"/>
      <use xlink:href="#DejaVuSans-4b" transform="translate(305.234375 0)"/>
      <use xlink:href="#DejaVuSans-52" transform="translate(368.609375 0)"/>
     </g>
    </g>
   </g>
   <g id="line2d_33">
    <path d="M 67.071776 294.156741
L 396.451037 93.987821
" clip-path="url(#p677609e1b5)" style="fill: none; stroke-dasharray: 5.55,2.4; stroke-dashoffset: 0; stroke: #c2413b; stroke-width: 1.5"/>
   </g>
   <g id="patch_3">
    <path d="M 50.602812 304.165187
L 50.602812 83.979375
" style="fill: none; stroke: #d7dee8; stroke-width: 0.8; stroke-linejoin: miter; stroke-linecap: square"/>
   </g>
   <g id="patch_4">
    <path d="M 50.602812 304.165187
L 412.92 304.165187
" style="fill: none; stroke: #d7dee8; stroke-width: 0.8; stroke-linejoin: miter; stroke-linecap: square"/>
   </g>
   <g id="text_19">
    <!-- Predicción fuera del ajuste -->
    <g style="fill: #172033" transform="translate(136.111656 77.979375) scale(0.144 -0.144)">
     <defs>
      <path id="DejaVuSans-b5" d="M 1959 3097
Q 1497 3097 1228 2736
Q 959 2375 959 1747
Q 959 1119 1226 758
Q 1494 397 1959 397
Q 2419 397 2687 759
Q 2956 1122 2956 1747
Q 2956 2369 2687 2733
Q 2419 3097 1959 3097
z
M 1959 3584
Q 2709 3584 3137 3096
Q 3566 2609 3566 1747
Q 3566 888 3137 398
Q 2709 -91 1959 -91
Q 1206 -91 779 398
Q 353 888 353 1747
Q 353 2609 779 3096
Q 1206 3584 1959 3584
z
M 2393 5119
L 3015 5119
L 1997 3944
L 1518 3944
L 2393 5119
z
" transform="scale(0.015625)"/>
      <path id="DejaVuSans-51" d="M 3513 2113
L 3513 0
L 2938 0
L 2938 2094
Q 2938 2591 2744 2837
Q 2550 3084 2163 3084
Q 1697 3084 1428 2787
Q 1159 2491 1159 1978
L 1159 0
L 581 0
L 581 3500
L 1159 3500
L 1159 2956
Q 1366 3272 1645 3428
Q 1925 3584 2291 3584
Q 2894 3584 3203 3211
Q 3513 2838 3513 2113
z
" transform="scale(0.015625)"/>
      <path id="DejaVuSans-3" transform="scale(0.015625)"/>
      <path id="DejaVuSans-49" d="M 2375 4863
L 2375 4384
L 1825 4384
Q 1516 4384 1395 4259
Q 1275 4134 1275 3809
L 1275 3500
L 2222 3500
L 2222 3053
L 1275 3053
L 1275 0
L 697 0
L 697 3053
L 147 3053
L 147 3500
L 697 3500
L 697 3744
Q 697 4328 969 4595
Q 1241 4863 1831 4863
L 2375 4863
z
" transform="scale(0.015625)"/>
      <path id="DejaVuSans-58" d="M 544 1381
L 544 3500
L 1119 3500
L 1119 1403
Q 1119 906 1312 657
Q 1506 409 1894 409
Q 2359 409 2629 706
Q 2900 1003 2900 1516
L 2900 3500
L 3475 3500
L 3475 0
L 2900 0
L 2900 538
Q 2691 219 2414 64
Q 2138 -91 1772 -91
Q 1169 -91 856 284
Q 544 659 544 1381
z
M 1991 3584
L 1991 3584
z
" transform="scale(0.015625)"/>
      <path id="DejaVuSans-4f" d="M 603 4863
L 1178 4863
L 1178 0
L 603 0
L 603 4863
z
" transform="scale(0.015625)"/>
      <path id="DejaVuSans-4d" d="M 603 3500
L 1178 3500
L 1178 -63
Q 1178 -731 923 -1031
Q 669 -1331 103 -1331
L -116 -1331
L -116 -844
L 38 -844
Q 366 -844 484 -692
Q 603 -541 603 -63
L 603 3500
z
M 603 4863
L 1178 4863
L 1178 4134
L 603 4134
L 603 4863
z
" transform="scale(0.015625)"/>
      <path id="DejaVuSans-57" d="M 1172 4494
L 1172 3500
L 2356 3500
L 2356 3053
L 1172 3053
L 1172 1153
Q 1172 725 1289 603
Q 1406 481 1766 481
L 2356 481
L 2356 0
L 1766 0
Q 1100 0 847 248
Q 594 497 594 1153
L 594 3053
L 172 3053
L 172 3500
L 594 3500
L 594 4494
L 1172 4494
z
" transform="scale(0.015625)"/>
     </defs>
     <use xlink:href="#DejaVuSans-33"/>
     <use xlink:href="#DejaVuSans-55" transform="translate(58.546875 0)"/>
     <use xlink:href="#DejaVuSans-48" transform="translate(97.453125 0)"/>
     <use xlink:href="#DejaVuSans-47" transform="translate(158.984375 0)"/>
     <use xlink:href="#DejaVuSans-4c" transform="translate(222.46875 0)"/>
     <use xlink:href="#DejaVuSans-46" transform="translate(250.25 0)"/>
     <use xlink:href="#DejaVuSans-46" transform="translate(305.234375 0)"/>
     <use xlink:href="#DejaVuSans-4c" transform="translate(360.21875 0)"/>
     <use xlink:href="#DejaVuSans-b5" transform="translate(388 0)"/>
     <use xlink:href="#DejaVuSans-51" transform="translate(449.1875 0)"/>
     <use xlink:href="#DejaVuSans-3" transform="translate(512.5625 0)"/>
     <use xlink:href="#DejaVuSans-49" transform="translate(544.34375 0)"/>
     <use xlink:href="#DejaVuSans-58" transform="translate(579.546875 0)"/>
     <use xlink:href="#DejaVuSans-48" transform="translate(642.921875 0)"/>
     <use xlink:href="#DejaVuSans-55" transform="translate(704.453125 0)"/>
     <use xlink:href="#DejaVuSans-44" transform="translate(745.5625 0)"/>
     <use xlink:href="#DejaVuSans-3" transform="translate(806.84375 0)"/>
     <use xlink:href="#DejaVuSans-47" transform="translate(838.625 0)"/>
     <use xlink:href="#DejaVuSans-48" transform="translate(902.109375 0)"/>
     <use xlink:href="#DejaVuSans-4f" transform="translate(963.640625 0)"/>
     <use xlink:href="#DejaVuSans-3" transform="translate(991.421875 0)"/>
     <use xlink:href="#DejaVuSans-44" transform="translate(1023.203125 0)"/>
     <use xlink:href="#DejaVuSans-4d" transform="translate(1084.484375 0)"/>
     <use xlink:href="#DejaVuSans-58" transform="translate(1112.265625 0)"/>
     <use xlink:href="#DejaVuSans-56" transform="translate(1175.640625 0)"/>
     <use xlink:href="#DejaVuSans-57" transform="translate(1227.734375 0)"/>
     <use xlink:href="#DejaVuSans-48" transform="translate(1266.9375 0)"/>
    </g>
   </g>
  </g>
  <g id="axes_2">
   <g id="patch_5">
    <path d="M 487.282812 304.165187
L 849.6 304.165187
L 849.6 83.979375
L 487.282812 83.979375
z
" style="fill: #ffffff"/>
   </g>
   <g id="PathCollection_2">
    <defs>
     <path id="mff01cc00ad" d="M 0 3.937004
C 1.044106 3.937004 2.045588 3.522176 2.783882 2.783882
C 3.522176 2.045588 3.937004 1.044106 3.937004 0
C 3.937004 -1.044106 3.522176 -2.045588 2.783882 -2.783882
C 2.045588 -3.522176 1.044106 -3.937004 0 -3.937004
C -1.044106 -3.937004 -2.045588 -3.522176 -2.783882 -2.783882
C -3.522176 -2.045588 -3.937004 -1.044106 -3.937004 0
C -3.937004 1.044106 -3.522176 2.045588 -2.783882 2.783882
C -2.045588 3.522176 -1.044106 3.937004 0 3.937004
z
" style="stroke: #0f766e"/>
    </defs>
    <g clip-path="url(#p2ee3193527)">
     <use xlink:href="#mff01cc00ad" x="790.18617" y="287.857661" style="fill: #0f766e; stroke: #0f766e"/>
     <use xlink:href="#mff01cc00ad" x="575.68599" y="129.378452" style="fill: #0f766e; stroke: #0f766e"/>
     <use xlink:href="#mff01cc00ad" x="833.131037" y="128.379202" style="fill: #0f766e; stroke: #0f766e"/>
     <use xlink:href="#mff01cc00ad" x="611.390887" y="231.599409" style="fill: #0f766e; stroke: #0f766e"/>
     <use xlink:href="#mff01cc00ad" x="586.522548" y="279.123862" style="fill: #0f766e; stroke: #0f766e"/>
     <use xlink:href="#mff01cc00ad" x="503.751776" y="93.987821" style="fill: #0f766e; stroke: #0f766e"/>
     <use xlink:href="#mff01cc00ad" x="574.878015" y="159.654324" style="fill: #0f766e; stroke: #0f766e"/>
     <use xlink:href="#mff01cc00ad" x="695.475522" y="294.156741" style="fill: #0f766e; stroke: #0f766e"/>
    </g>
   </g>
   <g id="matplotlib.axis_3">
    <g id="xtick_9">
     <g id="line2d_34">
      <path d="M 502.809101 304.165187
L 502.809101 83.979375
" clip-path="url(#p2ee3193527)" style="fill: none; stroke: #d7dee8; stroke-width: 0.7; stroke-linecap: square"/>
     </g>
     <g id="line2d_35">
      <g>
       <use xlink:href="#m42d6f5617a" x="502.809101" y="304.165187" style="fill: #64748b; stroke: #64748b; stroke-width: 0.8"/>
      </g>
     </g>
     <g id="text_20">
      <!-- 4 -->
      <g style="fill: #64748b" transform="translate(498.991601 320.282375) scale(0.12 -0.12)">
       <use xlink:href="#DejaVuSans-17"/>
      </g>
     </g>
    </g>
    <g id="xtick_10">
     <g id="line2d_36">
      <path d="M 556.499812 304.165187
L 556.499812 83.979375
" clip-path="url(#p2ee3193527)" style="fill: none; stroke: #d7dee8; stroke-width: 0.7; stroke-linecap: square"/>
     </g>
     <g id="line2d_37">
      <g>
       <use xlink:href="#m42d6f5617a" x="556.499812" y="304.165187" style="fill: #64748b; stroke: #64748b; stroke-width: 0.8"/>
      </g>
     </g>
     <g id="text_21">
      <!-- 5 -->
      <g style="fill: #64748b" transform="translate(552.682312 320.282375) scale(0.12 -0.12)">
       <use xlink:href="#DejaVuSans-18"/>
      </g>
     </g>
    </g>
    <g id="xtick_11">
     <g id="line2d_38">
      <path d="M 610.190523 304.165187
L 610.190523 83.979375
" clip-path="url(#p2ee3193527)" style="fill: none; stroke: #d7dee8; stroke-width: 0.7; stroke-linecap: square"/>
     </g>
     <g id="line2d_39">
      <g>
       <use xlink:href="#m42d6f5617a" x="610.190523" y="304.165187" style="fill: #64748b; stroke: #64748b; stroke-width: 0.8"/>
      </g>
     </g>
     <g id="text_22">
      <!-- 6 -->
      <g style="fill: #64748b" transform="translate(606.373023 320.282375) scale(0.12 -0.12)">
       <use xlink:href="#DejaVuSans-19"/>
      </g>
     </g>
    </g>
    <g id="xtick_12">
     <g id="line2d_40">
      <path d="M 663.881234 304.165187
L 663.881234 83.979375
" clip-path="url(#p2ee3193527)" style="fill: none; stroke: #d7dee8; stroke-width: 0.7; stroke-linecap: square"/>
     </g>
     <g id="line2d_41">
      <g>
       <use xlink:href="#m42d6f5617a" x="663.881234" y="304.165187" style="fill: #64748b; stroke: #64748b; stroke-width: 0.8"/>
      </g>
     </g>
     <g id="text_23">
      <!-- 7 -->
      <g style="fill: #64748b" transform="translate(660.063734 320.282375) scale(0.12 -0.12)">
       <use xlink:href="#DejaVuSans-1a"/>
      </g>
     </g>
    </g>
    <g id="xtick_13">
     <g id="line2d_42">
      <path d="M 717.571945 304.165187
L 717.571945 83.979375
" clip-path="url(#p2ee3193527)" style="fill: none; stroke: #d7dee8; stroke-width: 0.7; stroke-linecap: square"/>
     </g>
     <g id="line2d_43">
      <g>
       <use xlink:href="#m42d6f5617a" x="717.571945" y="304.165187" style="fill: #64748b; stroke: #64748b; stroke-width: 0.8"/>
      </g>
     </g>
     <g id="text_24">
      <!-- 8 -->
      <g style="fill: #64748b" transform="translate(713.754445 320.282375) scale(0.12 -0.12)">
       <use xlink:href="#DejaVuSans-1b"/>
      </g>
     </g>
    </g>
    <g id="xtick_14">
     <g id="line2d_44">
      <path d="M 771.262655 304.165187
L 771.262655 83.979375
" clip-path="url(#p2ee3193527)" style="fill: none; stroke: #d7dee8; stroke-width: 0.7; stroke-linecap: square"/>
     </g>
     <g id="line2d_45">
      <g>
       <use xlink:href="#m42d6f5617a" x="771.262655" y="304.165187" style="fill: #64748b; stroke: #64748b; stroke-width: 0.8"/>
      </g>
     </g>
     <g id="text_25">
      <!-- 9 -->
      <g style="fill: #64748b" transform="translate(767.445155 320.282375) scale(0.12 -0.12)">
       <use xlink:href="#DejaVuSans-1c"/>
      </g>
     </g>
    </g>
    <g id="xtick_15">
     <g id="line2d_46">
      <path d="M 824.953366 304.165187
L 824.953366 83.979375
" clip-path="url(#p2ee3193527)" style="fill: none; stroke: #d7dee8; stroke-width: 0.7; stroke-linecap: square"/>
     </g>
     <g id="line2d_47">
      <g>
       <use xlink:href="#m42d6f5617a" x="824.953366" y="304.165187" style="fill: #64748b; stroke: #64748b; stroke-width: 0.8"/>
      </g>
     </g>
     <g id="text_26">
      <!-- 10 -->
      <g style="fill: #64748b" transform="translate(817.318366 320.282375) scale(0.12 -0.12)">
       <use xlink:href="#DejaVuSans-14"/>
       <use xlink:href="#DejaVuSans-13" transform="translate(63.625 0)"/>
      </g>
     </g>
    </g>
    <g id="text_27">
     <!-- Predicho -->
     <g style="fill: #172033" transform="translate(642.653594 336.283312) scale(0.12 -0.12)">
      <use xlink:href="#DejaVuSans-33"/>
      <use xlink:href="#DejaVuSans-55" transform="translate(58.546875 0)"/>
      <use xlink:href="#DejaVuSans-48" transform="translate(97.453125 0)"/>
      <use xlink:href="#DejaVuSans-47" transform="translate(158.984375 0)"/>
      <use xlink:href="#DejaVuSans-4c" transform="translate(222.46875 0)"/>
      <use xlink:href="#DejaVuSans-46" transform="translate(250.25 0)"/>
      <use xlink:href="#DejaVuSans-4b" transform="translate(305.234375 0)"/>
      <use xlink:href="#DejaVuSans-52" transform="translate(368.609375 0)"/>
     </g>
    </g>
   </g>
   <g id="matplotlib.axis_4">
    <g id="ytick_9">
     <g id="line2d_48">
      <path d="M 487.282812 287.841328
L 849.6 287.841328
" clip-path="url(#p2ee3193527)" style="fill: none; stroke: #d7dee8; stroke-width: 0.7; stroke-linecap: square"/>
     </g>
     <g id="line2d_49">
      <g>
       <use xlink:href="#m3d94c471a4" x="487.282812" y="287.841328" style="fill: #64748b; stroke: #64748b; stroke-width: 0.8"/>
      </g>
     </g>
     <g id="text_28">
      <!-- −0.75 -->
      <g style="fill: #64748b" transform="translate(443.508437 292.399922) scale(0.12 -0.12)">
       <defs>
        <path id="DejaVuSans-c9c" d="M 678 2272
L 4684 2272
L 4684 1741
L 678 1741
L 678 2272
z
" transform="scale(0.015625)"/>
        <path id="DejaVuSans-11" d="M 684 794
L 1344 794
L 1344 0
L 684 0
L 684 794
z
" transform="scale(0.015625)"/>
       </defs>
       <use xlink:href="#DejaVuSans-c9c"/>
       <use xlink:href="#DejaVuSans-13" transform="translate(83.796875 0)"/>
       <use xlink:href="#DejaVuSans-11" transform="translate(147.421875 0)"/>
       <use xlink:href="#DejaVuSans-1a" transform="translate(179.203125 0)"/>
       <use xlink:href="#DejaVuSans-18" transform="translate(242.828125 0)"/>
      </g>
     </g>
    </g>
    <g id="ytick_10">
     <g id="line2d_50">
      <path d="M 487.282812 258.286857
L 849.6 258.286857
" clip-path="url(#p2ee3193527)" style="fill: none; stroke: #d7dee8; stroke-width: 0.7; stroke-linecap: square"/>
     </g>
     <g id="line2d_51">
      <g>
       <use xlink:href="#m3d94c471a4" x="487.282812" y="258.286857" style="fill: #64748b; stroke: #64748b; stroke-width: 0.8"/>
      </g>
     </g>
     <g id="text_29">
      <!-- −0.50 -->
      <g style="fill: #64748b" transform="translate(443.508437 262.845451) scale(0.12 -0.12)">
       <use xlink:href="#DejaVuSans-c9c"/>
       <use xlink:href="#DejaVuSans-13" transform="translate(83.796875 0)"/>
       <use xlink:href="#DejaVuSans-11" transform="translate(147.421875 0)"/>
       <use xlink:href="#DejaVuSans-18" transform="translate(179.203125 0)"/>
       <use xlink:href="#DejaVuSans-13" transform="translate(242.828125 0)"/>
      </g>
     </g>
    </g>
    <g id="ytick_11">
     <g id="line2d_52">
      <path d="M 487.282812 228.732387
L 849.6 228.732387
" clip-path="url(#p2ee3193527)" style="fill: none; stroke: #d7dee8; stroke-width: 0.7; stroke-linecap: square"/>
     </g>
     <g id="line2d_53">
      <g>
       <use xlink:href="#m3d94c471a4" x="487.282812" y="228.732387" style="fill: #64748b; stroke: #64748b; stroke-width: 0.8"/>
      </g>
     </g>
     <g id="text_30">
      <!-- −0.25 -->
      <g style="fill: #64748b" transform="translate(443.508437 233.29098) scale(0.12 -0.12)">
       <defs>
        <path id="DejaVuSans-15" d="M 1228 531
L 3431 531
L 3431 0
L 469 0
L 469 531
Q 828 903 1448 1529
Q 2069 2156 2228 2338
Q 2531 2678 2651 2914
Q 2772 3150 2772 3378
Q 2772 3750 2511 3984
Q 2250 4219 1831 4219
Q 1534 4219 1204 4116
Q 875 4013 500 3803
L 500 4441
Q 881 4594 1212 4672
Q 1544 4750 1819 4750
Q 2544 4750 2975 4387
Q 3406 4025 3406 3419
Q 3406 3131 3298 2873
Q 3191 2616 2906 2266
Q 2828 2175 2409 1742
Q 1991 1309 1228 531
z
" transform="scale(0.015625)"/>
       </defs>
       <use xlink:href="#DejaVuSans-c9c"/>
       <use xlink:href="#DejaVuSans-13" transform="translate(83.796875 0)"/>
       <use xlink:href="#DejaVuSans-11" transform="translate(147.421875 0)"/>
       <use xlink:href="#DejaVuSans-15" transform="translate(179.203125 0)"/>
       <use xlink:href="#DejaVuSans-18" transform="translate(242.828125 0)"/>
      </g>
     </g>
    </g>
    <g id="ytick_12">
     <g id="line2d_54">
      <path d="M 487.282812 199.177916
L 849.6 199.177916
" clip-path="url(#p2ee3193527)" style="fill: none; stroke: #d7dee8; stroke-width: 0.7; stroke-linecap: square"/>
     </g>
     <g id="line2d_55">
      <g>
       <use xlink:href="#m3d94c471a4" x="487.282812" y="199.177916" style="fill: #64748b; stroke: #64748b; stroke-width: 0.8"/>
      </g>
     </g>
     <g id="text_31">
      <!-- 0.00 -->
      <g style="fill: #64748b" transform="translate(453.564062 203.73651) scale(0.12 -0.12)">
       <use xlink:href="#DejaVuSans-13"/>
       <use xlink:href="#DejaVuSans-11" transform="translate(63.625 0)"/>
       <use xlink:href="#DejaVuSans-13" transform="translate(95.40625 0)"/>
       <use xlink:href="#DejaVuSans-13" transform="translate(159.03125 0)"/>
      </g>
     </g>
    </g>
    <g id="ytick_13">
     <g id="line2d_56">
      <path d="M 487.282812 169.623445
L 849.6 169.623445
" clip-path="url(#p2ee3193527)" style="fill: none; stroke: #d7dee8; stroke-width: 0.7; stroke-linecap: square"/>
     </g>
     <g id="line2d_57">
      <g>
       <use xlink:href="#m3d94c471a4" x="487.282812" y="169.623445" style="fill: #64748b; stroke: #64748b; stroke-width: 0.8"/>
      </g>
     </g>
     <g id="text_32">
      <!-- 0.25 -->
      <g style="fill: #64748b" transform="translate(453.564062 174.182039) scale(0.12 -0.12)">
       <use xlink:href="#DejaVuSans-13"/>
       <use xlink:href="#DejaVuSans-11" transform="translate(63.625 0)"/>
       <use xlink:href="#DejaVuSans-15" transform="translate(95.40625 0)"/>
       <use xlink:href="#DejaVuSans-18" transform="translate(159.03125 0)"/>
      </g>
     </g>
    </g>
    <g id="ytick_14">
     <g id="line2d_58">
      <path d="M 487.282812 140.068975
L 849.6 140.068975
" clip-path="url(#p2ee3193527)" style="fill: none; stroke: #d7dee8; stroke-width: 0.7; stroke-linecap: square"/>
     </g>
     <g id="line2d_59">
      <g>
       <use xlink:href="#m3d94c471a4" x="487.282812" y="140.068975" style="fill: #64748b; stroke: #64748b; stroke-width: 0.8"/>
      </g>
     </g>
     <g id="text_33">
      <!-- 0.50 -->
      <g style="fill: #64748b" transform="translate(453.564062 144.627568) scale(0.12 -0.12)">
       <use xlink:href="#DejaVuSans-13"/>
       <use xlink:href="#DejaVuSans-11" transform="translate(63.625 0)"/>
       <use xlink:href="#DejaVuSans-18" transform="translate(95.40625 0)"/>
       <use xlink:href="#DejaVuSans-13" transform="translate(159.03125 0)"/>
      </g>
     </g>
    </g>
    <g id="ytick_15">
     <g id="line2d_60">
      <path d="M 487.282812 110.514504
L 849.6 110.514504
" clip-path="url(#p2ee3193527)" style="fill: none; stroke: #d7dee8; stroke-width: 0.7; stroke-linecap: square"/>
     </g>
     <g id="line2d_61">
      <g>
       <use xlink:href="#m3d94c471a4" x="487.282812" y="110.514504" style="fill: #64748b; stroke: #64748b; stroke-width: 0.8"/>
      </g>
     </g>
     <g id="text_34">
      <!-- 0.75 -->
      <g style="fill: #64748b" transform="translate(453.564062 115.073098) scale(0.12 -0.12)">
       <use xlink:href="#DejaVuSans-13"/>
       <use xlink:href="#DejaVuSans-11" transform="translate(63.625 0)"/>
       <use xlink:href="#DejaVuSans-1a" transform="translate(95.40625 0)"/>
       <use xlink:href="#DejaVuSans-18" transform="translate(159.03125 0)"/>
      </g>
     </g>
    </g>
    <g id="text_35">
     <!-- Residual y - ŷ -->
     <g style="fill: #172033" transform="translate(436.625625 234.399781) rotate(-90) scale(0.12 -0.12)">
      <defs>
       <path id="DejaVuSans-35" d="M 2841 2188
Q 3044 2119 3236 1894
Q 3428 1669 3622 1275
L 4263 0
L 3584 0
L 2988 1197
Q 2756 1666 2539 1819
Q 2322 1972 1947 1972
L 1259 1972
L 1259 0
L 628 0
L 628 4666
L 2053 4666
Q 2853 4666 3247 4331
Q 3641 3997 3641 3322
Q 3641 2881 3436 2590
Q 3231 2300 2841 2188
z
M 1259 4147
L 1259 2491
L 2053 2491
Q 2509 2491 2742 2702
Q 2975 2913 2975 3322
Q 2975 3731 2742 3939
Q 2509 4147 2053 4147
L 1259 4147
z
" transform="scale(0.015625)"/>
       <path id="DejaVuSans-5c" d="M 2059 -325
Q 1816 -950 1584 -1140
Q 1353 -1331 966 -1331
L 506 -1331
L 506 -850
L 844 -850
Q 1081 -850 1212 -737
Q 1344 -625 1503 -206
L 1606 56
L 191 3500
L 800 3500
L 1894 763
L 2988 3500
L 3597 3500
L 2059 -325
z
" transform="scale(0.015625)"/>
       <path id="DejaVuSans-10" d="M 313 2009
L 1997 2009
L 1997 1497
L 313 1497
L 313 2009
z
" transform="scale(0.015625)"/>
       <path id="DejaVuSans-139" d="M 1663 5141
L 2125 5141
L 2891 3966
L 2457 3966
L 1894 4731
L 1332 3966
L 897 3966
L 1663 5141
z
M 2059 -325
Q 1816 -950 1584 -1140
Q 1353 -1331 966 -1331
L 506 -1331
L 506 -850
L 844 -850
Q 1081 -850 1212 -737
Q 1344 -625 1503 -206
L 1606 56
L 191 3500
L 800 3500
L 1894 763
L 2988 3500
L 3597 3500
L 2059 -325
z
" transform="scale(0.015625)"/>
      </defs>
      <use xlink:href="#DejaVuSans-35"/>
      <use xlink:href="#DejaVuSans-48" transform="translate(65 0)"/>
      <use xlink:href="#DejaVuSans-56" transform="translate(126.53125 0)"/>
      <use xlink:href="#DejaVuSans-4c" transform="translate(178.625 0)"/>
      <use xlink:href="#DejaVuSans-47" transform="translate(206.40625 0)"/>
      <use xlink:href="#DejaVuSans-58" transform="translate(269.890625 0)"/>
      <use xlink:href="#DejaVuSans-44" transform="translate(333.265625 0)"/>
      <use xlink:href="#DejaVuSans-4f" transform="translate(394.546875 0)"/>
      <use xlink:href="#DejaVuSans-3" transform="translate(422.328125 0)"/>
      <use xlink:href="#DejaVuSans-5c" transform="translate(454.109375 0)"/>
      <use xlink:href="#DejaVuSans-3" transform="translate(513.296875 0)"/>
      <use xlink:href="#DejaVuSans-10" transform="translate(545.078125 0)"/>
      <use xlink:href="#DejaVuSans-3" transform="translate(581.15625 0)"/>
      <use xlink:href="#DejaVuSans-139" transform="translate(612.9375 0)"/>
     </g>
    </g>
   </g>
   <g id="line2d_62">
    <path d="M 487.282812 199.177916
L 849.6 199.177916
" clip-path="url(#p2ee3193527)" style="fill: none; stroke-dasharray: 5.55,2.4; stroke-dashoffset: 0; stroke: #c2413b; stroke-width: 1.5"/>
   </g>
   <g id="patch_6">
    <path d="M 487.282812 304.165187
L 487.282812 83.979375
" style="fill: none; stroke: #d7dee8; stroke-width: 0.8; stroke-linejoin: miter; stroke-linecap: square"/>
   </g>
   <g id="patch_7">
    <path d="M 487.282812 304.165187
L 849.6 304.165187
" style="fill: none; stroke: #d7dee8; stroke-width: 0.8; stroke-linejoin: miter; stroke-linecap: square"/>
   </g>
   <g id="text_36">
    <!-- Residuos en test -->
    <g style="fill: #172033" transform="translate(608.894031 77.979375) scale(0.144 -0.144)">
     <use xlink:href="#DejaVuSans-35"/>
     <use xlink:href="#DejaVuSans-48" transform="translate(65 0)"/>
     <use xlink:href="#DejaVuSans-56" transform="translate(126.53125 0)"/>
     <use xlink:href="#DejaVuSans-4c" transform="translate(178.625 0)"/>
     <use xlink:href="#DejaVuSans-47" transform="translate(206.40625 0)"/>
     <use xlink:href="#DejaVuSans-58" transform="translate(269.890625 0)"/>
     <use xlink:href="#DejaVuSans-52" transform="translate(333.265625 0)"/>
     <use xlink:href="#DejaVuSans-56" transform="translate(394.453125 0)"/>
     <use xlink:href="#DejaVuSans-3" transform="translate(446.546875 0)"/>
     <use xlink:href="#DejaVuSans-48" transform="translate(478.328125 0)"/>
     <use xlink:href="#DejaVuSans-51" transform="translate(539.859375 0)"/>
     <use xlink:href="#DejaVuSans-3" transform="translate(603.234375 0)"/>
     <use xlink:href="#DejaVuSans-57" transform="translate(635.015625 0)"/>
     <use xlink:href="#DejaVuSans-48" transform="translate(674.21875 0)"/>
     <use xlink:href="#DejaVuSans-56" transform="translate(735.75 0)"/>
     <use xlink:href="#DejaVuSans-57" transform="translate(787.84375 0)"/>
    </g>
   </g>
  </g>
  <g id="text_37">
   <!-- Partición fija: MAE baseline 1.723; modelo 0.615 -->
   <g transform="translate(50.4 18.71775) scale(0.144 -0.144)">
    <defs>
     <path id="DejaVuSans-Bold-33" d="M 588 4666
L 2584 4666
Q 3475 4666 3951 4270
Q 4428 3875 4428 3144
Q 4428 2409 3951 2014
Q 3475 1619 2584 1619
L 1791 1619
L 1791 0
L 588 0
L 588 4666
z
M 1791 3794
L 1791 2491
L 2456 2491
Q 2806 2491 2997 2661
Q 3188 2831 3188 3144
Q 3188 3456 2997 3625
Q 2806 3794 2456 3794
L 1791 3794
z
" transform="scale(0.015625)"/>
     <path id="DejaVuSans-Bold-44" d="M 2106 1575
Q 1756 1575 1579 1456
Q 1403 1338 1403 1106
Q 1403 894 1545 773
Q 1688 653 1941 653
Q 2256 653 2472 879
Q 2688 1106 2688 1447
L 2688 1575
L 2106 1575
z
M 3816 1997
L 3816 0
L 2688 0
L 2688 519
Q 2463 200 2181 54
Q 1900 -91 1497 -91
Q 953 -91 614 226
Q 275 544 275 1050
Q 275 1666 698 1953
Q 1122 2241 2028 2241
L 2688 2241
L 2688 2328
Q 2688 2594 2478 2717
Q 2269 2841 1825 2841
Q 1466 2841 1156 2769
Q 847 2697 581 2553
L 581 3406
Q 941 3494 1303 3539
Q 1666 3584 2028 3584
Q 2975 3584 3395 3211
Q 3816 2838 3816 1997
z
" transform="scale(0.015625)"/>
     <path id="DejaVuSans-Bold-55" d="M 3138 2547
Q 2991 2616 2845 2648
Q 2700 2681 2553 2681
Q 2122 2681 1889 2404
Q 1656 2128 1656 1613
L 1656 0
L 538 0
L 538 3500
L 1656 3500
L 1656 2925
Q 1872 3269 2151 3426
Q 2431 3584 2822 3584
Q 2878 3584 2943 3579
Q 3009 3575 3134 3559
L 3138 2547
z
" transform="scale(0.015625)"/>
     <path id="DejaVuSans-Bold-57" d="M 1759 4494
L 1759 3500
L 2913 3500
L 2913 2700
L 1759 2700
L 1759 1216
Q 1759 972 1856 886
Q 1953 800 2241 800
L 2816 800
L 2816 0
L 1856 0
Q 1194 0 917 276
Q 641 553 641 1216
L 641 2700
L 84 2700
L 84 3500
L 641 3500
L 641 4494
L 1759 4494
z
" transform="scale(0.015625)"/>
     <path id="DejaVuSans-Bold-4c" d="M 538 3500
L 1656 3500
L 1656 0
L 538 0
L 538 3500
z
M 538 4863
L 1656 4863
L 1656 3950
L 538 3950
L 538 4863
z
" transform="scale(0.015625)"/>
     <path id="DejaVuSans-Bold-46" d="M 3366 3391
L 3366 2478
Q 3138 2634 2908 2709
Q 2678 2784 2431 2784
Q 1963 2784 1702 2511
Q 1441 2238 1441 1747
Q 1441 1256 1702 982
Q 1963 709 2431 709
Q 2694 709 2930 787
Q 3166 866 3366 1019
L 3366 103
Q 3103 6 2833 -42
Q 2563 -91 2291 -91
Q 1344 -91 809 395
Q 275 881 275 1747
Q 275 2613 809 3098
Q 1344 3584 2291 3584
Q 2566 3584 2833 3536
Q 3100 3488 3366 3391
z
" transform="scale(0.015625)"/>
     <path id="DejaVuSans-Bold-b5" d="M 2203 2784
Q 1831 2784 1636 2517
Q 1441 2250 1441 1747
Q 1441 1244 1636 976
Q 1831 709 2203 709
Q 2569 709 2762 976
Q 2956 1244 2956 1747
Q 2956 2250 2762 2517
Q 2569 2784 2203 2784
z
M 2203 3584
Q 3106 3584 3614 3096
Q 4122 2609 4122 1747
Q 4122 884 3614 396
Q 3106 -91 2203 -91
Q 1297 -91 786 396
Q 275 884 275 1747
Q 275 2609 786 3096
Q 1297 3584 2203 3584
z
M 2694 5119
L 3578 5119
L 2425 3944
L 1813 3944
L 2694 5119
z
" transform="scale(0.015625)"/>
     <path id="DejaVuSans-Bold-51" d="M 4056 2131
L 4056 0
L 2931 0
L 2931 347
L 2931 1631
Q 2931 2084 2911 2256
Q 2891 2428 2841 2509
Q 2775 2619 2662 2680
Q 2550 2741 2406 2741
Q 2056 2741 1856 2470
Q 1656 2200 1656 1722
L 1656 0
L 538 0
L 538 3500
L 1656 3500
L 1656 2988
Q 1909 3294 2193 3439
Q 2478 3584 2822 3584
Q 3428 3584 3742 3212
Q 4056 2841 4056 2131
z
" transform="scale(0.015625)"/>
     <path id="DejaVuSans-Bold-3" transform="scale(0.015625)"/>
     <path id="DejaVuSans-Bold-13ab" d="M 3078 4863
L 4206 4863
L 4206 3950
L 3078 3950
L 3078 4863
z
M 2847 4863
L 2847 4128
L 2228 4128
Q 1994 4128 1903 4042
Q 1813 3956 1813 3744
L 1813 3500
L 4206 3500
L 4206 0
L 3078 0
L 3078 2700
L 1813 2700
L 1813 0
L 684 0
L 684 2700
L 134 2700
L 134 3500
L 684 3500
L 684 3744
Q 684 4316 1003 4589
Q 1322 4863 1991 4863
L 2847 4863
z
" transform="scale(0.015625)"/>
     <path id="DejaVuSans-Bold-4d" d="M 538 3500
L 1656 3500
L 1656 63
Q 1656 -641 1318 -1011
Q 981 -1381 341 -1381
L -213 -1381
L -213 -647
L -19 -647
Q 300 -647 419 -503
Q 538 -359 538 63
L 538 3500
z
M 538 4863
L 1656 4863
L 1656 3950
L 538 3950
L 538 4863
z
" transform="scale(0.015625)"/>
     <path id="DejaVuSans-Bold-1d" d="M 716 3500
L 1844 3500
L 1844 2291
L 716 2291
L 716 3500
z
M 716 1209
L 1844 1209
L 1844 0
L 716 0
L 716 1209
z
" transform="scale(0.015625)"/>
     <path id="DejaVuSans-Bold-30" d="M 588 4666
L 2119 4666
L 3181 2169
L 4250 4666
L 5778 4666
L 5778 0
L 4641 0
L 4641 3413
L 3566 897
L 2803 897
L 1728 3413
L 1728 0
L 588 0
L 588 4666
z
" transform="scale(0.015625)"/>
     <path id="DejaVuSans-Bold-24" d="M 3419 850
L 1538 850
L 1241 0
L 31 0
L 1759 4666
L 3194 4666
L 4922 0
L 3713 0
L 3419 850
z
M 1838 1716
L 3116 1716
L 2478 3572
L 1838 1716
z
" transform="scale(0.015625)"/>
     <path id="DejaVuSans-Bold-28" d="M 588 4666
L 3834 4666
L 3834 3756
L 1791 3756
L 1791 2888
L 3713 2888
L 3713 1978
L 1791 1978
L 1791 909
L 3903 909
L 3903 0
L 588 0
L 588 4666
z
" transform="scale(0.015625)"/>
     <path id="DejaVuSans-Bold-45" d="M 2400 722
Q 2759 722 2948 984
Q 3138 1247 3138 1747
Q 3138 2247 2948 2509
Q 2759 2772 2400 2772
Q 2041 2772 1848 2508
Q 1656 2244 1656 1747
Q 1656 1250 1848 986
Q 2041 722 2400 722
z
M 1656 2988
Q 1888 3294 2169 3439
Q 2450 3584 2816 3584
Q 3463 3584 3878 3070
Q 4294 2556 4294 1747
Q 4294 938 3878 423
Q 3463 -91 2816 -91
Q 2450 -91 2169 54
Q 1888 200 1656 506
L 1656 0
L 538 0
L 538 4863
L 1656 4863
L 1656 2988
z
" transform="scale(0.015625)"/>
     <path id="DejaVuSans-Bold-56" d="M 3272 3391
L 3272 2541
Q 2913 2691 2578 2766
Q 2244 2841 1947 2841
Q 1628 2841 1473 2761
Q 1319 2681 1319 2516
Q 1319 2381 1436 2309
Q 1553 2238 1856 2203
L 2053 2175
Q 2913 2066 3209 1816
Q 3506 1566 3506 1031
Q 3506 472 3093 190
Q 2681 -91 1863 -91
Q 1516 -91 1145 -36
Q 775 19 384 128
L 384 978
Q 719 816 1070 734
Q 1422 653 1784 653
Q 2113 653 2278 743
Q 2444 834 2444 1013
Q 2444 1163 2330 1236
Q 2216 1309 1875 1350
L 1678 1375
Q 931 1469 631 1722
Q 331 1975 331 2491
Q 331 3047 712 3315
Q 1094 3584 1881 3584
Q 2191 3584 2531 3537
Q 2872 3491 3272 3391
z
" transform="scale(0.015625)"/>
     <path id="DejaVuSans-Bold-48" d="M 4031 1759
L 4031 1441
L 1416 1441
Q 1456 1047 1700 850
Q 1944 653 2381 653
Q 2734 653 3104 758
Q 3475 863 3866 1075
L 3866 213
Q 3469 63 3072 -14
Q 2675 -91 2278 -91
Q 1328 -91 801 392
Q 275 875 275 1747
Q 275 2603 792 3093
Q 1309 3584 2216 3584
Q 3041 3584 3536 3087
Q 4031 2591 4031 1759
z
M 2881 2131
Q 2881 2450 2695 2645
Q 2509 2841 2209 2841
Q 1884 2841 1681 2658
Q 1478 2475 1428 2131
L 2881 2131
z
" transform="scale(0.015625)"/>
     <path id="DejaVuSans-Bold-4f" d="M 538 4863
L 1656 4863
L 1656 0
L 538 0
L 538 4863
z
" transform="scale(0.015625)"/>
     <path id="DejaVuSans-Bold-14" d="M 750 831
L 1813 831
L 1813 3847
L 722 3622
L 722 4441
L 1806 4666
L 2950 4666
L 2950 831
L 4013 831
L 4013 0
L 750 0
L 750 831
z
" transform="scale(0.015625)"/>
     <path id="DejaVuSans-Bold-11" d="M 653 1209
L 1778 1209
L 1778 0
L 653 0
L 653 1209
z
" transform="scale(0.015625)"/>
     <path id="DejaVuSans-Bold-1a" d="M 428 4666
L 3944 4666
L 3944 3988
L 2125 0
L 953 0
L 2675 3781
L 428 3781
L 428 4666
z
" transform="scale(0.015625)"/>
     <path id="DejaVuSans-Bold-15" d="M 1844 884
L 3897 884
L 3897 0
L 506 0
L 506 884
L 2209 2388
Q 2438 2594 2547 2791
Q 2656 2988 2656 3200
Q 2656 3528 2436 3728
Q 2216 3928 1850 3928
Q 1569 3928 1234 3808
Q 900 3688 519 3450
L 519 4475
Q 925 4609 1322 4679
Q 1719 4750 2100 4750
Q 2938 4750 3402 4381
Q 3866 4013 3866 3353
Q 3866 2972 3669 2642
Q 3472 2313 2841 1759
L 1844 884
z
" transform="scale(0.015625)"/>
     <path id="DejaVuSans-Bold-16" d="M 2981 2516
Q 3453 2394 3698 2092
Q 3944 1791 3944 1325
Q 3944 631 3412 270
Q 2881 -91 1863 -91
Q 1503 -91 1142 -33
Q 781 25 428 141
L 428 1069
Q 766 900 1098 814
Q 1431 728 1753 728
Q 2231 728 2486 893
Q 2741 1059 2741 1369
Q 2741 1688 2480 1852
Q 2219 2016 1709 2016
L 1228 2016
L 1228 2791
L 1734 2791
Q 2188 2791 2409 2933
Q 2631 3075 2631 3366
Q 2631 3634 2415 3781
Q 2200 3928 1806 3928
Q 1516 3928 1219 3862
Q 922 3797 628 3669
L 628 4550
Q 984 4650 1334 4700
Q 1684 4750 2022 4750
Q 2931 4750 3382 4451
Q 3834 4153 3834 3553
Q 3834 3144 3618 2883
Q 3403 2622 2981 2516
z
" transform="scale(0.015625)"/>
     <path id="DejaVuSans-Bold-1e" d="M 716 1209
L 1844 1209
L 1844 256
L 1069 -909
L 403 -909
L 716 256
L 716 1209
z
M 716 3500
L 1844 3500
L 1844 2291
L 716 2291
L 716 3500
z
" transform="scale(0.015625)"/>
     <path id="DejaVuSans-Bold-50" d="M 3781 2919
Q 3994 3244 4286 3414
Q 4578 3584 4928 3584
Q 5531 3584 5847 3212
Q 6163 2841 6163 2131
L 6163 0
L 5038 0
L 5038 1825
Q 5041 1866 5042 1909
Q 5044 1953 5044 2034
Q 5044 2406 4934 2573
Q 4825 2741 4581 2741
Q 4263 2741 4089 2478
Q 3916 2216 3909 1719
L 3909 0
L 2784 0
L 2784 1825
Q 2784 2406 2684 2573
Q 2584 2741 2328 2741
Q 2006 2741 1831 2477
Q 1656 2213 1656 1722
L 1656 0
L 531 0
L 531 3500
L 1656 3500
L 1656 2988
Q 1863 3284 2130 3434
Q 2397 3584 2719 3584
Q 3081 3584 3359 3409
Q 3638 3234 3781 2919
z
" transform="scale(0.015625)"/>
     <path id="DejaVuSans-Bold-52" d="M 2203 2784
Q 1831 2784 1636 2517
Q 1441 2250 1441 1747
Q 1441 1244 1636 976
Q 1831 709 2203 709
Q 2569 709 2762 976
Q 2956 1244 2956 1747
Q 2956 2250 2762 2517
Q 2569 2784 2203 2784
z
M 2203 3584
Q 3106 3584 3614 3096
Q 4122 2609 4122 1747
Q 4122 884 3614 396
Q 3106 -91 2203 -91
Q 1297 -91 786 396
Q 275 884 275 1747
Q 275 2609 786 3096
Q 1297 3584 2203 3584
z
" transform="scale(0.015625)"/>
     <path id="DejaVuSans-Bold-47" d="M 2919 2988
L 2919 4863
L 4044 4863
L 4044 0
L 2919 0
L 2919 506
Q 2688 197 2409 53
Q 2131 -91 1766 -91
Q 1119 -91 703 423
Q 288 938 288 1747
Q 288 2556 703 3070
Q 1119 3584 1766 3584
Q 2128 3584 2408 3439
Q 2688 3294 2919 2988
z
M 2181 722
Q 2541 722 2730 984
Q 2919 1247 2919 1747
Q 2919 2247 2730 2509
Q 2541 2772 2181 2772
Q 1825 2772 1636 2509
Q 1447 2247 1447 1747
Q 1447 1247 1636 984
Q 1825 722 2181 722
z
" transform="scale(0.015625)"/>
     <path id="DejaVuSans-Bold-13" d="M 2944 2338
Q 2944 3213 2780 3570
Q 2616 3928 2228 3928
Q 1841 3928 1675 3570
Q 1509 3213 1509 2338
Q 1509 1453 1675 1090
Q 1841 728 2228 728
Q 2613 728 2778 1090
Q 2944 1453 2944 2338
z
M 4147 2328
Q 4147 1169 3647 539
Q 3147 -91 2228 -91
Q 1306 -91 806 539
Q 306 1169 306 2328
Q 306 3491 806 4120
Q 1306 4750 2228 4750
Q 3147 4750 3647 4120
Q 4147 3491 4147 2328
z
" transform="scale(0.015625)"/>
     <path id="DejaVuSans-Bold-19" d="M 2316 2303
Q 2000 2303 1842 2098
Q 1684 1894 1684 1484
Q 1684 1075 1842 870
Q 2000 666 2316 666
Q 2634 666 2792 870
Q 2950 1075 2950 1484
Q 2950 1894 2792 2098
Q 2634 2303 2316 2303
z
M 3803 4544
L 3803 3681
Q 3506 3822 3243 3889
Q 2981 3956 2731 3956
Q 2194 3956 1894 3657
Q 1594 3359 1544 2772
Q 1750 2925 1990 3001
Q 2231 3078 2516 3078
Q 3231 3078 3670 2659
Q 4109 2241 4109 1563
Q 4109 813 3618 361
Q 3128 -91 2303 -91
Q 1394 -91 895 523
Q 397 1138 397 2266
Q 397 3422 980 4083
Q 1563 4744 2578 4744
Q 2900 4744 3203 4694
Q 3506 4644 3803 4544
z
" transform="scale(0.015625)"/>
     <path id="DejaVuSans-Bold-18" d="M 678 4666
L 3669 4666
L 3669 3781
L 1638 3781
L 1638 3059
Q 1775 3097 1914 3117
Q 2053 3138 2203 3138
Q 3056 3138 3531 2711
Q 4006 2284 4006 1522
Q 4006 766 3489 337
Q 2972 -91 2053 -91
Q 1656 -91 1267 -14
Q 878 63 494 219
L 494 1166
Q 875 947 1217 837
Q 1559 728 1863 728
Q 2300 728 2551 942
Q 2803 1156 2803 1522
Q 2803 1891 2551 2103
Q 2300 2316 1863 2316
Q 1603 2316 1309 2248
Q 1016 2181 678 2041
L 678 4666
z
" transform="scale(0.015625)"/>
    </defs>
    <use xlink:href="#DejaVuSans-Bold-33"/>
    <use xlink:href="#DejaVuSans-Bold-44" transform="translate(70.609375 0)"/>
    <use xlink:href="#DejaVuSans-Bold-55" transform="translate(138.09375 0)"/>
    <use xlink:href="#DejaVuSans-Bold-57" transform="translate(187.40625 0)"/>
    <use xlink:href="#DejaVuSans-Bold-4c" transform="translate(235.203125 0)"/>
    <use xlink:href="#DejaVuSans-Bold-46" transform="translate(269.484375 0)"/>
    <use xlink:href="#DejaVuSans-Bold-4c" transform="translate(328.765625 0)"/>
    <use xlink:href="#DejaVuSans-Bold-b5" transform="translate(363.046875 0)"/>
    <use xlink:href="#DejaVuSans-Bold-51" transform="translate(431.75 0)"/>
    <use xlink:href="#DejaVuSans-Bold-3" transform="translate(502.9375 0)"/>
    <use xlink:href="#DejaVuSans-Bold-13ab" transform="translate(537.75 0)"/>
    <use xlink:href="#DejaVuSans-Bold-4d" transform="translate(611.875 0)"/>
    <use xlink:href="#DejaVuSans-Bold-44" transform="translate(646.15625 0)"/>
    <use xlink:href="#DejaVuSans-Bold-1d" transform="translate(713.640625 0)"/>
    <use xlink:href="#DejaVuSans-Bold-3" transform="translate(753.625 0)"/>
    <use xlink:href="#DejaVuSans-Bold-30" transform="translate(788.4375 0)"/>
    <use xlink:href="#DejaVuSans-Bold-24" transform="translate(887.953125 0)"/>
    <use xlink:href="#DejaVuSans-Bold-28" transform="translate(965.34375 0)"/>
    <use xlink:href="#DejaVuSans-Bold-3" transform="translate(1033.65625 0)"/>
    <use xlink:href="#DejaVuSans-Bold-45" transform="translate(1068.46875 0)"/>
    <use xlink:href="#DejaVuSans-Bold-44" transform="translate(1140.046875 0)"/>
    <use xlink:href="#DejaVuSans-Bold-56" transform="translate(1207.53125 0)"/>
    <use xlink:href="#DejaVuSans-Bold-48" transform="translate(1267.046875 0)"/>
    <use xlink:href="#DejaVuSans-Bold-4f" transform="translate(1334.875 0)"/>
    <use xlink:href="#DejaVuSans-Bold-4c" transform="translate(1369.15625 0)"/>
    <use xlink:href="#DejaVuSans-Bold-51" transform="translate(1403.4375 0)"/>
    <use xlink:href="#DejaVuSans-Bold-48" transform="translate(1474.625 0)"/>
    <use xlink:href="#DejaVuSans-Bold-3" transform="translate(1542.453125 0)"/>
    <use xlink:href="#DejaVuSans-Bold-14" transform="translate(1577.265625 0)"/>
    <use xlink:href="#DejaVuSans-Bold-11" transform="translate(1646.84375 0)"/>
    <use xlink:href="#DejaVuSans-Bold-1a" transform="translate(1684.828125 0)"/>
    <use xlink:href="#DejaVuSans-Bold-15" transform="translate(1754.40625 0)"/>
    <use xlink:href="#DejaVuSans-Bold-16" transform="translate(1823.984375 0)"/>
    <use xlink:href="#DejaVuSans-Bold-1e" transform="translate(1893.5625 0)"/>
    <use xlink:href="#DejaVuSans-Bold-3" transform="translate(1933.546875 0)"/>
    <use xlink:href="#DejaVuSans-Bold-50" transform="translate(1968.359375 0)"/>
    <use xlink:href="#DejaVuSans-Bold-52" transform="translate(2072.5625 0)"/>
    <use xlink:href="#DejaVuSans-Bold-47" transform="translate(2141.265625 0)"/>
    <use xlink:href="#DejaVuSans-Bold-48" transform="translate(2212.84375 0)"/>
    <use xlink:href="#DejaVuSans-Bold-4f" transform="translate(2280.671875 0)"/>
    <use xlink:href="#DejaVuSans-Bold-52" transform="translate(2314.953125 0)"/>
    <use xlink:href="#DejaVuSans-Bold-3" transform="translate(2383.65625 0)"/>
    <use xlink:href="#DejaVuSans-Bold-13" transform="translate(2418.46875 0)"/>
    <use xlink:href="#DejaVuSans-Bold-11" transform="translate(2488.046875 0)"/>
    <use xlink:href="#DejaVuSans-Bold-19" transform="translate(2526.03125 0)"/>
    <use xlink:href="#DejaVuSans-Bold-14" transform="translate(2595.609375 0)"/>
    <use xlink:href="#DejaVuSans-Bold-18" transform="translate(2665.1875 0)"/>
   </g>
  </g>
  <g id="text_38">
   <!-- Ejemplo docente con 32 filas agregadas; no constituye validación operativa. -->
   <g style="fill: #64748b" transform="translate(7.2 363.384) scale(0.08 -0.08)">
    <defs>
     <path id="DejaVuSans-28" d="M 628 4666
L 3578 4666
L 3578 4134
L 1259 4134
L 1259 2753
L 3481 2753
L 3481 2222
L 1259 2222
L 1259 531
L 3634 531
L 3634 0
L 628 0
L 628 4666
z
" transform="scale(0.015625)"/>
     <path id="DejaVuSans-50" d="M 3328 2828
Q 3544 3216 3844 3400
Q 4144 3584 4550 3584
Q 5097 3584 5394 3201
Q 5691 2819 5691 2113
L 5691 0
L 5113 0
L 5113 2094
Q 5113 2597 4934 2840
Q 4756 3084 4391 3084
Q 3944 3084 3684 2787
Q 3425 2491 3425 1978
L 3425 0
L 2847 0
L 2847 2094
Q 2847 2600 2669 2842
Q 2491 3084 2119 3084
Q 1678 3084 1418 2786
Q 1159 2488 1159 1978
L 1159 0
L 581 0
L 581 3500
L 1159 3500
L 1159 2956
Q 1356 3278 1631 3431
Q 1906 3584 2284 3584
Q 2666 3584 2933 3390
Q 3200 3197 3328 2828
z
" transform="scale(0.015625)"/>
     <path id="DejaVuSans-53" d="M 1159 525
L 1159 -1331
L 581 -1331
L 581 3500
L 1159 3500
L 1159 2969
Q 1341 3281 1617 3432
Q 1894 3584 2278 3584
Q 2916 3584 3314 3078
Q 3713 2572 3713 1747
Q 3713 922 3314 415
Q 2916 -91 2278 -91
Q 1894 -91 1617 61
Q 1341 213 1159 525
z
M 3116 1747
Q 3116 2381 2855 2742
Q 2594 3103 2138 3103
Q 1681 3103 1420 2742
Q 1159 2381 1159 1747
Q 1159 1113 1420 752
Q 1681 391 2138 391
Q 2594 391 2855 752
Q 3116 1113 3116 1747
z
" transform="scale(0.015625)"/>
     <path id="DejaVuSans-16" d="M 2597 2516
Q 3050 2419 3304 2112
Q 3559 1806 3559 1356
Q 3559 666 3084 287
Q 2609 -91 1734 -91
Q 1441 -91 1130 -33
Q 819 25 488 141
L 488 750
Q 750 597 1062 519
Q 1375 441 1716 441
Q 2309 441 2620 675
Q 2931 909 2931 1356
Q 2931 1769 2642 2001
Q 2353 2234 1838 2234
L 1294 2234
L 1294 2753
L 1863 2753
Q 2328 2753 2575 2939
Q 2822 3125 2822 3475
Q 2822 3834 2567 4026
Q 2313 4219 1838 4219
Q 1578 4219 1281 4162
Q 984 4106 628 3988
L 628 4550
Q 988 4650 1302 4700
Q 1616 4750 1894 4750
Q 2613 4750 3031 4423
Q 3450 4097 3450 3541
Q 3450 3153 3228 2886
Q 3006 2619 2597 2516
z
" transform="scale(0.015625)"/>
     <path id="DejaVuSans-13af" d="M 3431 3500
L 3431 0
L 2853 0
L 2853 3053
L 1275 3053
L 1275 0
L 697 0
L 697 3053
L 147 3053
L 147 3500
L 697 3500
L 697 3744
Q 697 4316 967 4589
Q 1238 4863 1797 4863
L 2375 4863
L 2375 4384
L 1825 4384
Q 1516 4384 1395 4259
Q 1275 4134 1275 3809
L 1275 3500
L 3431 3500
z
M 2853 4856
L 3431 4856
L 3431 4128
L 2853 4128
L 2853 4856
z
" transform="scale(0.015625)"/>
     <path id="DejaVuSans-4a" d="M 2906 1791
Q 2906 2416 2648 2759
Q 2391 3103 1925 3103
Q 1463 3103 1205 2759
Q 947 2416 947 1791
Q 947 1169 1205 825
Q 1463 481 1925 481
Q 2391 481 2648 825
Q 2906 1169 2906 1791
z
M 3481 434
Q 3481 -459 3084 -895
Q 2688 -1331 1869 -1331
Q 1566 -1331 1297 -1286
Q 1028 -1241 775 -1147
L 775 -588
Q 1028 -725 1275 -790
Q 1522 -856 1778 -856
Q 2344 -856 2625 -561
Q 2906 -266 2906 331
L 2906 616
Q 2728 306 2450 153
Q 2172 0 1784 0
Q 1141 0 747 490
Q 353 981 353 1791
Q 353 2603 747 3093
Q 1141 3584 1784 3584
Q 2172 3584 2450 3431
Q 2728 3278 2906 2969
L 2906 3500
L 3481 3500
L 3481 434
z
" transform="scale(0.015625)"/>
     <path id="DejaVuSans-1e" d="M 750 3309
L 1409 3309
L 1409 2516
L 750 2516
L 750 3309
z
M 750 794
L 1409 794
L 1409 256
L 897 -744
L 494 -744
L 750 256
L 750 794
z
" transform="scale(0.015625)"/>
    </defs>
    <use xlink:href="#DejaVuSans-28"/>
    <use xlink:href="#DejaVuSans-4d" transform="translate(63.1875 0)"/>
    <use xlink:href="#DejaVuSans-48" transform="translate(90.96875 0)"/>
    <use xlink:href="#DejaVuSans-50" transform="translate(152.5 0)"/>
    <use xlink:href="#DejaVuSans-53" transform="translate(249.90625 0)"/>
    <use xlink:href="#DejaVuSans-4f" transform="translate(313.390625 0)"/>
    <use xlink:href="#DejaVuSans-52" transform="translate(341.171875 0)"/>
    <use xlink:href="#DejaVuSans-3" transform="translate(402.359375 0)"/>
    <use xlink:href="#DejaVuSans-47" transform="translate(434.140625 0)"/>
    <use xlink:href="#DejaVuSans-52" transform="translate(497.625 0)"/>
    <use xlink:href="#DejaVuSans-46" transform="translate(558.8125 0)"/>
    <use xlink:href="#DejaVuSans-48" transform="translate(613.796875 0)"/>
    <use xlink:href="#DejaVuSans-51" transform="translate(675.328125 0)"/>
    <use xlink:href="#DejaVuSans-57" transform="translate(738.703125 0)"/>
    <use xlink:href="#DejaVuSans-48" transform="translate(777.90625 0)"/>
    <use xlink:href="#DejaVuSans-3" transform="translate(839.4375 0)"/>
    <use xlink:href="#DejaVuSans-46" transform="translate(871.21875 0)"/>
    <use xlink:href="#DejaVuSans-52" transform="translate(926.203125 0)"/>
    <use xlink:href="#DejaVuSans-51" transform="translate(987.390625 0)"/>
    <use xlink:href="#DejaVuSans-3" transform="translate(1050.765625 0)"/>
    <use xlink:href="#DejaVuSans-16" transform="translate(1082.546875 0)"/>
    <use xlink:href="#DejaVuSans-15" transform="translate(1146.171875 0)"/>
    <use xlink:href="#DejaVuSans-3" transform="translate(1209.796875 0)"/>
    <use xlink:href="#DejaVuSans-13af" transform="translate(1241.578125 0)"/>
    <use xlink:href="#DejaVuSans-4f" transform="translate(1304.5625 0)"/>
    <use xlink:href="#DejaVuSans-44" transform="translate(1332.34375 0)"/>
    <use xlink:href="#DejaVuSans-56" transform="translate(1393.625 0)"/>
    <use xlink:href="#DejaVuSans-3" transform="translate(1445.71875 0)"/>
    <use xlink:href="#DejaVuSans-44" transform="translate(1477.5 0)"/>
    <use xlink:href="#DejaVuSans-4a" transform="translate(1538.78125 0)"/>
    <use xlink:href="#DejaVuSans-55" transform="translate(1602.265625 0)"/>
    <use xlink:href="#DejaVuSans-48" transform="translate(1641.171875 0)"/>
    <use xlink:href="#DejaVuSans-4a" transform="translate(1702.703125 0)"/>
    <use xlink:href="#DejaVuSans-44" transform="translate(1766.1875 0)"/>
    <use xlink:href="#DejaVuSans-47" transform="translate(1827.46875 0)"/>
    <use xlink:href="#DejaVuSans-44" transform="translate(1890.953125 0)"/>
    <use xlink:href="#DejaVuSans-56" transform="translate(1952.234375 0)"/>
    <use xlink:href="#DejaVuSans-1e" transform="translate(2004.328125 0)"/>
    <use xlink:href="#DejaVuSans-3" transform="translate(2038.015625 0)"/>
    <use xlink:href="#DejaVuSans-51" transform="translate(2069.796875 0)"/>
    <use xlink:href="#DejaVuSans-52" transform="translate(2133.171875 0)"/>
    <use xlink:href="#DejaVuSans-3" transform="translate(2194.359375 0)"/>
    <use xlink:href="#DejaVuSans-46" transform="translate(2226.140625 0)"/>
    <use xlink:href="#DejaVuSans-52" transform="translate(2281.125 0)"/>
    <use xlink:href="#DejaVuSans-51" transform="translate(2342.3125 0)"/>
    <use xlink:href="#DejaVuSans-56" transform="translate(2405.6875 0)"/>
    <use xlink:href="#DejaVuSans-57" transform="translate(2457.78125 0)"/>
    <use xlink:href="#DejaVuSans-4c" transform="translate(2496.984375 0)"/>
    <use xlink:href="#DejaVuSans-57" transform="translate(2524.765625 0)"/>
    <use xlink:href="#DejaVuSans-58" transform="translate(2563.96875 0)"/>
    <use xlink:href="#DejaVuSans-5c" transform="translate(2627.34375 0)"/>
    <use xlink:href="#DejaVuSans-48" transform="translate(2686.53125 0)"/>
    <use xlink:href="#DejaVuSans-3" transform="translate(2748.0625 0)"/>
    <use xlink:href="#DejaVuSans-59" transform="translate(2779.84375 0)"/>
    <use xlink:href="#DejaVuSans-44" transform="translate(2839.03125 0)"/>
    <use xlink:href="#DejaVuSans-4f" transform="translate(2900.3125 0)"/>
    <use xlink:href="#DejaVuSans-4c" transform="translate(2928.09375 0)"/>
    <use xlink:href="#DejaVuSans-47" transform="translate(2955.875 0)"/>
    <use xlink:href="#DejaVuSans-44" transform="translate(3019.359375 0)"/>
    <use xlink:href="#DejaVuSans-46" transform="translate(3080.640625 0)"/>
    <use xlink:href="#DejaVuSans-4c" transform="translate(3135.625 0)"/>
    <use xlink:href="#DejaVuSans-b5" transform="translate(3163.40625 0)"/>
    <use xlink:href="#DejaVuSans-51" transform="translate(3224.59375 0)"/>
    <use xlink:href="#DejaVuSans-3" transform="translate(3287.96875 0)"/>
    <use xlink:href="#DejaVuSans-52" transform="translate(3319.75 0)"/>
    <use xlink:href="#DejaVuSans-53" transform="translate(3380.9375 0)"/>
    <use xlink:href="#DejaVuSans-48" transform="translate(3444.421875 0)"/>
    <use xlink:href="#DejaVuSans-55" transform="translate(3505.953125 0)"/>
    <use xlink:href="#DejaVuSans-44" transform="translate(3547.0625 0)"/>
    <use xlink:href="#DejaVuSans-57" transform="translate(3608.34375 0)"/>
    <use xlink:href="#DejaVuSans-4c" transform="translate(3647.546875 0)"/>
    <use xlink:href="#DejaVuSans-59" transform="translate(3675.328125 0)"/>
    <use xlink:href="#DejaVuSans-44" transform="translate(3734.515625 0)"/>
    <use xlink:href="#DejaVuSans-11" transform="translate(3795.796875 0)"/>
   </g>
  </g>
 </g>
 <defs>
  <clipPath id="p677609e1b5">
   <rect x="50.602812" y="83.979375" width="362.317187" height="220.185812"/>
  </clipPath>
  <clipPath id="p2ee3193527">
   <rect x="487.282812" y="83.979375" width="362.317187" height="220.185812"/>
  </clipPath>
 </defs>
</svg>
