<svg xmlns="http://www.w3.org/2000/svg" width="1200" height="720" viewBox="0 0 1200 720" role="img" aria-labelledby="title desc">
  <title id="title">Estructura de una comunicación técnica verificable</title>
  <desc id="desc">Diagrama de un reporte técnico con tesis, resultados, diagnóstico, recomendación y límites; cada bloque se conecta con una pregunta de revisión.</desc>
  <rect width="1200" height="720" fill="#f8fafc"/>
  <text x="70" y="74" font-family="Arial, sans-serif" font-size="34" font-weight="700" fill="#172033">Comunicación técnica: de resultados a recomendación</text>
  <text x="70" y="114" font-family="Arial, sans-serif" font-size="20" fill="#475569">Un reporte no narra todo lo que se hizo: conecta una conclusión con resultados y límites.</text>

  <g transform="translate(105 165)" font-family="Arial, sans-serif">
    <rect x="0" y="0" width="990" height="92" rx="18" fill="#1d4ed8"/>
    <text x="36" y="58" font-size="28" font-weight="700" fill="#ffffff">Tesis técnica</text>
    <text x="280" y="58" font-size="20" fill="#dbeafe">qué se recomienda, con qué resultado y bajo qué cautela</text>

    <g transform="translate(0 135)">
      <rect x="0" y="0" width="220" height="185" rx="16" fill="#ffffff" stroke="#cbd5e1" stroke-width="2"/>
      <text x="26" y="44" font-size="22" font-weight="700" fill="#172033">Resultados</text>
      <text x="26" y="82" font-size="17" fill="#475569">baseline</text>
      <text x="26" y="112" font-size="17" fill="#475569">métrica</text>
      <text x="26" y="142" font-size="17" fill="#475569">validación</text>
    </g>
    <g transform="translate(256 135)">
      <rect x="0" y="0" width="220" height="185" rx="16" fill="#ffffff" stroke="#cbd5e1" stroke-width="2"/>
      <text x="26" y="44" font-size="22" font-weight="700" fill="#172033">Diagnóstico</text>
      <text x="26" y="82" font-size="17" fill="#475569">error principal</text>
      <text x="26" y="112" font-size="17" fill="#475569">slice crítico</text>
      <text x="26" y="142" font-size="17" fill="#475569">causa probable</text>
    </g>
    <g transform="translate(512 135)">
      <rect x="0" y="0" width="220" height="185" rx="16" fill="#ffffff" stroke="#cbd5e1" stroke-width="2"/>
      <text x="26" y="44" font-size="22" font-weight="700" fill="#172033">Recomendación</text>
      <text x="26" y="82" font-size="17" fill="#475569">acción proporcional</text>
      <text x="26" y="112" font-size="17" fill="#475569">siguiente experimento</text>
      <text x="26" y="142" font-size="17" fill="#475569">criterio de éxito</text>
    </g>
    <g transform="translate(768 135)">
      <rect x="0" y="0" width="220" height="185" rx="16" fill="#ffffff" stroke="#cbd5e1" stroke-width="2"/>
      <text x="26" y="44" font-size="22" font-weight="700" fill="#172033">Límites</text>
      <text x="26" y="82" font-size="17" fill="#475569">datos disponibles</text>
      <text x="26" y="112" font-size="17" fill="#475569">riesgo de sesgo</text>
      <text x="26" y="142" font-size="17" fill="#475569">qué no concluye</text>
    </g>

    <rect x="95" y="395" width="800" height="82" rx="14" fill="#ecfeff" stroke="#67e8f9"/>
    <text x="130" y="430" font-size="19" fill="#0f172a">Prueba de lectura: una persona externa debe poder cuestionar cada afirmación</text>
    <text x="130" y="458" font-size="19" fill="#0f172a">con una tabla, figura o cálculo.</text>
  </g>
</svg>
