<svg xmlns="http://www.w3.org/2000/svg" width="980" height="360" viewBox="0 0 980 360" role="img" aria-labelledby="title desc">
  <title id="title">Reproducibilidad y manifiesto de corrida</title>
  <desc id="desc">Un experimento reproducible registra datos, codigo, ambiente y parametros, y produce metricas, artefactos y un manifiesto verificable.</desc>
  <defs>
    <marker id="arrow" markerWidth="10" markerHeight="10" refX="8" refY="3" orient="auto">
      <path d="M0,0 L0,6 L9,3 z" fill="#17324d"/>
    </marker>
  </defs>
  <rect width="980" height="360" fill="#ffffff"/>
  <text x="64" y="40" fill="#17324d" font-family="Arial, sans-serif" font-size="26" font-weight="700">Reproducibilidad: que otra persona pueda rehacer la evidencia</text>

  <g transform="translate(64,86)">
    <rect x="0" y="0" width="135" height="58" rx="10" fill="#e0f2fe" stroke="#2563eb"/>
    <text x="44" y="36" fill="#17324d" font-family="Arial, sans-serif" font-size="19" font-weight="700">datos</text>
    <rect x="0" y="78" width="135" height="58" rx="10" fill="#dcfce7" stroke="#166534"/>
    <text x="42" y="114" fill="#17324d" font-family="Arial, sans-serif" font-size="19" font-weight="700">codigo</text>
    <rect x="0" y="156" width="135" height="58" rx="10" fill="#fef3c7" stroke="#b45309"/>
    <text x="29" y="192" fill="#17324d" font-family="Arial, sans-serif" font-size="19" font-weight="700">ambiente</text>
  </g>

  <g transform="translate(255,72)">
    <rect x="0" y="0" width="160" height="82" rx="12" fill="#f8fafc" stroke="#d5dee8"/>
    <text x="32" y="35" fill="#17324d" font-family="Arial, sans-serif" font-size="20" font-weight="700">parametros</text>
    <text x="30" y="62" fill="#475569" font-family="Arial, sans-serif" font-size="17">semilla, lambda</text>
  </g>

  <path d="M218 177 L448 177" stroke="#17324d" stroke-width="4" marker-end="url(#arrow)"/>

  <g transform="translate(472,105)">
    <rect x="0" y="0" width="150" height="112" rx="16" fill="#eef6fb" stroke="#17324d" stroke-width="2"/>
    <text x="33" y="45" fill="#17324d" font-family="Arial, sans-serif" font-size="22" font-weight="700">corrida</text>
    <text x="29" y="75" fill="#475569" font-family="Arial, sans-serif" font-size="18">notebook/script</text>
  </g>

  <path d="M640 177 L702 177" stroke="#17324d" stroke-width="4" marker-end="url(#arrow)"/>

  <g transform="translate(724,76)">
    <rect x="0" y="0" width="190" height="58" rx="10" fill="#e0f2fe" stroke="#2563eb"/>
    <text x="50" y="36" fill="#17324d" font-family="Arial, sans-serif" font-size="19" font-weight="700">metricas</text>
    <rect x="0" y="78" width="190" height="58" rx="10" fill="#dcfce7" stroke="#166534"/>
    <text x="46" y="114" fill="#17324d" font-family="Arial, sans-serif" font-size="19" font-weight="700">artefactos</text>
    <rect x="0" y="156" width="190" height="58" rx="10" fill="#f8fafc" stroke="#64748b"/>
    <text x="43" y="192" fill="#17324d" font-family="Arial, sans-serif" font-size="19" font-weight="700">manifest.json</text>
  </g>

  <g transform="translate(252,304)">
    <text x="0" y="0" fill="#17324d" font-family="Arial, sans-serif" font-size="21" font-weight="700">Criterio:</text>
    <text x="88" y="0" fill="#17324d" font-family="Arial, sans-serif" font-size="21">misma entrada + mismo codigo + mismo ambiente</text>
    <text x="88" y="27" fill="#17324d" font-family="Arial, sans-serif" font-size="21">producen la misma evidencia.</text>
  </g>
</svg>
