<svg xmlns="http://www.w3.org/2000/svg" width="1200" height="720" viewBox="0 0 1200 720" role="img" aria-labelledby="title desc">
  <title id="title">Comparación conceptual entre SGD, momentum y Adam</title>
  <desc id="desc">Tres paneles comparan actualizaciones de SGD, momentum y Adam sobre una trayectoria de pérdida, destacando gradiente actual, memoria y escala adaptativa.</desc>
  <rect width="1200" height="720" fill="#f8fafc"/>
  <text x="70" y="72" font-family="Arial, sans-serif" font-size="34" font-weight="700" fill="#172033">Optimizadores: gradiente, memoria y escala</text>
  <text x="70" y="112" font-family="Arial, sans-serif" font-size="20" fill="#475569">La regla de actualización cambia; validación indica si la mejora aparece fuera de entrenamiento.</text>

  <g transform="translate(70 165)">
    <rect x="0" y="0" width="320" height="410" rx="18" fill="#ffffff" stroke="#cbd5e1" stroke-width="2"/>
    <text x="30" y="46" font-family="Arial, sans-serif" font-size="26" font-weight="700" fill="#172033">SGD</text>
    <text x="30" y="82" font-family="Arial, sans-serif" font-size="18" fill="#475569">usa el gradiente actual</text>
    <path d="M55 300 C120 230, 180 180, 260 105" fill="none" stroke="#93c5fd" stroke-width="18" stroke-linecap="round"/>
    <polyline points="62,298 120,245 176,196 235,143" fill="none" stroke="#2563eb" stroke-width="6" stroke-linecap="round" stroke-linejoin="round"/>
    <g fill="#2563eb">
      <circle cx="62" cy="298" r="8"/><circle cx="120" cy="245" r="8"/><circle cx="176" cy="196" r="8"/><circle cx="235" cy="143" r="8"/>
    </g>
    <text x="30" y="360" font-family="Arial, sans-serif" font-size="17" fill="#172033">θ ← θ − αg</text>
  </g>

  <g transform="translate(440 165)">
    <rect x="0" y="0" width="320" height="410" rx="18" fill="#ffffff" stroke="#cbd5e1" stroke-width="2"/>
    <text x="30" y="46" font-family="Arial, sans-serif" font-size="26" font-weight="700" fill="#172033">Momentum</text>
    <text x="30" y="82" font-family="Arial, sans-serif" font-size="18" fill="#475569">promedia dirección reciente</text>
    <path d="M55 300 C120 230, 180 180, 260 105" fill="none" stroke="#bbf7d0" stroke-width="18" stroke-linecap="round"/>
    <polyline points="62,298 128,238 196,178 260,126" fill="none" stroke="#16a34a" stroke-width="6" stroke-linecap="round" stroke-linejoin="round"/>
    <g fill="#16a34a">
      <circle cx="62" cy="298" r="8"/><circle cx="128" cy="238" r="8"/><circle cx="196" cy="178" r="8"/><circle cx="260" cy="126" r="8"/>
    </g>
    <text x="30" y="345" font-family="Arial, sans-serif" font-size="17" fill="#172033">v ← βv + (1−β)g</text>
    <text x="30" y="375" font-family="Arial, sans-serif" font-size="17" fill="#172033">θ ← θ − αv</text>
  </g>

  <g transform="translate(810 165)">
    <rect x="0" y="0" width="320" height="410" rx="18" fill="#ffffff" stroke="#cbd5e1" stroke-width="2"/>
    <text x="30" y="46" font-family="Arial, sans-serif" font-size="26" font-weight="700" fill="#172033">Adam</text>
    <text x="30" y="82" font-family="Arial, sans-serif" font-size="18" fill="#475569">memoria + escala adaptativa</text>
    <path d="M55 300 C120 230, 180 180, 260 105" fill="none" stroke="#fed7aa" stroke-width="18" stroke-linecap="round"/>
    <polyline points="62,298 110,258 160,208 212,158 260,120" fill="none" stroke="#ea580c" stroke-width="6" stroke-linecap="round" stroke-linejoin="round"/>
    <g fill="#ea580c">
      <circle cx="62" cy="298" r="8"/><circle cx="110" cy="258" r="8"/><circle cx="160" cy="208" r="8"/><circle cx="212" cy="158" r="8"/><circle cx="260" cy="120" r="8"/>
    </g>
    <text x="30" y="333" font-family="Arial, sans-serif" font-size="17" fill="#172033">m: media de gradientes</text>
    <text x="30" y="363" font-family="Arial, sans-serif" font-size="17" fill="#172033">s: media de gradientes²</text>
  </g>

  <rect x="160" y="600" width="880" height="72" rx="12" fill="#e0f2fe" stroke="#7dd3fc"/>
  <text x="188" y="629" font-family="Arial, sans-serif" font-size="18" fill="#0f172a">La elección del optimizador es un hiperparámetro experimental.</text>
  <text x="188" y="655" font-family="Arial, sans-serif" font-size="18" fill="#0f172a">Se reporta con semilla, épocas, tasa y métrica de validación.</text>
</svg>
